<svg width="246" height="246" viewBox="0 0 246 246" fill="none" xmlns="http://www.w3.org/2000/svg">
<path opacity="0.7" d="M33.4216 82.2083C33.4216 82.2083 19.7046 117.632 38.9812 153.302C58.2577 188.972 97.9621 207.816 129.74 223.929C161.519 240.042 194.517 232.195 210.197 205.804C225.877 179.413 204.372 160.574 204.342 122.941C204.313 85.3079 209.976 75.3449 189.582 43.5519C169.189 11.7588 119.197 4.71833 81.3916 28.2999C43.5863 51.8815 33.4216 82.2083 33.4216 82.2083Z" fill="white"/>
<path d="M95.448 12.0098C78.72 14.7601 62.7448 20.8215 49.1557 31.2962C29.3872 46.5482 18.4254 69.313 17.2791 94.0852C16.5263 110.439 20.4279 126.385 25.1511 141.913C31.2125 161.868 35.1288 184.643 47.7978 201.72C67.527 228.288 105.652 239.496 137.539 234.743C158.139 231.668 179.905 219.983 186.247 198.827C188.593 190.999 189.735 182.591 193.745 175.354C198.552 166.685 207.265 161.622 213.882 154.562C222.059 145.844 225.351 134.98 227.388 123.492C231.845 98.341 225.759 71.6992 211.063 50.8335C195.727 29.0674 172.977 17.3775 147.147 12.7921C144.313 12.3001 141.465 11.8622 138.606 11.503C124.417 9.71706 109.667 9.65802 95.448 12.0098Z" fill="white"/>
<path opacity="0.7" d="M95.448 12.0098C78.72 14.7601 62.7448 20.8215 49.1557 31.2962C29.3872 46.5482 18.4254 69.313 17.2791 94.0852C16.5263 110.439 20.4279 126.385 25.1511 141.913C31.2125 161.868 35.1288 184.643 47.7978 201.72C67.527 228.288 105.652 239.496 137.539 234.743C158.139 231.668 179.905 219.983 186.247 198.827C188.593 190.999 189.735 182.591 193.745 175.354C198.552 166.685 207.265 161.622 213.882 154.562C222.059 145.844 225.351 134.98 227.388 123.492C231.845 98.341 225.759 71.6992 211.063 50.8335C195.727 29.0674 172.977 17.3775 147.147 12.7921C144.313 12.3001 141.465 11.8622 138.606 11.503C124.417 9.71706 109.667 9.65802 95.448 12.0098Z" fill="white"/>
<path opacity="0.2" d="M99.0298 188.269L140.22 180.589C140.22 180.589 149.539 209.991 151.418 213.794L150.434 216.101L151.054 219.963L110.119 229.272L106.838 226.684L99.0298 188.269Z" fill="black" fill-opacity="0.7"/>
<path d="M137.228 177.437L97.4088 186.865L106.836 226.684L146.655 217.256L137.228 177.437Z" fill="white"/>
<mask id="mask0_2_1351" style="mask-type:luminance" maskUnits="userSpaceOnUse" x="97" y="177" width="50" height="50">
<path d="M137.228 177.437L97.4088 186.865L106.836 226.684L146.655 217.256L137.228 177.437Z" fill="white"/>
</mask>
<g mask="url(#mask0_2_1351)">
<path opacity="0.2" d="M139.772 188.18L146.38 216.081L108.407 225.07C103.832 213.621 100.334 199.206 100.334 199.206L139.772 188.18Z" fill="black" fill-opacity="0.7"/>
</g>
<path d="M137.228 177.437L97.4088 186.865L106.836 226.684L146.655 217.256L137.228 177.437Z" stroke="#263238" stroke-linecap="round" stroke-linejoin="round"/>
<path d="M147.9 214.719C137.947 217.075 123.851 219.289 115.349 220.539C110.921 221.188 107.969 221.572 107.969 221.572C104.201 214.684 97.4012 186.866 97.4012 186.866L137.219 177.44C137.298 177.779 137.366 178.119 137.44 178.453C142.188 199.968 147.9 214.719 147.9 214.719Z" fill="white"/>
<mask id="mask1_2_1351" style="mask-type:luminance" maskUnits="userSpaceOnUse" x="97" y="177" width="51" height="45">
<path d="M147.9 214.719C137.947 217.075 123.851 219.289 115.349 220.539C110.921 221.188 107.969 221.572 107.969 221.572C104.201 214.684 97.4012 186.866 97.4012 186.866L137.219 177.44C137.298 177.779 137.366 178.119 137.44 178.453C142.188 199.968 147.9 214.719 147.9 214.719Z" fill="white"/>
</mask>
<g mask="url(#mask1_2_1351)">
<path opacity="0.4" d="M147.9 214.718C137.947 217.075 123.851 219.289 115.349 220.539C108.953 216.293 107.423 212.131 107.502 208.16C107.586 203.447 128.122 208.052 132.412 203.383C135.472 200.052 135.364 185.917 137.45 178.453C142.188 199.968 147.9 214.718 147.9 214.718Z" fill="white"/>
</g>
<path d="M147.9 214.719C137.947 217.075 123.851 219.289 115.349 220.539C110.921 221.188 107.969 221.572 107.969 221.572C104.201 214.684 97.4012 186.866 97.4012 186.866L137.219 177.44C137.298 177.779 137.366 178.119 137.44 178.453C142.188 199.968 147.9 214.719 147.9 214.719Z" stroke="#263238" stroke-linecap="round" stroke-linejoin="round"/>
<path d="M104.132 192.888C104.672 192.259 105.32 191.731 106.046 191.329L106.636 192.844L108.698 192.096C109.386 191.845 110.174 191.521 110.415 190.837C110.793 191.737 112.102 191.585 113.032 191.289C119.47 189.217 126.047 187.601 132.712 186.453" stroke="#263238" stroke-linecap="round" stroke-linejoin="round"/>
<path d="M105.131 198.399C104.703 198.178 105.057 197.415 105.539 197.444C106.021 197.474 106.331 198.005 106.37 198.487C106.584 198.464 106.784 198.374 106.943 198.23C107.102 198.086 107.212 197.895 107.256 197.686L107.94 198.178C107.883 198.093 107.844 197.997 107.825 197.897C107.807 197.796 107.809 197.693 107.832 197.593C107.855 197.494 107.898 197.4 107.958 197.318C108.019 197.235 108.095 197.166 108.184 197.115C108.272 197.063 108.37 197.03 108.471 197.018C108.573 197.006 108.675 197.015 108.773 197.044C108.871 197.073 108.962 197.121 109.041 197.187C109.119 197.253 109.183 197.333 109.229 197.425C109.18 196.864 109.396 196.057 109.942 196.185C110.113 196.255 110.268 196.357 110.4 196.485C110.567 196.587 110.755 196.647 110.95 196.662C111.144 196.677 111.34 196.646 111.52 196.571C111.7 196.496 111.86 196.38 111.987 196.232C112.114 196.083 112.204 195.907 112.25 195.718C112.786 196.328 113.726 196.244 114.547 196.106L121.711 194.886C121.78 194.433 122.006 193.853 122.459 193.902C122.72 193.941 122.892 194.192 123.118 194.33C123.467 194.476 123.857 194.49 124.215 194.369C127.442 193.67 130.609 192.718 133.686 191.521" stroke="#263238" stroke-linecap="round" stroke-linejoin="round"/>
<path d="M107.6 204.672C108.557 204.756 109.521 204.623 110.42 204.283C110.261 203.947 110.22 203.567 110.305 203.205C110.39 202.843 110.595 202.521 110.887 202.291L111.753 202.847C115.24 202.764 118.706 202.285 122.085 201.42C123.595 201.036 125.091 200.569 126.582 200.101L135.074 197.454" stroke="#263238" stroke-linecap="round" stroke-linejoin="round"/>
<path opacity="0.2" d="M173.401 30.263L172.608 30.3122C172.244 30.3545 171.876 30.2646 171.571 30.0588C171.267 29.853 171.047 29.5449 170.95 29.1905C169.74 24.7871 165.312 22.3123 160.2 22.6321C155.585 22.9175 150.719 25.8301 147.9 29.8547C147.554 30.3822 147.095 30.8266 146.556 31.1558C146.018 31.485 145.413 31.6909 144.786 31.7587L140.85 32.0047C140.312 32.0544 139.773 31.9301 139.312 31.6502C138.85 31.3703 138.491 30.9495 138.286 30.45C136.697 26.696 132.668 24.3393 128.048 24.6247C122.926 24.9396 117.632 28.0146 115 32.6591C114.792 33.0329 114.497 33.351 114.14 33.5865C113.783 33.822 113.374 33.968 112.948 34.0121L112.156 34.0613C111.97 34.0817 111.796 34.1618 111.66 34.2895C111.523 34.4172 111.432 34.5857 111.399 34.7697L111.089 36.7377C111.07 36.8037 111.065 36.873 111.074 36.941C111.084 37.0091 111.107 37.0744 111.143 37.1328C111.179 37.1911 111.227 37.2413 111.284 37.2801C111.341 37.3188 111.405 37.3452 111.472 37.3577L112.427 37.6479C112.797 37.7581 113.117 37.9936 113.333 38.3141C113.548 38.6346 113.645 39.0201 113.608 39.4044C113.273 45.7069 117.721 50.3366 124.053 49.9479C130.159 49.5691 135.969 44.6393 137.868 38.5631C138.029 38.0711 138.309 37.6267 138.683 37.2695C139.057 36.9123 139.514 36.6535 140.013 36.5163C141.367 36.1597 142.775 36.0596 144.166 36.2211C144.609 36.2728 145.016 36.4892 145.307 36.8274C145.598 37.1655 145.751 37.6007 145.735 38.0465C145.735 44.0243 150.08 48.3342 156.195 47.9553C162.537 47.5716 168.549 42.3121 170.232 35.9161C170.353 35.4733 170.576 35.0649 170.882 34.7233C171.189 34.3816 171.571 34.1162 171.998 33.9481L173.066 33.5397C173.215 33.4889 173.348 33.3992 173.451 33.2798C173.554 33.1605 173.623 33.0158 173.651 32.8608L173.966 30.8928C173.992 30.8113 173.996 30.7245 173.978 30.641C173.96 30.5575 173.92 30.4802 173.863 30.4167C173.806 30.3531 173.733 30.3055 173.652 30.2786C173.571 30.2517 173.484 30.2463 173.401 30.263ZM124.324 48.285C118.42 48.6491 114.429 44.0144 115.384 37.953C116.338 31.8915 121.908 26.637 127.797 26.2975C133.686 25.958 137.691 30.5681 136.732 36.6295C135.772 42.6909 130.213 47.9209 124.324 48.285ZM138.488 35.3503C138.511 35.0223 138.521 34.6828 138.518 34.3319C138.524 34.1916 138.58 34.0582 138.675 33.9554C138.771 33.8526 138.9 33.7872 139.039 33.771L146.085 33.338C146.146 33.3322 146.207 33.3424 146.263 33.3676C146.32 33.3928 146.368 33.4322 146.404 33.4818C146.44 33.5314 146.463 33.5896 146.47 33.6507C146.477 33.7117 146.468 33.7735 146.444 33.83C146.336 34.1695 146.237 34.509 146.149 34.8534C143.118 33.9727 140.092 34.7648 138.488 35.3503ZM156.456 46.2924C150.552 46.6565 146.562 42.0218 147.521 35.9604C148.481 29.8989 154.04 24.6444 159.93 24.3049C165.819 23.9654 169.824 28.5755 168.869 34.6369C167.915 40.6983 162.36 45.9283 156.456 46.2924Z" fill="black" fill-opacity="0.7"/>
<path d="M168.348 31.488L123.202 37.4806C122.136 37.6222 121.111 37.9856 120.194 38.5474C119.277 39.1093 118.488 39.857 117.878 40.7426L111.271 50.3562C111.21 50.4456 111.171 50.5475 111.155 50.6543C111.139 50.7611 111.147 50.8701 111.18 50.9731C111.212 51.0762 111.267 51.1707 111.34 51.2496C111.414 51.3284 111.505 51.3897 111.605 51.4288C112.048 51.599 112.535 51.6148 112.988 51.4738C113.44 51.3327 113.832 51.0429 114.1 50.6514L120.21 41.7954C120.574 41.2653 121.044 40.8165 121.59 40.4777C122.136 40.1389 122.747 39.9174 123.384 39.8274L168.51 33.4314L168.348 31.488Z" fill="#263238"/>
<path d="M107.443 35.2862L152.973 34.5335C154.049 34.5183 155.117 34.7295 156.107 35.1532C157.097 35.577 157.987 36.2039 158.719 36.9935L166.68 45.5248C166.753 45.6037 166.808 45.6983 166.839 45.8014C166.871 45.9045 166.879 46.0135 166.862 46.12C166.846 46.2266 166.805 46.3279 166.744 46.4166C166.682 46.5052 166.602 46.5788 166.508 46.6318C166.096 46.8666 165.616 46.9554 165.148 46.884C164.679 46.8126 164.248 46.585 163.925 46.2382L156.569 38.3662C156.129 37.8944 155.596 37.5196 155.003 37.2654C154.41 37.0113 153.77 36.8835 153.125 36.8902L107.546 37.2346L107.443 35.2862Z" fill="#263238"/>
<path d="M135.039 38.1843C135.6 38.2876 135.576 42.1203 134.306 43.4142C133.037 44.7082 131.738 41.5594 132.068 40.4278C132.397 39.2962 133.283 37.8497 135.039 38.1843Z" fill="white" stroke="#263238" stroke-linecap="round" stroke-linejoin="round"/>
<path d="M142.951 37.6922C142.409 37.8693 142.906 41.6282 144.323 42.7943C145.74 43.9603 146.646 40.6344 146.178 39.5569C145.711 38.4794 144.648 37.1461 142.951 37.6922Z" fill="white" stroke="#263238" stroke-linecap="round" stroke-linejoin="round"/>
<path opacity="0.5" d="M114.744 29.215C117.126 27.1781 122.169 23.7095 127.689 27.0108C133.209 30.3122 135.113 33.8988 133.981 38.7549C132.85 43.6109 129.371 50.1053 121.189 48.9737C113.007 47.8421 107.349 35.5421 114.744 29.215Z" fill="white"/>
<path opacity="0.5" d="M146.936 27.6456C149.317 25.6087 154.355 22.1352 159.875 25.4365C165.396 28.7379 167.305 32.3245 166.168 37.1806C165.032 42.0366 161.563 48.531 153.376 47.3994C145.189 46.2678 139.536 33.9481 146.936 27.6456Z" fill="white"/>
<path d="M169.287 30.7993L168.495 30.8485C168.103 30.8744 167.711 30.7854 167.369 30.5922C167.026 30.3991 166.748 30.1103 166.567 29.7612C164.372 25.4906 159.349 23.0995 154.227 23.4144C151.965 23.5619 149.778 24.2859 147.875 25.5174C145.972 26.7489 144.416 28.4469 143.354 30.45C143.099 30.9707 142.713 31.4159 142.233 31.7412C141.753 32.0666 141.197 32.2609 140.619 32.3048L136.683 32.5459C136.102 32.5764 135.524 32.4538 135.006 32.1904C134.488 31.9271 134.048 31.5322 133.731 31.0453C132.43 29.1886 130.675 27.6957 128.634 26.7087C126.593 25.7218 124.333 25.2737 122.07 25.407C116.948 25.7268 112.26 28.7181 110.611 33.2298C110.474 33.5981 110.233 33.9186 109.917 34.1519C109.6 34.3852 109.223 34.5212 108.83 34.5434L108.038 34.5926C107.866 34.604 107.704 34.6834 107.59 34.8134C107.476 34.9434 107.417 35.1135 107.428 35.2863L107.546 37.21C107.556 37.3539 107.613 37.4905 107.708 37.5989C107.803 37.7073 107.931 37.7816 108.073 37.8103L109.106 38.0858C109.507 38.1873 109.87 38.4016 110.152 38.7033C110.435 39.0051 110.625 39.3816 110.7 39.7881C111.169 42.7551 112.708 45.4477 115.026 47.3582C117.344 49.2687 120.281 50.265 123.283 50.159C126.285 50.0531 129.144 48.8524 131.322 46.7833C133.499 44.7142 134.844 41.9197 135.103 38.9271C135.157 38.4625 135.351 38.0253 135.66 37.6738C135.968 37.3222 136.376 37.0729 136.83 36.9591C138.18 36.6026 139.586 36.5024 140.973 36.6639C141.442 36.7242 141.882 36.9259 142.233 37.2424C142.585 37.5588 142.832 37.9749 142.941 38.4351C143.553 41.3878 145.228 44.0128 147.649 45.8114C150.069 47.6099 153.066 48.4566 156.07 48.1907C159.073 47.9248 161.875 46.5647 163.941 44.3688C166.008 42.173 167.196 39.2945 167.28 36.2802C167.302 35.869 167.442 35.4729 167.683 35.1388C167.923 34.8048 168.255 34.5469 168.638 34.3958L169.622 33.9924C169.758 33.9464 169.876 33.8571 169.957 33.738C170.038 33.619 170.077 33.4768 170.07 33.3331L169.947 31.4094C169.938 31.2419 169.864 31.0845 169.741 30.9706C169.618 30.8566 169.455 30.7952 169.287 30.7993ZM123.492 48.3784C121.38 48.51 119.276 48.0118 117.446 46.9471C115.617 45.8823 114.145 44.2988 113.216 42.397C112.287 40.4952 111.944 38.3606 112.229 36.2633C112.513 34.1661 113.414 32.2005 114.817 30.6153C116.219 29.0302 118.06 27.8968 120.107 27.3586C122.154 26.8204 124.315 26.9015 126.316 27.5918C128.316 28.282 130.067 29.5504 131.347 31.2362C132.627 32.9221 133.377 34.9497 133.504 37.0624C133.67 39.889 132.71 42.6662 130.833 44.7867C128.957 46.9072 126.318 48.1986 123.492 48.3784ZM135.005 35.8029C134.951 35.4684 134.887 35.1387 134.808 34.8189C134.793 34.7556 134.792 34.6897 134.805 34.6259C134.818 34.5622 134.845 34.502 134.884 34.4499C134.923 34.3977 134.973 34.3548 135.03 34.3242C135.088 34.2936 135.151 34.2761 135.216 34.2728L142.262 33.8349C142.328 33.827 142.396 33.8343 142.459 33.8562C142.522 33.8782 142.58 33.9142 142.627 33.9615C142.675 34.0089 142.711 34.0664 142.733 34.1297C142.754 34.193 142.762 34.2604 142.754 34.3269C142.719 34.6516 142.695 34.9862 142.68 35.3109C140.137 34.6775 137.46 34.8494 135.02 35.8029H135.005ZM155.639 46.3858C153.527 46.5174 151.423 46.0192 149.594 44.9545C147.765 43.8897 146.292 42.3062 145.364 40.4044C144.435 38.5026 144.091 36.368 144.376 34.2707C144.661 32.1735 145.561 30.2079 146.964 28.6227C148.366 27.0376 150.208 25.9042 152.255 25.366C154.302 24.8278 156.462 24.9089 158.463 25.5992C160.464 26.2894 162.215 27.5578 163.494 29.2436C164.774 30.9295 165.525 32.9571 165.651 35.0698C165.819 37.8943 164.861 40.6701 162.987 42.7905C161.114 44.9109 158.478 46.2035 155.654 46.3858H155.639Z" fill="#757575" stroke="#263238" stroke-linecap="round" stroke-linejoin="round"/>
<path opacity="0.4" d="M115.62 44.5949C115.62 44.5949 111.684 39.3846 114.459 33.333C116.963 27.8915 122.823 27.2716 125.603 28.413L119.556 39.0009C120.112 36.4147 120.945 33.8959 122.041 31.488C122.041 31.488 116.697 36.9 115.62 44.5949Z" fill="white"/>
<path opacity="0.4" d="M147.689 42.3121C147.689 42.3121 143.753 37.1067 146.527 31.0551C149.032 25.6087 154.891 24.9888 157.666 26.1351L151.6 36.7033C152.058 32.91 154.109 29.2003 154.109 29.2003C154.109 29.2003 148.761 34.6074 147.689 42.3121Z" fill="white"/>
<path opacity="0.2" d="M32.2752 134.237L33.702 140.648L35.3305 133.391L31.0501 60.9045H28.1326L32.2752 134.237Z" fill="black" fill-opacity="0.7"/>
<path d="M29.6676 60.0239L33.702 132.938L32.226 138.936L30.0907 133.14L26.0465 60.2207C26.0371 60.0993 26.0521 59.9772 26.0905 59.8617C26.1289 59.7461 26.19 59.6394 26.2702 59.5478C26.3504 59.4561 26.448 59.3814 26.5575 59.328C26.6669 59.2746 26.7859 59.2436 26.9075 59.2367L28.7033 59.1383C28.8251 59.1317 28.947 59.1495 29.0618 59.1907C29.1766 59.2318 29.282 59.2956 29.3719 59.3781C29.4617 59.4606 29.5342 59.5602 29.585 59.6711C29.6357 59.782 29.6638 59.902 29.6676 60.0239Z" fill="white"/>
<mask id="mask2_2_1351" style="mask-type:luminance" maskUnits="userSpaceOnUse" x="26" y="59" width="8" height="80">
<path d="M29.6676 60.0239L33.702 132.938L32.226 138.936L30.0907 133.14L26.0465 60.2207C26.0371 60.0993 26.0521 59.9772 26.0905 59.8617C26.1289 59.7461 26.19 59.6394 26.2702 59.5478C26.3504 59.4561 26.448 59.3814 26.5575 59.328C26.6669 59.2746 26.7859 59.2436 26.9075 59.2367L28.7033 59.1383C28.8251 59.1317 28.947 59.1495 29.0618 59.1907C29.1766 59.2318 29.282 59.2956 29.3719 59.3781C29.4617 59.4606 29.5342 59.5602 29.585 59.6711C29.6357 59.782 29.6638 59.902 29.6676 60.0239Z" fill="white"/>
</mask>
<g mask="url(#mask2_2_1351)">
<path opacity="0.2" d="M32.2162 138.936L30.0809 133.14L26.0465 60.2208C26.0371 60.0994 26.0521 59.9773 26.0905 59.8618C26.1289 59.7462 26.19 59.6395 26.2702 59.5479C26.3504 59.4562 26.448 59.3815 26.5575 59.3281C26.6669 59.2747 26.7859 59.2437 26.9075 59.2368H27.1584L31.2223 132.688L32.2162 138.936Z" fill="black" fill-opacity="0.7"/>
</g>
<path d="M29.6676 60.0239L33.702 132.938L32.226 138.936L30.0907 133.14L26.0465 60.2207C26.0371 60.0993 26.0521 59.9772 26.0905 59.8617C26.1289 59.7461 26.19 59.6394 26.2702 59.5478C26.3504 59.4561 26.448 59.3814 26.5575 59.328C26.6669 59.2746 26.7859 59.2436 26.9075 59.2367L28.7033 59.1383C28.8251 59.1317 28.947 59.1495 29.0618 59.1907C29.1766 59.2318 29.282 59.2956 29.3719 59.3781C29.4617 59.4606 29.5342 59.5602 29.585 59.6711C29.6357 59.782 29.6638 59.902 29.6676 60.0239Z" stroke="#263238" stroke-linecap="round" stroke-linejoin="round"/>
<path d="M27.2273 60.5159L31.1633 132.097C31.1677 132.178 31.1881 132.258 31.2234 132.332C31.2587 132.405 31.3082 132.471 31.369 132.526C31.4297 132.58 31.5007 132.622 31.5777 132.649C31.6547 132.676 31.7362 132.687 31.8177 132.682H32.2506" fill="white"/>
<path d="M27.2273 60.5159L31.1633 132.097C31.1677 132.178 31.1881 132.258 31.2234 132.332C31.2587 132.405 31.3082 132.471 31.369 132.526C31.4297 132.58 31.5007 132.622 31.5777 132.649C31.6547 132.676 31.7362 132.687 31.8177 132.682H32.2506" stroke="#263238" stroke-linecap="round" stroke-linejoin="round"/>
<path opacity="0.2" d="M45.141 147.826L58.4791 60.6785C58.8902 57.9993 60.3484 55.5929 62.5331 53.9885C64.7178 52.3841 67.4503 51.713 70.1297 52.1226L198.202 71.7288C199.529 71.9312 200.803 72.3929 201.951 73.0878C203.1 73.7826 204.1 74.6968 204.895 75.7783C205.69 76.8597 206.264 78.0872 206.585 79.3905C206.905 80.6939 206.966 82.0476 206.763 83.3744L193.42 170.522C193.219 171.85 192.758 173.125 192.063 174.274C191.369 175.423 190.455 176.424 189.373 177.22C188.292 178.016 187.064 178.59 185.76 178.911C184.456 179.231 183.102 179.291 181.774 179.088L53.6969 159.477C51.0177 159.066 48.6114 157.608 47.007 155.423C45.4026 153.238 44.7314 150.506 45.141 147.826Z" fill="black" fill-opacity="0.7"/>
<path d="M55.4197 63.9572L56.4326 57.3382C56.4523 57.2092 56.5225 57.0933 56.6277 57.0161C56.7328 56.9388 56.8644 56.9065 56.9934 56.9263L59.785 57.3534L58.624 64.9403L55.8324 64.5131C55.7043 64.4935 55.589 64.4241 55.5118 64.3201C55.4345 64.216 55.4014 64.0856 55.4197 63.9572Z" fill="white" stroke="#263238" stroke-linecap="round" stroke-linejoin="round"/>
<path d="M72.7603 50.0165L79.3794 51.0294C79.5083 51.0491 79.6242 51.1193 79.7015 51.2245C79.7787 51.3296 79.811 51.4612 79.7913 51.5902L79.3641 54.3818L71.7772 53.2208L72.2044 50.4292C72.224 50.3011 72.2934 50.1858 72.3975 50.1086C72.5016 50.0313 72.632 49.9982 72.7603 50.0165Z" fill="white" stroke="#263238" stroke-linecap="round" stroke-linejoin="round"/>
<path d="M81.7814 51.3942L88.4005 52.4071C88.5295 52.4268 88.6453 52.497 88.7226 52.6022C88.7998 52.7073 88.8321 52.8389 88.8124 52.9679L88.3852 55.7594L80.7983 54.5985L81.2255 51.8069C81.2451 51.6787 81.3145 51.5635 81.4186 51.4862C81.5227 51.409 81.6531 51.3759 81.7814 51.3942Z" fill="white" stroke="#263238" stroke-linecap="round" stroke-linejoin="round"/>
<path d="M43.665 145.858L57.0031 58.7105C57.4142 56.0312 58.8724 53.6249 61.0571 52.0205C63.2418 50.4161 65.9743 49.7449 68.6537 50.1546L196.726 69.7608C198.053 69.9631 199.327 70.4249 200.475 71.1197C201.624 71.8146 202.624 72.7288 203.419 73.8102C204.214 74.8917 204.788 76.1191 205.109 77.4225C205.429 78.7259 205.49 80.0796 205.287 81.4064L191.944 168.554C191.743 169.882 191.282 171.157 190.587 172.306C189.893 173.455 188.979 174.456 187.897 175.252C186.816 176.048 185.588 176.622 184.284 176.943C182.98 177.263 181.626 177.323 180.298 177.12L52.2209 157.509C49.5417 157.098 47.1354 155.64 45.531 153.455C43.9265 151.27 43.2554 148.538 43.665 145.858Z" fill="white" stroke="#263238" stroke-linecap="round" stroke-linejoin="round"/>
<path d="M180.8 176.033L52.0634 156.328C50.9283 156.155 49.8384 155.76 48.856 155.166C47.8736 154.571 47.018 153.789 46.3381 152.864C45.6582 151.939 45.1673 150.888 44.8935 149.773C44.6197 148.658 44.5684 147.5 44.7425 146.365L58.1839 58.548C58.5344 56.2561 59.7809 54.1972 61.6493 52.8243C63.5177 51.4514 65.8549 50.8768 68.1469 51.2271L196.889 70.9317C199.18 71.2845 201.238 72.5324 202.611 74.4012C203.984 76.2701 204.558 78.6072 204.21 80.8996L190.768 168.712C190.595 169.847 190.199 170.937 189.604 171.92C189.009 172.902 188.227 173.758 187.301 174.437C186.375 175.117 185.325 175.608 184.209 175.882C183.094 176.156 181.935 176.207 180.8 176.033Z" fill="#757575" stroke="#263238" stroke-linecap="round" stroke-linejoin="round"/>
<path d="M53.628 102.789C53.6117 102.884 53.5677 102.972 53.5015 103.042C53.4353 103.113 53.3499 103.162 53.2558 103.184C53.1618 103.206 53.0634 103.2 52.9727 103.167C52.8821 103.133 52.8034 103.074 52.7463 102.996C52.6892 102.918 52.6563 102.825 52.6517 102.729C52.6471 102.632 52.671 102.537 52.7204 102.454C52.7699 102.371 52.8426 102.304 52.9297 102.262C53.0167 102.22 53.1141 102.205 53.2098 102.218C53.2752 102.227 53.3382 102.249 53.3949 102.283C53.4516 102.316 53.501 102.361 53.54 102.415C53.579 102.468 53.6069 102.528 53.622 102.593C53.6372 102.657 53.6392 102.724 53.628 102.789Z" fill="#999999" stroke="#263238" stroke-linecap="round" stroke-linejoin="round"/>
<path d="M53.387 107.369C53.3374 107.61 53.1971 107.823 52.9952 107.963C52.7933 108.104 52.5451 108.161 52.3019 108.124C52.0588 108.087 51.8392 107.958 51.6886 107.763C51.538 107.569 51.4679 107.324 51.4928 107.079C51.5424 106.838 51.6826 106.625 51.8845 106.485C52.0865 106.344 52.3346 106.287 52.5778 106.324C52.8209 106.361 53.0405 106.491 53.1911 106.685C53.3417 106.88 53.4118 107.125 53.387 107.369Z" fill="#263238"/>
<path d="M55.0745 96.3435C55.0249 96.5844 54.8846 96.7971 54.6827 96.9376C54.4808 97.0781 54.2326 97.1357 53.9894 97.0984C53.7463 97.0611 53.5267 96.9319 53.3761 96.7374C53.2255 96.5429 53.1554 96.2979 53.1803 96.0532C53.1934 95.9238 53.2327 95.7983 53.2958 95.6846C53.359 95.5708 53.4446 95.4711 53.5475 95.3914C53.6503 95.3118 53.7683 95.2539 53.8943 95.2213C54.0202 95.1887 54.1515 95.182 54.2801 95.2017C54.4087 95.2215 54.5319 95.2671 54.6423 95.3359C54.7527 95.4048 54.848 95.4953 54.9223 95.6021C54.9966 95.7089 55.0484 95.8297 55.0746 95.9572C55.1007 96.0846 55.1007 96.2161 55.0745 96.3435Z" fill="#263238"/>
<path d="M52.644 110.464C52.623 110.6 52.562 110.728 52.4687 110.829C52.3754 110.931 52.254 111.003 52.1198 111.036C51.9857 111.069 51.8448 111.061 51.715 111.014C51.5852 110.967 51.4722 110.882 51.3905 110.771C51.3087 110.66 51.2618 110.527 51.2556 110.389C51.2494 110.251 51.2843 110.114 51.3558 109.996C51.4273 109.878 51.5322 109.783 51.6573 109.725C51.7823 109.666 51.922 109.646 52.0585 109.667C52.1494 109.681 52.2366 109.712 52.3152 109.76C52.3938 109.807 52.4622 109.87 52.5166 109.944C52.571 110.018 52.6102 110.102 52.6321 110.191C52.6539 110.28 52.658 110.373 52.644 110.464Z" fill="#263238"/>
<path d="M200.977 79.3891L187.236 169.189C187.062 170.321 186.446 171.337 185.524 172.015C184.601 172.693 183.447 172.977 182.316 172.805L74.4642 156.299L72.1272 155.964L63.3351 154.616L59.0794 153.966L52.9294 153.012L51.5862 152.805C50.4545 152.632 49.4379 152.016 48.7598 151.094C48.0818 150.171 47.7977 149.017 47.97 147.885L61.7165 58.056C61.8017 57.4955 61.9967 56.9574 62.2902 56.4723C62.5838 55.9873 62.9701 55.565 63.4272 55.2295C63.8842 54.8941 64.4029 54.6521 64.9536 54.5174C65.5043 54.3827 66.0762 54.358 66.6365 54.4447L106.897 60.6046L112.988 61.5394L118.808 62.4299L126.287 63.5713L128.993 63.9846L197.381 74.4495C197.941 74.5375 198.479 74.7352 198.963 75.0311C199.447 75.3271 199.868 75.7155 200.202 76.1742C200.536 76.6329 200.776 77.153 200.909 77.7046C201.042 78.2562 201.065 78.8286 200.977 79.3891Z" fill="#263238"/>
<g opacity="0.1">
<path d="M99.876 155.472L54.12 148.471C53.8227 148.425 53.5558 148.263 53.3778 148.02C53.1998 147.778 53.1252 147.474 53.1705 147.177L57.7116 117.495C57.7589 117.197 57.922 116.93 58.1653 116.752C58.4086 116.574 58.7125 116.5 59.0105 116.545L104.766 123.546C104.914 123.568 105.056 123.619 105.183 123.697C105.311 123.774 105.422 123.875 105.51 123.996C105.599 124.116 105.662 124.252 105.698 124.397C105.733 124.542 105.739 124.693 105.716 124.84L101.175 154.522C101.152 154.67 101.1 154.812 101.023 154.94C100.945 155.067 100.843 155.178 100.722 155.267C100.602 155.355 100.465 155.418 100.32 155.454C100.174 155.489 100.024 155.495 99.876 155.472ZM58.9662 116.939C58.8702 116.924 58.7723 116.928 58.6781 116.952C58.5838 116.975 58.4951 117.016 58.4169 117.074C58.3388 117.132 58.2727 117.204 58.2226 117.287C58.1725 117.37 58.1393 117.462 58.1249 117.558L53.5837 147.236C53.5691 147.332 53.5735 147.43 53.5967 147.524C53.6199 147.618 53.6615 147.707 53.7191 147.785C53.7767 147.863 53.8492 147.929 53.9323 147.979C54.0154 148.03 54.1076 148.063 54.2036 148.077L99.935 155.078C100.031 155.093 100.129 155.089 100.223 155.065C100.317 155.042 100.406 155.001 100.484 154.943C100.562 154.885 100.629 154.813 100.679 154.73C100.729 154.647 100.762 154.554 100.776 154.458L105.322 124.781C105.351 124.587 105.302 124.389 105.186 124.231C105.07 124.073 104.896 123.966 104.703 123.935L58.9662 116.939Z" fill="white"/>
</g>
<path opacity="0.4" d="M72.7668 134.902L83.0102 140.712C84.0949 138.723 84.5989 136.469 84.465 134.208C84.331 131.946 83.5644 129.767 82.2525 127.92L72.7668 134.902Z" fill="white"/>
<path opacity="0.6" d="M72.8652 134.316L82.0164 127.59C80.7798 125.961 79.1494 124.673 77.2785 123.846L75.4728 128.127L72.8652 134.316Z" fill="white"/>
<path d="M74.4249 123L72.8406 133.332L76.9144 123.674C76.1108 123.362 75.2763 123.136 74.4249 123Z" fill="white"/>
<path opacity="0.1" d="M72.2256 134.779L74.0312 122.971C71.9575 122.687 69.8457 122.948 67.9028 123.726C65.96 124.505 64.2528 125.775 62.9486 127.412C61.6444 129.049 60.788 130.997 60.4633 133.064C60.1387 135.132 60.3569 137.249 61.0966 139.207L72.2256 134.779Z" fill="white"/>
<path opacity="0.2" d="M70.5725 146.862C72.9599 147.227 75.4018 146.869 77.5836 145.833C79.7654 144.797 81.587 143.132 82.8135 141.051L72.388 135.147L61.2393 139.551C62.0352 141.469 63.3122 143.15 64.9471 144.43C66.582 145.711 68.5195 146.549 70.5725 146.862Z" fill="white"/>
<path d="M91.3944 127.796L90.0375 127.588C89.8683 127.562 89.7101 127.678 89.6842 127.847L89.4766 129.204C89.4507 129.374 89.5669 129.532 89.7361 129.558L91.093 129.765C91.2622 129.791 91.4203 129.675 91.4462 129.506L91.6539 128.149C91.6798 127.98 91.5636 127.821 91.3944 127.796Z" fill="white"/>
<path d="M98.769 129.667L92.8404 128.756C92.8106 128.752 92.7818 128.742 92.7559 128.727C92.73 128.711 92.7075 128.691 92.6896 128.666C92.6717 128.642 92.6589 128.614 92.6518 128.585C92.6448 128.556 92.6437 128.525 92.6486 128.496C92.6527 128.466 92.6629 128.437 92.6783 128.411C92.6938 128.385 92.7143 128.363 92.7385 128.345C92.7628 128.327 92.7905 128.314 92.8198 128.307C92.8491 128.3 92.8795 128.299 92.9093 128.304L98.8133 129.214C98.8432 129.218 98.8719 129.228 98.8978 129.244C98.9237 129.259 98.9463 129.28 98.9642 129.304C98.982 129.328 98.9949 129.356 99.0019 129.385C99.009 129.415 99.0101 129.445 99.0052 129.475C98.9948 129.529 98.9654 129.579 98.9221 129.614C98.8789 129.649 98.8247 129.668 98.769 129.667Z" fill="white"/>
<path d="M96.8059 130.38L92.6879 129.75C92.658 129.746 92.6293 129.736 92.6034 129.721C92.5775 129.705 92.555 129.685 92.5371 129.66C92.5192 129.636 92.5064 129.608 92.4993 129.579C92.4923 129.55 92.4911 129.519 92.496 129.49C92.5057 129.43 92.5385 129.376 92.5872 129.34C92.636 129.305 92.6969 129.289 92.7568 129.298L96.8748 129.927C96.9047 129.932 96.9334 129.942 96.9593 129.957C96.9852 129.973 97.0078 129.993 97.0257 130.017C97.0435 130.042 97.0564 130.069 97.0634 130.099C97.0705 130.128 97.0716 130.158 97.0667 130.188C97.0625 130.218 97.0524 130.247 97.0369 130.273C97.0215 130.299 97.001 130.321 96.9767 130.339C96.9524 130.357 96.9248 130.37 96.8955 130.377C96.8662 130.384 96.8357 130.385 96.8059 130.38Z" fill="white"/>
<path opacity="0.6" d="M90.7205 132.204L89.3636 131.996C89.1944 131.97 89.0363 132.086 89.0104 132.256L88.8027 133.612C88.7768 133.782 88.893 133.94 89.0622 133.966L90.4191 134.173C90.5883 134.199 90.7465 134.083 90.7724 133.914L90.98 132.557C91.0059 132.388 90.8897 132.23 90.7205 132.204Z" fill="white"/>
<path d="M98.095 134.07L92.1614 133.165C92.1023 133.154 92.0494 133.121 92.0138 133.073C91.9781 133.024 91.9623 132.964 91.9696 132.904C91.9793 132.844 92.012 132.791 92.0608 132.755C92.1095 132.719 92.1704 132.704 92.2303 132.712L98.1638 133.622C98.1932 133.627 98.2215 133.637 98.2469 133.653C98.2723 133.668 98.2945 133.688 98.312 133.712C98.3296 133.736 98.3423 133.764 98.3494 133.792C98.3565 133.821 98.3578 133.851 98.3533 133.881C98.3487 133.91 98.3385 133.938 98.323 133.964C98.3076 133.989 98.2873 134.011 98.2633 134.029C98.2394 134.047 98.2121 134.059 98.1832 134.066C98.1544 134.073 98.1244 134.075 98.095 134.07Z" fill="white"/>
<path d="M96.1319 134.778L92.004 134.149C91.9507 134.133 91.905 134.098 91.8752 134.051C91.8455 134.004 91.8337 133.948 91.8421 133.893C91.8505 133.837 91.8784 133.787 91.9208 133.751C91.9632 133.715 92.0172 133.696 92.0729 133.696L96.1909 134.326C96.2208 134.33 96.2495 134.34 96.2754 134.356C96.3013 134.371 96.3239 134.392 96.3418 134.416C96.3596 134.44 96.3725 134.468 96.3795 134.497C96.3866 134.526 96.3877 134.557 96.3828 134.587C96.3743 134.645 96.3432 134.698 96.2964 134.734C96.2495 134.769 96.1905 134.785 96.1319 134.778Z" fill="white"/>
<path opacity="0.4" d="M90.3542 136.704L88.9953 136.498C88.8258 136.472 88.6676 136.589 88.6419 136.759L88.436 138.117C88.4103 138.287 88.5269 138.445 88.6964 138.471L90.0553 138.677C90.2248 138.702 90.383 138.586 90.4087 138.416L90.6146 137.057C90.6403 136.888 90.5237 136.73 90.3542 136.704Z" fill="white"/>
<path d="M97.416 138.478L91.512 137.573C91.4587 137.557 91.413 137.522 91.3832 137.475C91.3535 137.428 91.3417 137.372 91.3501 137.317C91.3585 137.262 91.3864 137.212 91.4288 137.176C91.4712 137.139 91.5252 137.12 91.5809 137.12L97.4849 138.026C97.5148 138.03 97.5435 138.04 97.5694 138.055C97.5953 138.071 97.6178 138.091 97.6357 138.116C97.6536 138.14 97.6664 138.168 97.6735 138.197C97.6805 138.226 97.6817 138.257 97.6768 138.286C97.6726 138.316 97.6625 138.345 97.647 138.371C97.6315 138.397 97.6111 138.419 97.5868 138.437C97.5625 138.455 97.5349 138.468 97.5055 138.475C97.4762 138.482 97.4458 138.483 97.416 138.478Z" fill="white"/>
<path d="M95.448 139.187L91.3299 138.557C91.2766 138.541 91.2309 138.506 91.2012 138.459C91.1714 138.412 91.1597 138.356 91.168 138.301C91.1764 138.246 91.2044 138.196 91.2468 138.16C91.2892 138.124 91.3431 138.104 91.3988 138.105L95.5169 138.734C95.5702 138.75 95.6159 138.785 95.6456 138.832C95.6754 138.879 95.6871 138.935 95.6788 138.99C95.6704 139.045 95.6424 139.096 95.6 139.132C95.5576 139.168 95.5037 139.187 95.448 139.187Z" fill="white"/>
<path opacity="0.2" d="M89.3729 141.02L88.0161 140.812C87.8468 140.786 87.6887 140.903 87.6628 141.072L87.4551 142.429C87.4292 142.598 87.5454 142.756 87.7146 142.782L89.0715 142.99C89.2408 143.015 89.3989 142.899 89.4248 142.73L89.6324 141.373C89.6583 141.204 89.5422 141.046 89.3729 141.02Z" fill="white"/>
<path d="M96.742 142.887L90.838 141.981C90.7782 141.972 90.7247 141.939 90.6888 141.89C90.6529 141.842 90.6376 141.781 90.6461 141.721C90.6503 141.691 90.6604 141.662 90.6759 141.636C90.6913 141.61 90.7118 141.588 90.7361 141.57C90.7604 141.552 90.788 141.539 90.8173 141.532C90.8466 141.525 90.8771 141.524 90.9069 141.529L96.8355 142.434C96.8653 142.438 96.8941 142.448 96.92 142.464C96.9459 142.479 96.9684 142.5 96.9863 142.524C97.0042 142.548 97.017 142.576 97.024 142.605C97.0311 142.635 97.0322 142.665 97.0273 142.695C97.0236 142.727 97.0128 142.759 96.9958 142.787C96.9788 142.814 96.9559 142.838 96.9288 142.857C96.9017 142.875 96.871 142.887 96.8387 142.892C96.8065 142.897 96.7735 142.896 96.742 142.887Z" fill="white"/>
<path d="M94.7838 143.595L90.6658 142.965C90.6359 142.961 90.6072 142.951 90.5812 142.936C90.5553 142.92 90.5328 142.9 90.5149 142.875C90.497 142.851 90.4842 142.823 90.4772 142.794C90.4701 142.765 90.469 142.734 90.4739 142.705C90.4781 142.675 90.4882 142.646 90.5036 142.62C90.5191 142.594 90.5396 142.572 90.5639 142.554C90.5882 142.536 90.6158 142.523 90.6451 142.516C90.6744 142.509 90.7049 142.508 90.7346 142.513L94.8527 143.143C94.9124 143.152 94.966 143.185 95.0019 143.234C95.0377 143.282 95.0531 143.343 95.0445 143.403C95.0404 143.433 95.0302 143.462 95.0148 143.488C94.9993 143.514 94.9789 143.536 94.9546 143.554C94.9303 143.572 94.9026 143.585 94.8733 143.592C94.844 143.599 94.8136 143.6 94.7838 143.595Z" fill="white"/>
<path opacity="0.1" d="M88.6991 145.433L87.3422 145.225C87.173 145.199 87.0148 145.316 86.9889 145.485L86.7813 146.842C86.7554 147.011 86.8716 147.169 87.0408 147.195L88.3977 147.403C88.5669 147.429 88.7251 147.312 88.751 147.143L88.9586 145.786C88.9845 145.617 88.8683 145.459 88.6991 145.433Z" fill="white"/>
<path d="M96.0679 147.295L90.1639 146.39C90.1042 146.38 90.0506 146.347 90.0147 146.299C89.9788 146.25 89.9635 146.189 89.972 146.129C89.9762 146.099 89.9863 146.07 90.0018 146.044C90.0172 146.019 90.0377 145.996 90.062 145.978C90.0863 145.96 90.1139 145.947 90.1433 145.94C90.1726 145.933 90.203 145.932 90.2328 145.937L96.1614 146.842C96.1913 146.847 96.22 146.857 96.2459 146.872C96.2718 146.888 96.2943 146.908 96.3122 146.932C96.3301 146.957 96.3429 146.984 96.35 147.014C96.357 147.043 96.3581 147.073 96.3533 147.103C96.3495 147.136 96.3387 147.167 96.3217 147.195C96.3047 147.223 96.2819 147.247 96.2548 147.265C96.2276 147.283 96.1969 147.295 96.1646 147.3C96.1324 147.306 96.0994 147.304 96.0679 147.295Z" fill="white"/>
<path d="M94.1098 148.003L89.9868 147.374C89.9574 147.369 89.9292 147.358 89.9039 147.343C89.8785 147.327 89.8565 147.306 89.8391 147.282C89.8218 147.258 89.8094 147.23 89.8026 147.201C89.7959 147.172 89.7949 147.142 89.7999 147.113C89.8034 147.083 89.8131 147.054 89.8283 147.027C89.8436 147.001 89.8641 146.978 89.8885 146.96C89.913 146.942 89.9409 146.93 89.9705 146.923C90.0001 146.916 90.0308 146.915 90.0606 146.921L94.1787 147.551C94.2118 147.551 94.2445 147.559 94.2745 147.573C94.3045 147.587 94.3311 147.607 94.3526 147.632C94.374 147.657 94.3898 147.687 94.3989 147.719C94.408 147.751 94.4101 147.784 94.4051 147.817C94.4001 147.85 94.3881 147.881 94.37 147.909C94.3519 147.936 94.328 147.96 94.3 147.978C94.272 147.995 94.2405 148.007 94.2077 148.011C94.1749 148.016 94.1415 148.013 94.1098 148.003Z" fill="white"/>
<g opacity="0.1">
<path d="M186.055 135.979L111.684 124.599C111.386 124.554 111.082 124.628 110.839 124.806C110.595 124.984 110.432 125.251 110.385 125.549L110.07 127.595L110.011 127.989L109.588 130.749L109.529 131.143L109.106 133.898L109.047 134.287L108.624 137.047L108.565 137.435L108.142 140.196L108.083 140.589L107.659 143.344L107.6 143.738L107.177 146.493L107.118 146.887L106.695 149.642L106.636 150.036L106.213 152.791L106.154 153.184L105.844 155.231C105.821 155.379 105.827 155.529 105.862 155.675C105.898 155.82 105.961 155.957 106.049 156.077C106.138 156.198 106.249 156.3 106.376 156.378C106.504 156.455 106.646 156.507 106.794 156.53L181.149 167.91C181.447 167.954 181.75 167.878 181.991 167.699C182.233 167.52 182.394 167.253 182.439 166.955L182.753 164.909L182.812 164.515L183.236 161.76L183.295 161.366L183.718 158.606L183.777 158.218L184.2 155.462L184.259 155.069L184.682 152.314L184.741 151.92L185.164 149.16L185.223 148.771L185.646 146.011L185.705 145.622L186.129 142.867L186.188 142.474L186.611 139.713L186.67 139.32L186.985 137.273C187.03 136.979 186.958 136.678 186.784 136.436C186.61 136.194 186.348 136.03 186.055 135.979ZM182.07 166.896C182.039 167.09 181.934 167.263 181.776 167.379C181.619 167.495 181.422 167.545 181.228 167.516L106.877 156.136C106.683 156.106 106.508 156 106.391 155.842C106.274 155.683 106.224 155.485 106.252 155.29L106.567 153.243L182.379 164.85L182.07 166.896ZM182.443 164.436L106.626 152.835L107.049 150.075L182.862 161.681L182.443 164.436ZM182.935 161.288L107.108 149.706L107.532 146.946L183.344 158.547L182.935 161.288ZM183.427 158.139L107.61 146.533L108.033 143.777L183.846 155.379L183.427 158.139ZM183.919 154.99L108.102 143.384L108.525 140.629L184.338 152.235L183.919 154.99ZM184.411 151.841L108.594 140.235L109.017 137.475L184.83 149.081L184.411 151.841ZM184.903 148.687L109.086 137.086L109.509 134.331L185.322 145.932L184.903 148.687ZM185.395 145.539L109.519 133.957L109.942 131.202L185.755 142.803L185.395 145.539ZM185.887 142.395L110.001 130.808L110.424 128.048L186.237 139.654L185.887 142.395ZM110.557 127.635L110.872 125.593C110.887 125.497 110.92 125.405 110.97 125.322C111.02 125.238 111.086 125.166 111.164 125.108C111.242 125.051 111.331 125.009 111.425 124.986C111.52 124.963 111.618 124.958 111.714 124.973L185.976 136.373C186.169 136.403 186.342 136.509 186.457 136.666C186.573 136.824 186.621 137.021 186.591 137.214L186.276 139.261L110.557 127.635Z" fill="white"/>
</g>
<g opacity="0.1">
<path d="M193.996 83.0102L67.2958 63.6156C67.1274 63.5897 66.9556 63.5974 66.7903 63.6381C66.6249 63.6788 66.4691 63.7517 66.332 63.8527C66.1949 63.9538 66.079 64.0809 65.9911 64.2268C65.9032 64.3726 65.845 64.5344 65.8198 64.7029L58.7202 111.084C58.6693 111.423 58.7545 111.768 58.9573 112.045C59.16 112.321 59.4639 112.506 59.8026 112.56L186.507 131.954C186.846 132.005 187.192 131.92 187.468 131.717C187.745 131.515 187.93 131.211 187.983 130.872L195.083 84.4862C195.109 84.3179 195.101 84.1461 195.06 83.9807C195.02 83.8153 194.947 83.6596 194.846 83.5224C194.745 83.3853 194.618 83.2695 194.472 83.1816C194.326 83.0937 194.164 83.0354 193.996 83.0102ZM90.6756 89.6768L99.4726 91.02L98.7051 96.0187L89.8933 94.6706L90.6756 89.6768ZM89.5194 94.5968L80.688 93.2733L81.4555 88.2697L90.2673 89.6178L89.5194 94.5968ZM99.876 91.0888L108.693 92.4369L107.925 97.4406L99.1134 96.0925L99.876 91.0888ZM145.573 97.6816L136.761 96.3336L137.524 91.3299L146.341 92.678L145.573 97.6816ZM146.729 92.7616L155.546 94.1097L154.778 99.1134L145.967 97.7653L146.729 92.7616ZM118.287 93.9326L127.103 95.2807L126.336 100.284L117.509 98.892L118.287 93.9326ZM117.13 98.8526L108.319 97.5045L109.067 92.496L117.883 93.844L117.13 98.8526ZM127.492 95.32L136.284 96.6632L135.517 101.667L126.705 100.319L127.492 95.32ZM136.697 96.7272L145.514 98.0752L144.746 103.079L135.935 101.731L136.697 96.7272ZM136.368 96.2745L127.556 94.9264L128.319 89.9228L137.135 91.2758L136.368 96.2745ZM127.162 94.8674L118.351 93.5193L119.113 88.5157L127.92 89.8588L127.162 94.8674ZM117.942 93.48L109.131 92.127L109.893 87.084L118.71 88.432L117.942 93.48ZM108.732 92.0433L99.9203 90.6952L100.683 85.6916L109.5 87.0397L108.732 92.0433ZM107.846 97.8342L107.084 102.828L98.2721 101.48L99.0396 96.4762L107.846 97.8342ZM108.24 97.8932L117.052 99.2413L116.284 104.245L107.473 102.897L108.24 97.8932ZM117.445 99.3003L126.257 100.648L125.49 105.652L116.683 104.304L117.445 99.3003ZM126.651 100.707L135.462 102.06L134.695 107.059L125.883 105.711L126.651 100.707ZM135.856 102.119L144.668 103.468L143.9 108.471L135.088 107.123L135.856 102.119ZM145.061 103.527L153.873 104.875L153.106 109.878L144.294 108.53L145.061 103.527ZM145.12 103.138L145.883 98.1343L154.7 99.4824L153.932 104.486L145.12 103.138ZM155.088 99.5414L163.905 100.889L163.137 105.893L154.326 104.545L155.088 99.5414ZM164.294 100.949L173.11 102.302L172.343 107.3L163.531 105.952L164.294 100.949ZM164.358 100.56L165.12 95.5562L173.942 96.924L173.184 101.908L164.358 100.56ZM163.964 100.501L155.152 99.1478L155.915 94.1442L164.731 95.4972L163.964 100.501ZM155.964 93.7555L156.732 88.7518L165.543 90.0999L164.82 95.1036L155.964 93.7555ZM155.575 93.6964L146.764 92.3434L147.526 87.3447L156.338 88.6928L155.575 93.6964ZM146.37 92.2844L137.553 90.9363L138.321 85.9327L147.133 87.2808L146.37 92.2844ZM137.165 90.8773L128.363 89.544L129.13 84.5403L137.942 85.8884L137.165 90.8773ZM127.959 89.4652L119.162 88.1172L119.925 83.1135L128.737 84.4665L127.959 89.4652ZM118.769 88.068L109.957 86.7199L110.7 81.7064L119.556 83.0545L118.769 88.068ZM109.564 86.6608L100.747 85.3128L101.514 80.3091L110.326 81.672L109.564 86.6608ZM100.368 85.239L91.5563 83.8909L92.3189 78.8872L101.131 80.2402L100.368 85.239ZM100.309 85.6326L99.5415 90.6362L90.7297 89.2881L91.4923 84.2845L100.309 85.6326ZM90.3361 89.2291L81.5244 87.8761L82.287 82.8724L91.1037 84.2254L90.3361 89.2291ZM81.1308 87.817L72.324 86.469L73.0866 81.4653L81.9033 82.8134L81.1308 87.817ZM81.0718 88.2106L80.3043 93.2143L71.4925 91.8662L72.2601 86.8626L81.0718 88.2106ZM80.2452 93.6226L79.4777 98.6263L70.666 97.2782L71.4335 92.2746L80.2452 93.6226ZM80.6388 93.6866L89.4505 95.0347L88.683 100.038L79.8713 98.6853L80.6388 93.6866ZM89.8441 95.0937L98.646 96.432L97.8785 101.436L89.052 100.078L89.8441 95.0937ZM97.8195 101.844L97.0519 106.848L88.2402 105.495L89.0077 100.491L97.8195 101.844ZM98.2131 101.903L107.025 103.251L106.272 108.24L97.4554 106.892L98.2131 101.903ZM107.418 103.31L116.23 104.658L115.463 109.662L106.651 108.314L107.418 103.31ZM116.604 104.698L125.46 106.046L124.693 111.049L115.856 109.716L116.604 104.698ZM125.809 106.105L134.621 107.453L133.854 112.456L125.042 111.108L125.809 106.105ZM135.015 107.512L143.826 108.865L143.059 113.864L134.247 112.515L135.015 107.512ZM144.22 108.924L153.032 110.272L152.264 115.276L143.452 113.927L144.22 108.924ZM153.425 110.331L162.257 111.684L161.489 116.688L152.677 115.34L153.425 110.331ZM153.484 109.937L154.252 104.939L163.083 106.272L162.316 111.276L153.484 109.937ZM163.457 106.346L172.269 107.694L171.501 112.697L162.69 111.349L163.457 106.346ZM172.692 107.748L181.504 109.096L180.736 114.1L171.925 112.752L172.692 107.748ZM172.751 107.359L173.514 102.356L182.33 103.704L181.548 108.732L172.751 107.359ZM173.578 101.947L174.34 96.9436L183.157 98.2917L182.38 103.32L173.578 101.947ZM174.399 96.5353L175.152 91.571L183.964 92.9191L183.206 97.908L174.399 96.5353ZM174.011 96.4713L165.194 95.1232L165.961 90.1196L174.763 91.512L174.011 96.4713ZM166.021 89.7309L166.788 84.7666L175.59 86.1L174.827 91.1036L166.021 89.7309ZM165.632 89.667L156.815 88.3189L157.583 83.3152L166.394 84.6682L165.632 89.667ZM156.427 88.2598L147.6 86.9511L148.368 81.9475L157.179 83.2956L156.427 88.2598ZM147.221 86.8527L138.405 85.5046L139.172 80.501L147.984 81.8491L147.221 86.8527ZM138.016 85.4407L129.189 84.132L129.957 79.1283L138.769 80.4764L138.016 85.4407ZM128.811 84.0336L119.994 82.6855L120.752 77.736L129.563 79.084L128.811 84.0336ZM119.595 82.656L110.779 81.303L111.546 76.3042L120.358 77.6523L119.595 82.656ZM110.39 81.2439L101.573 79.8958L102.336 74.902L111.153 76.26L110.39 81.2439ZM101.185 79.8368L92.3681 78.4887L93.1356 73.4851L101.947 74.8332L101.185 79.8368ZM92.004 78.4346L83.148 77.0865L83.9155 72.0829L92.7273 73.4359L92.004 78.4346ZM91.9401 78.8282L91.1775 83.8318L82.3657 82.4838L83.1283 77.4801L91.9401 78.8282ZM81.9721 82.4247L73.1604 81.0717L73.923 76.073L82.7347 77.4211L81.9721 82.4247ZM72.7668 81.0127L63.9551 79.6646L64.7177 74.661L73.5343 76.009L72.7668 81.0127ZM72.7078 81.4063L71.9403 86.4099L63.1285 85.0618L63.8911 80.0582L72.7078 81.4063ZM71.8812 86.8183L71.1137 91.8219L62.302 90.4738L63.0695 85.4702L71.8812 86.8183ZM71.0547 92.2303L70.2871 97.2339L61.4754 95.8858L62.2429 90.8822L71.0547 92.2303ZM70.2281 97.6423L69.4655 102.641L60.6489 101.293L61.4164 96.2893L70.2281 97.6423ZM70.6217 97.7013L79.4334 99.0494L78.6708 104.053L69.8542 102.705L70.6217 97.7013ZM79.827 99.1084L88.6387 100.457L87.8712 105.46L79.0595 104.112L79.827 99.1084ZM87.8122 105.854L87.0496 110.857L78.228 109.46L78.9955 104.456L87.8122 105.854ZM88.2058 105.913L97.0175 107.261L96.2549 112.265L87.4383 110.916L88.2058 105.913ZM97.3865 107.256L106.198 108.609L105.436 113.608L96.619 112.26L97.3865 107.256ZM106.592 108.668L115.404 110.016L114.636 115.034L105.819 113.686L106.592 108.668ZM115.797 110.075L124.609 111.423L123.846 116.427L115.03 115.079L115.797 110.075ZM125.002 111.487L133.824 112.85L133.061 117.854L124.245 116.501L125.002 111.487ZM134.208 112.894L143.02 114.242L142.257 119.246L133.44 117.898L134.208 112.894ZM143.413 114.301L152.225 115.649L151.462 120.653L142.646 119.305L143.413 114.301ZM152.618 115.713L161.43 117.096L160.668 122.1L151.851 120.752L152.618 115.713ZM161.824 117.121L170.635 118.469L169.873 123.492L161.056 122.144L161.824 117.121ZM161.883 116.727L162.65 111.723L171.462 113.076L170.695 118.08L161.883 116.727ZM171.856 113.16L180.667 114.508L179.9 119.512L171.088 118.164L171.856 113.16ZM181.056 114.557L189.868 115.905L189.1 120.909L180.293 119.556L181.056 114.557ZM181.115 114.169L181.883 109.165L190.694 110.513L189.912 115.517L181.115 114.169ZM181.942 108.757L182.704 103.753L191.521 105.101L190.753 110.105L181.942 108.757ZM182.768 103.345L183.516 98.4L192.372 99.7234L191.609 104.727L182.768 103.345ZM183.59 97.9326L184.362 92.988L193.174 94.336L192.411 99.3397L183.59 97.9326ZM184.416 92.5206L185.189 87.576L194.001 88.924L193.238 93.9277L184.416 92.5206ZM184.028 92.4615L175.211 91.1134L175.979 86.1098L184.79 87.4579L184.028 92.4615ZM176.038 85.7162L176.805 80.7175L185.617 82.0656L184.849 87.0692L176.038 85.7162ZM175.644 85.6572L166.832 84.3091L167.6 79.3054L176.412 80.6535L175.644 85.6572ZM166.439 84.25L157.627 82.902L158.424 77.9623L167.236 79.3104L166.439 84.25ZM157.233 82.8429L148.422 81.4899L149.189 76.4912L158.001 77.8393L157.233 82.8429ZM148.028 81.4309L139.236 80.1468L140.004 75.1431L148.815 76.4912L148.028 81.4309ZM138.823 80.0238L130.016 78.72L130.783 73.7163L139.595 75.0644L138.823 80.0238ZM129.617 78.6117L120.806 77.2636L121.578 72.324L130.38 73.677L129.617 78.6117ZM120.417 77.2046L111.6 75.8565L112.368 70.8529L121.18 72.201L120.417 77.2046ZM111.212 75.7975L102.395 74.4445L103.163 69.4458L111.979 70.848L111.212 75.7975ZM102.001 74.3854L93.1897 73.0374L93.972 68.0977L102.784 69.4458L102.001 74.3854ZM92.8011 72.9783L83.9844 71.6302L84.7519 66.6266L93.5637 67.9747L92.8011 72.9783ZM83.5957 71.5712L74.784 70.2822L75.5515 65.2834L84.3633 66.6315L83.5957 71.5712ZM83.5318 71.9599L82.7692 76.9635L73.9525 75.6154L74.7201 70.6118L83.5318 71.9599ZM73.5639 75.5564L64.7521 74.292L65.5197 69.2883L74.3314 70.6364L73.5639 75.5564ZM60.5652 101.637L69.372 102.985L68.6094 107.989L59.7928 106.641L60.5652 101.637ZM69.7705 103.044L78.5823 104.393L77.8197 109.396L69.003 108.048L69.7705 103.044ZM77.736 109.79L76.9734 114.793L68.1617 113.445L68.9243 108.442L77.736 109.79ZM78.1296 109.849L86.961 111.192L86.1984 116.196L77.3867 114.848L78.1296 109.849ZM87.3349 111.261L96.1467 112.609L95.3841 117.613L86.592 116.26L87.3349 111.261ZM96.5599 112.668L105.372 114.016L104.609 119.02L95.7924 117.672L96.5599 112.668ZM105.78 114.075L114.592 115.428L113.829 120.427L105.003 119.064L105.78 114.075ZM114.985 115.487L123.797 116.835L123 121.839L114.188 120.491L114.985 115.487ZM124.191 116.894L133.002 118.242L132.24 123.246L123.423 121.898L124.191 116.894ZM133.396 118.301L142.188 119.654L141.425 124.653L132.609 123.305L133.396 118.301ZM142.601 119.713L151.413 121.061L150.65 126.065L141.834 124.717L142.601 119.713ZM151.807 121.121L160.618 122.469L159.856 127.472L151.044 126.124L151.807 121.121ZM161.012 122.533L169.824 123.881L169.046 128.904L160.23 127.551L161.012 122.533ZM170.217 123.94L179.029 125.288L178.266 130.291L169.45 128.943L170.217 123.94ZM170.276 123.546L171.044 118.542L179.856 119.895L179.088 124.894L170.276 123.546ZM180.249 119.954L189.061 121.303L188.298 126.306L179.467 124.968L180.249 119.954ZM194.704 84.4272L194.06 88.56L185.248 87.2119L186.015 82.2082L193.937 83.4186C194.169 83.4551 194.378 83.581 194.518 83.7695C194.659 83.958 194.72 84.194 194.689 84.4272H194.704ZM67.2761 64.0092L75.1973 65.2195L74.4347 70.2231L65.5787 68.88L66.2085 64.7668C66.2259 64.6494 66.2663 64.5366 66.3275 64.4349C66.3887 64.3331 66.4694 64.2445 66.565 64.1741C66.6606 64.1037 66.7691 64.0529 66.8844 64.0245C66.9997 63.9962 67.1194 63.991 67.2367 64.0092H67.2761ZM59.1483 111.143L59.778 107.03L68.5897 108.383L67.8271 113.381L59.8617 112.176C59.625 112.138 59.4129 112.009 59.2718 111.815C59.1307 111.621 59.0721 111.38 59.1089 111.143H59.1483ZM186.566 131.566L178.64 130.35L179.408 125.347L188.22 126.695L187.59 130.813C187.553 131.048 187.425 131.259 187.234 131.401C187.042 131.542 186.802 131.601 186.566 131.566Z" fill="white"/>
</g>
<path opacity="0.5" d="M189.814 116.299L187.59 130.803C187.573 130.915 187.534 131.023 187.476 131.12C187.417 131.218 187.34 131.302 187.248 131.369C187.157 131.437 187.053 131.485 186.943 131.512C186.832 131.539 186.718 131.544 186.606 131.526L59.8321 112.122C59.7203 112.104 59.6131 112.065 59.5164 112.006C59.4198 111.947 59.3357 111.87 59.269 111.779C59.2023 111.687 59.1543 111.584 59.1276 111.474C59.101 111.364 59.0963 111.25 59.1138 111.138L59.409 109.199C59.409 109.199 65.3671 104.397 69.0965 104.968C73.4999 105.642 74.292 108.142 78.228 108.732C82.164 109.322 86.4739 100.22 90.036 100.762C91.9597 101.057 92.4517 102.538 93.3915 103.896C93.7947 104.52 94.3295 105.049 94.9584 105.445C95.5872 105.841 96.295 106.094 97.0323 106.188L97.1799 106.213C102.001 106.951 108.525 81.3571 115.158 82.3706C118.11 82.8184 119.276 88.4665 120.156 94.7051C121.273 102.577 121.903 111.433 124.978 111.881C130.478 112.722 132.358 101.549 137.465 102.351C140.678 102.843 141.849 108.796 144.555 113.514C146.154 116.304 148.294 118.665 151.718 119.187C154.832 119.679 156.914 118.941 158.532 117.804C161.706 115.586 163.123 111.797 167.088 112.392C169.44 112.752 170.296 114.562 171.172 116.269C171.934 117.745 172.712 119.172 174.522 119.448C176.653 119.777 178.458 116.727 180.392 114.036C181.971 111.812 183.619 109.814 185.577 110.1C187.536 110.385 188.766 112.811 189.361 114.528C189.547 115.109 189.698 115.7 189.814 116.299Z" fill="white"/>
<path opacity="0.5" d="M192.864 96.3682L187.59 130.808C187.573 130.92 187.534 131.028 187.476 131.125C187.417 131.223 187.34 131.307 187.248 131.374C187.157 131.442 187.053 131.49 186.943 131.517C186.832 131.544 186.718 131.549 186.606 131.531L59.8321 112.122C59.7203 112.105 59.6131 112.065 59.5164 112.007C59.4198 111.948 59.3357 111.87 59.269 111.779C59.2023 111.688 59.1543 111.584 59.1276 111.474C59.101 111.364 59.0963 111.25 59.1138 111.138L59.409 109.2C64.6734 110.006 67.4827 106.066 71.0153 106.607C74.5479 107.148 76.3781 109.613 79.6843 110.12C82.9906 110.626 88.0926 102.887 91.7088 103.443C92.2759 103.526 92.8299 103.681 93.357 103.906C94.7494 104.486 95.7088 105.421 96.9978 106.198C98.0123 106.813 99.14 107.218 100.314 107.389C104.55 108.034 113.027 92.7028 117.942 93.4556C118.793 93.6093 119.564 94.0547 120.122 94.7151C123.025 97.8786 123.772 105.79 127.866 106.415C132.83 107.177 135.487 99.1037 140.304 99.8368C145.12 100.57 146.537 108.875 152.112 109.726C157.686 110.577 163.733 95.3448 169.524 96.2304C175.314 97.116 176.968 104.944 182.001 105.711C187.526 106.558 192.864 96.3682 192.864 96.3682Z" fill="white"/>
<path d="M190.404 112.378L187.58 130.803C187.563 130.915 187.524 131.023 187.466 131.12C187.407 131.218 187.33 131.302 187.238 131.37C187.147 131.437 187.043 131.485 186.933 131.512C186.823 131.539 186.708 131.544 186.596 131.526L59.8321 112.122C59.7203 112.105 59.6131 112.065 59.5164 112.007C59.4198 111.948 59.3357 111.87 59.269 111.779C59.2023 111.688 59.1543 111.584 59.1276 111.474C59.101 111.364 59.0963 111.25 59.1138 111.138L59.2565 110.188C59.4385 110.016 62.425 107.197 65.4557 107.66C68.5897 108.152 68.5996 110.946 72.9685 111.596C77.3375 112.245 78.6118 108.806 84.811 109.756C91.0102 110.705 90.9905 115.04 97.4013 116.024C103.812 117.008 105.136 111.807 109.701 112.506C114.267 113.204 113.947 115.856 116.535 116.25C119.123 116.643 120.629 112.589 123.812 113.077C126.995 113.564 129.43 120.235 133.017 120.786C135.536 121.17 139.989 116.181 144.535 113.505C146.454 112.373 148.397 111.655 150.208 111.935C153.952 112.506 156.136 115.428 158.513 117.795C159.989 119.271 161.578 120.55 163.654 120.87C166.606 121.322 168.874 118.636 171.152 116.275C173.002 114.351 174.867 112.639 177.135 112.983C178.269 113.127 179.367 113.481 180.372 114.026C182.34 115.128 182.857 116.614 185.209 116.978C188.038 117.426 190.404 112.378 190.404 112.378Z" fill="white"/>
<path d="M74.8086 62.1199L67.9993 61.0769C67.8419 61.0529 67.6908 60.9981 67.5546 60.9155C67.4184 60.833 67.2998 60.7244 67.2056 60.596C67.1115 60.4676 67.0436 60.3218 67.0059 60.1671C66.9682 60.0124 66.9613 59.8517 66.9858 59.6944C67.0344 59.3761 67.2072 59.0901 67.4664 58.8992C67.7256 58.7082 68.05 58.6279 68.3683 58.6759L75.1727 59.719C75.4904 59.7687 75.7756 59.9419 75.9663 60.2008C76.157 60.4597 76.2378 60.7834 76.1911 61.1015C76.1414 61.4192 75.9682 61.7044 75.7094 61.8951C75.4505 62.0858 75.1268 62.1666 74.8086 62.1199Z" fill="white"/>
<path d="M78.5675 60.7473H78.6757L85.485 61.7904C85.5819 61.8027 85.6753 61.8344 85.7598 61.8834C85.8443 61.9324 85.9182 61.9978 85.977 62.0757C86.0886 62.2308 86.1362 62.4228 86.1099 62.612C86.0821 62.782 85.9954 62.9368 85.865 63.0492C85.7345 63.1617 85.5687 63.2246 85.3965 63.227H85.2833L78.4789 62.184C78.3816 62.1733 78.2875 62.1424 78.2028 62.0932C78.1181 62.0441 78.0446 61.9778 77.9869 61.8986C77.9074 61.7915 77.8593 61.6643 77.848 61.5314C77.8367 61.3985 77.8627 61.265 77.923 61.146C77.9832 61.027 78.0755 60.9271 78.1893 60.8576C78.3031 60.788 78.4341 60.7516 78.5675 60.7522M78.5675 60.2602C78.257 60.2522 77.9553 60.3639 77.7248 60.5722C77.4944 60.7804 77.3528 61.0693 77.3294 61.379C77.306 61.6888 77.4026 61.9956 77.5992 62.2361C77.7958 62.4766 78.0773 62.6323 78.3855 62.671L85.1898 63.7141C85.252 63.719 85.3146 63.719 85.3768 63.7141C85.6821 63.7124 85.9756 63.5958 86.1989 63.3876C86.4222 63.1793 86.559 62.8947 86.5819 62.5902C86.6049 62.2857 86.5123 61.9837 86.3228 61.7444C86.1332 61.505 85.8605 61.3458 85.5588 61.2984L78.7495 60.2602C78.689 60.2554 78.6281 60.2554 78.5675 60.2602Z" fill="white"/>
<path d="M88.9487 62.3364H89.052L95.8564 63.3795C96.0346 63.4091 96.1953 63.5043 96.3068 63.6464C96.4184 63.7885 96.4727 63.9672 96.4591 64.1473C96.4455 64.3274 96.365 64.496 96.2335 64.6197C96.1019 64.7435 95.9288 64.8136 95.7481 64.8161H95.6399L88.8306 63.7731C88.7337 63.761 88.6401 63.7295 88.5556 63.6804C88.4711 63.6314 88.3973 63.5659 88.3386 63.4877C88.2828 63.4113 88.2427 63.3245 88.2208 63.2324C88.1988 63.1404 88.1954 63.0448 88.2107 62.9514C88.2375 62.7824 88.3234 62.6282 88.4531 62.5165C88.5828 62.4048 88.748 62.3427 88.9192 62.3414M88.9192 61.8494C88.6087 61.8414 88.307 61.953 88.0765 62.1613C87.8461 62.3695 87.7045 62.6584 87.6811 62.9681C87.6577 63.2779 87.7543 63.5847 87.9509 63.8252C88.1474 64.0657 88.429 64.2214 88.7371 64.2602L95.5464 65.3032C95.607 65.3081 95.6679 65.3081 95.7285 65.3032C96.0338 65.3015 96.3273 65.185 96.5506 64.9767C96.7739 64.7685 96.9106 64.4838 96.9336 64.1793C96.9565 63.8748 96.864 63.5729 96.6744 63.3335C96.4849 63.0941 96.2121 62.9349 95.9105 62.8875L89.1061 61.8494C89.0439 61.8445 88.9814 61.8445 88.9192 61.8494Z" fill="white"/>
<path d="M194.96 79.4137L195.044 78.8823L194.65 78.7889C194.641 78.701 194.619 78.6148 194.586 78.533L194.891 78.2673L194.576 77.8344L194.227 78.046C194.159 77.9915 194.084 77.9453 194.005 77.9082L194.03 77.5047L193.499 77.426L193.405 77.8196C193.319 77.8288 193.235 77.8486 193.154 77.8787L192.884 77.5736L192.451 77.8934L192.662 78.2378C192.608 78.3067 192.563 78.3829 192.529 78.4641L192.126 78.4346L192.042 78.966L192.436 79.0644C192.445 79.1507 192.467 79.2352 192.5 79.3153L192.195 79.581L192.515 80.014L192.859 79.8024C192.928 79.8557 193.002 79.9019 193.08 79.9401L193.056 80.3436L193.587 80.4223L193.681 80.0336C193.768 80.02 193.853 79.9986 193.937 79.9697L194.202 80.2747L194.635 79.9549L194.424 79.6105C194.477 79.5426 194.522 79.4682 194.556 79.3891L194.96 79.4137ZM193.449 79.5416C193.327 79.5226 193.214 79.4679 193.123 79.3843C193.032 79.3006 192.967 79.1919 192.938 79.0718C192.909 78.9518 192.916 78.8257 192.959 78.7097C193.001 78.5936 193.077 78.4927 193.177 78.4198C193.276 78.3468 193.396 78.3051 193.519 78.2999C193.643 78.2947 193.765 78.3262 193.87 78.3905C193.976 78.4547 194.06 78.5488 194.112 78.6609C194.164 78.773 194.182 78.898 194.163 79.0201C194.15 79.1012 194.122 79.179 194.079 79.2491C194.037 79.3192 193.98 79.3802 193.914 79.4286C193.848 79.4771 193.773 79.512 193.693 79.5313C193.613 79.5507 193.531 79.5542 193.449 79.5416Z" fill="white"/>
<path opacity="0.2" d="M118.437 137.96L116.988 137.739L115.396 148.146L116.845 148.368L118.437 137.96Z" fill="white"/>
<path d="M118.198 139.524L116.749 139.302L116 144.2L117.449 144.422L118.198 139.524Z" fill="white"/>
<path opacity="0.2" d="M114.783 140.083L113.334 139.862L111.741 150.269L113.19 150.491L114.783 140.083Z" fill="white"/>
<path d="M112.901 142.603L112.151 147.505L113.6 147.727L114.35 142.825L112.901 142.603Z" fill="white"/>
<path opacity="0.2" d="M112.165 137.655L110.713 137.436L109.134 147.859L110.585 148.079L112.165 137.655Z" fill="white"/>
<path d="M111.224 141.506L109.774 141.285L109.024 146.187L110.473 146.409L111.224 141.506Z" fill="white"/>
<path opacity="0.2" d="M121.383 140.511L119.933 140.29L118.341 150.697L119.79 150.919L121.383 140.511Z" fill="white"/>
<path d="M121.149 142.075L119.699 141.853L118.949 146.756L120.398 146.977L121.149 142.075Z" fill="white"/>
<path opacity="0.2" d="M125.11 137.932L123.66 137.71L122.068 148.118L123.517 148.339L125.11 137.932Z" fill="white"/>
<path d="M124.93 139.106L123.48 138.884L122.73 143.786L124.179 144.008L124.93 139.106Z" fill="white"/>
<path opacity="0.2" d="M127.961 141.116L126.511 140.894L124.919 151.301L126.368 151.523L127.961 141.116Z" fill="white"/>
<path d="M127.898 141.509L126.448 141.288L125.698 146.19L127.147 146.412L127.898 141.509Z" fill="white"/>
<path opacity="0.2" d="M132.047 136.172L130.597 135.95L129.005 146.358L130.454 146.58L132.047 136.172Z" fill="white"/>
<path d="M131.992 136.567L130.543 136.345L129.794 141.242L131.243 141.464L131.992 136.567Z" fill="white"/>
<path opacity="0.2" d="M134.304 143.226L132.855 143.005L131.262 153.412L132.711 153.634L134.304 143.226Z" fill="white"/>
<path d="M134.065 144.795L132.616 144.573L131.866 149.476L133.315 149.698L134.065 144.795Z" fill="white"/>
<path opacity="0.2" d="M137.47 144.333L136.021 144.111L134.428 154.519L135.878 154.74L137.47 144.333Z" fill="white"/>
<path d="M136.87 148.254L135.421 148.033L134.67 152.935L136.12 153.157L136.87 148.254Z" fill="white"/>
<path opacity="0.2" d="M141.734 138.291L140.285 138.069L138.692 148.476L140.142 148.698L141.734 138.291Z" fill="white"/>
<path d="M141.07 142.608L139.621 142.386L138.871 147.284L140.32 147.506L141.07 142.608Z" fill="white"/>
<path opacity="0.2" d="M144.287 143.372L142.838 143.15L141.245 153.558L142.695 153.78L144.287 143.372Z" fill="white"/>
<path d="M143.984 145.336L142.535 145.114L141.786 150.011L143.235 150.233L143.984 145.336Z" fill="white"/>
<path opacity="0.2" d="M147.961 141.154L146.511 140.932L144.919 151.34L146.368 151.562L147.961 141.154Z" fill="white"/>
<path d="M148.123 142.752L146.672 142.532L145.928 147.442L147.379 147.661L148.123 142.752Z" fill="white"/>
<path opacity="0.2" d="M151.937 136.977L150.487 136.755L148.895 147.163L150.344 147.384L151.937 136.977Z" fill="white"/>
<path d="M151.932 136.981L150.482 136.759L149.732 141.661L151.181 141.883L151.932 136.981Z" fill="white"/>
<path opacity="0.2" d="M154.188 144.069L152.739 143.847L151.146 154.255L152.596 154.477L154.188 144.069Z" fill="white"/>
<path d="M154.003 145.248L152.554 145.026L151.804 149.928L153.253 150.15L154.003 145.248Z" fill="white"/>
<path opacity="0.2" d="M156.742 149.145L155.293 148.924L153.7 159.331L155.149 159.553L156.742 149.145Z" fill="white"/>
<path d="M156.562 150.319L155.112 150.098L154.362 155L155.812 155.222L156.562 150.319Z" fill="white"/>
<path opacity="0.2" d="M160.842 144.136L159.393 143.914L157.8 154.321L159.25 154.543L160.842 144.136Z" fill="white"/>
<path d="M160.247 148.048L158.797 147.827L158.047 152.729L159.497 152.951L160.247 148.048Z" fill="white"/>
<path opacity="0.2" d="M165.004 138.751L163.555 138.529L161.962 148.937L163.411 149.158L165.004 138.751Z" fill="white"/>
<path d="M164.281 143.453L162.832 143.231L162.082 148.134L163.531 148.355L164.281 143.453Z" fill="white"/>
<path opacity="0.2" d="M167.362 145.13L165.913 144.908L164.32 155.316L165.77 155.537L167.362 145.13Z" fill="white"/>
<path d="M167.564 146.704L166.113 146.484L165.369 151.394L166.82 151.614L167.564 146.704Z" fill="white"/>
<path opacity="0.2" d="M170.35 147.362L168.901 147.14L167.308 157.548L168.758 157.77L170.35 147.362Z" fill="white"/>
<path d="M169.696 151.675L168.247 151.453L167.496 156.355L168.946 156.577L169.696 151.675Z" fill="white"/>
<path opacity="0.2" d="M174.108 144.611L172.659 144.389L171.066 154.797L172.516 155.019L174.108 144.611Z" fill="white"/>
<path d="M174.108 144.616L172.659 144.394L171.908 149.296L173.358 149.518L174.108 144.616Z" fill="white"/>
<path opacity="0.2" d="M176.87 148.357L175.421 148.135L173.828 158.542L175.278 158.764L176.87 148.357Z" fill="white"/>
<path d="M176.748 149.14L175.299 148.919L174.549 153.821L175.998 154.043L176.748 149.14Z" fill="white"/>
<path opacity="0.2" d="M180.347 147.451L178.898 147.229L177.305 157.637L178.755 157.858L180.347 147.451Z" fill="white"/>
<path d="M180.284 147.845L178.835 147.623L178.085 152.525L179.534 152.747L180.284 147.845Z" fill="white"/>
<path opacity="0.2" d="M183.395 149.288L181.946 149.067L180.353 159.474L181.802 159.696L183.395 149.288Z" fill="white"/>
<path d="M183.092 154.383L181.64 154.163L180.896 159.073L182.348 159.293L183.092 154.383Z" fill="white"/>
<path d="M130.774 163.743L103.48 159.567L103.351 160.413L130.644 164.59L130.774 163.743Z" fill="#999999" stroke="#263238" stroke-linecap="round" stroke-linejoin="round"/>
<path opacity="0.2" d="M148.122 104.245C148.122 104.245 144.422 106.297 146.778 111.856C149.135 117.416 163.467 126.557 163.177 131.202C163.177 131.202 148.461 122.031 144.372 127.325C144.372 127.325 155.487 138.104 156.643 146.212C157.799 154.321 161.563 157.917 170.262 162.542C178.96 167.167 197.873 191.57 197.873 191.57L195.044 150.586L167.492 119.492L153.873 111.728L148.122 104.245Z" fill="black" fill-opacity="0.7"/>
<path d="M222.876 177.317L198.62 193.248H198.581C198.559 193.246 198.537 193.239 198.519 193.226C198.5 193.213 198.486 193.195 198.478 193.174C198.369 192.888 187.654 164.249 185.071 162.015C183.616 160.701 182.557 159.008 182.01 157.125C182.01 157.125 182.01 157.1 182.01 157.086C181.917 156.771 181.873 156.564 181.863 156.51C180.436 153.608 178.247 151.149 175.531 149.396C173.715 148.295 171.797 147.373 169.804 146.64C166.754 145.406 163.615 144.131 161.396 141.775C161.016 141.372 160.668 140.939 160.358 140.481C156.83 135.315 151.383 129.612 149.568 128.441C147.753 127.27 144.412 127.428 144.382 127.428C144.355 127.431 144.328 127.423 144.306 127.407C144.284 127.39 144.269 127.366 144.264 127.339C144.205 126.889 144.246 126.431 144.384 125.998C144.521 125.566 144.753 125.168 145.061 124.835C145.525 124.293 146.101 123.858 146.749 123.561C147.397 123.264 148.102 123.111 148.815 123.113C151.62 123.113 155.482 124.589 157.43 126.444C159.378 128.299 163.885 129.662 164.402 129.819C165.135 129.386 166.862 130.311 167.496 130.709C166.744 128.028 167.049 126.995 167.167 126.734C165.553 124.643 157.15 118.454 152.687 115.349C151.457 114.488 150.532 113.873 150.129 113.632C148.048 112.407 146.326 108.574 146.66 105.898C146.677 105.534 146.773 105.179 146.943 104.858C147.114 104.536 147.353 104.256 147.644 104.038C148.063 103.775 148.553 103.65 149.046 103.679C149.247 103.684 149.446 103.709 149.642 103.753C149.662 103.761 149.68 103.773 149.696 103.787C149.735 103.841 153.912 108.796 155.359 109.573C156.067 109.952 159.836 111.856 163.418 113.627L165.032 114.424C165.022 112.864 165.104 111.305 165.278 109.755C165.415 109.145 166.389 108.279 167.496 107.787C168.013 107.551 168.972 107.212 169.676 107.585C169.947 107.738 170.586 108.132 171.472 108.683L172.948 109.598C173.262 109.115 173.647 108.682 174.089 108.314C174.458 108.097 176.5 107.718 177.228 107.974C177.863 108.205 179.9 109.499 182.055 110.867L182.985 111.453C183.098 111.241 183.363 110.798 183.614 110.7C184.678 110.307 185.836 110.245 186.935 110.523C187.664 110.788 190.163 112.633 192.584 114.419C193.912 115.403 195.186 116.343 196.028 116.909C196.056 116.916 196.08 116.934 196.096 116.958C196.338 117.12 196.539 117.248 196.692 117.337C198.473 118.355 202.852 141.322 202.896 141.553C203.181 143.093 204.224 144.682 205.326 146.365C206.573 148.117 207.594 150.019 208.362 152.028C209.764 156.126 212.957 162.124 217.636 169.454C218.059 170.11 218.496 170.785 218.945 171.477C220.209 173.39 221.557 175.388 222.876 177.317Z" fill="white"/>
<path opacity="0.4" d="M168.825 133.332C167.885 134.075 161.066 133.371 160.23 135.664C159.738 137.017 160.102 139.064 161.381 141.765C161.001 141.362 160.654 140.929 160.343 140.471C156.815 135.305 151.369 129.602 149.553 128.432C147.738 127.261 144.412 127.428 144.382 127.428C144.355 127.431 144.328 127.423 144.306 127.407C144.284 127.39 144.269 127.366 144.264 127.339C144.205 126.889 144.246 126.431 144.384 125.998C144.521 125.566 144.753 125.168 145.061 124.835C145.525 124.293 146.101 123.858 146.749 123.561C147.397 123.264 148.102 123.111 148.815 123.113C151.62 123.113 155.482 124.589 157.43 126.444C159.378 128.299 163.885 129.662 164.402 129.819C165.135 129.386 166.862 130.311 167.496 130.709C166.744 128.028 167.049 126.995 167.167 126.734C165.553 124.643 157.15 118.454 152.687 115.349C151.457 114.488 150.532 113.873 150.129 113.632C148.048 112.407 146.326 108.574 146.66 105.898C146.677 105.534 146.773 105.179 146.943 104.858C147.114 104.536 147.353 104.256 147.644 104.038C148.063 103.775 148.553 103.65 149.046 103.679C148.708 103.811 148.395 104.001 148.122 104.24C146.754 105.406 150.016 111.561 151.851 113.263C153.77 115.039 162.399 119.448 165.499 122.075C167.201 123.516 169.435 125.701 169.435 125.701C168.072 128.023 169.74 132.604 168.825 133.332Z" fill="white"/>
<path d="M200.51 95.7087C200.51 95.6644 200.51 95.6545 200.51 95.6742C200.513 95.6792 200.515 95.6853 200.515 95.6914C200.515 95.6976 200.513 95.7036 200.51 95.7087Z" fill="white"/>
<path opacity="0.4" d="M217.636 169.43C213.981 165.952 208.539 160.535 207.521 158.158C205.966 154.517 204.928 151.157 202.994 148.707C201.061 146.257 197.139 120.146 196.013 120.073C194.886 119.999 197.43 130.405 197.563 130.936C197.454 130.606 196.047 126.173 194.699 121.121C193.302 115.871 191.89 115.586 191.89 115.586C190.015 115.959 190.005 117.293 189.046 117.273C188.087 117.253 184.795 114.916 184.795 114.916C181.602 115.379 169.622 107.664 169.622 107.664C166.896 108.033 166.257 110.415 168.584 112.648C170.911 114.882 174.389 117.588 174.389 117.588C172.146 118.68 163.91 114.06 163.91 114.06L163.418 113.618L165.032 114.415C165.022 112.855 165.104 111.296 165.278 109.745C165.415 109.135 166.389 108.269 167.496 107.777C168.013 107.541 168.972 107.202 169.676 107.576C169.947 107.728 170.586 108.122 171.472 108.673L172.948 109.588C173.262 109.105 173.647 108.672 174.089 108.304C174.458 108.087 176.5 107.709 177.228 107.964C177.863 108.196 179.9 109.49 182.055 110.857L182.985 111.443C183.098 111.231 183.363 110.789 183.614 110.69C184.678 110.297 185.836 110.236 186.935 110.513C187.664 110.779 190.163 112.624 192.584 114.41C193.912 115.394 195.186 116.333 196.028 116.899C196.056 116.906 196.08 116.924 196.096 116.948C196.338 117.111 196.539 117.239 196.692 117.327C198.473 118.346 202.852 141.312 202.896 141.543C203.181 143.083 204.224 144.673 205.326 146.355C206.574 148.11 207.594 150.016 208.362 152.028C209.764 156.102 212.957 162.099 217.636 169.43Z" fill="white"/>
<path d="M198.581 193.149C198.581 193.149 187.757 164.22 185.145 161.947C183.536 160.493 182.422 158.573 181.956 156.456C180.519 153.526 178.307 151.045 175.56 149.283C170.891 146.208 163.831 145.411 160.417 140.427C157.002 135.443 151.531 129.603 149.593 128.353C147.654 127.103 144.353 127.33 144.353 127.33C144.013 125.391 146.173 123.231 148.781 123.231C151.388 123.231 155.27 124.594 157.322 126.533C159.374 128.471 164.382 129.947 164.382 129.947C165.179 129.376 167.644 130.961 167.644 130.961C166.66 127.63 167.255 126.729 167.255 126.729C165.322 124.112 152.082 114.69 150.149 113.549C148.215 112.407 146.39 108.653 146.729 105.918C146.738 105.578 146.825 105.245 146.983 104.944C147.142 104.644 147.368 104.384 147.645 104.186C147.921 103.988 148.239 103.856 148.574 103.801C148.91 103.747 149.253 103.771 149.578 103.871C149.578 103.871 153.789 108.88 155.27 109.677C156.751 110.474 168.367 116.284 170.075 116.963C170.549 117.165 171.064 117.25 171.578 117.211C172.092 117.171 172.589 117.009 173.027 116.737" stroke="#263238" stroke-linecap="round" stroke-linejoin="round"/>
<path d="M165.14 114.601C165.14 114.601 165.14 110.813 165.386 109.785C165.632 108.756 168.372 106.985 169.622 107.664C170.872 108.343 180.102 114.414 182.507 114.685" stroke="#263238" stroke-linecap="round" stroke-linejoin="round"/>
<path d="M172.982 109.716C173.309 109.217 173.703 108.765 174.153 108.373C174.493 108.171 176.515 107.797 177.199 108.043C178.567 108.535 186.625 114.095 187.988 114.439" stroke="#263238" stroke-linecap="round" stroke-linejoin="round"/>
<path d="M183.024 111.595C183.024 111.595 183.373 110.897 183.654 110.783C184.692 110.398 185.823 110.338 186.896 110.611C188.151 111.069 195.039 116.515 196.633 117.416C198.227 118.316 202.217 138.483 202.783 141.558C203.349 144.633 206.773 147.708 208.249 152.038C209.725 156.367 213.262 162.97 218.842 171.511C219.826 172.987 220.849 174.547 221.877 176.052" stroke="#263238" stroke-linecap="round" stroke-linejoin="round"/>
<path d="M172.161 122.626C172.161 122.626 172.653 120.319 174.04 119.295C175.428 118.272 177.287 119.895 178.65 120.063" stroke="#263238" stroke-linecap="round" stroke-linejoin="round"/>
<path d="M181.469 118.956C181.469 118.956 182.237 116.304 183.605 115.708C184.972 115.113 187.078 116.904 187.988 116.988" stroke="#263238" stroke-linecap="round" stroke-linejoin="round"/>
<path d="M190.438 116.56C190.438 116.56 191.462 115.576 191.89 115.576C192.318 115.576 194.109 117.45 194.497 117.578C194.886 117.706 195.349 117.002 196.013 116.993" stroke="#263238" stroke-linecap="round" stroke-linejoin="round"/>
<path d="M187.324 114.144C188.072 114.088 188.818 114.273 189.454 114.67" stroke="#263238" stroke-linecap="round" stroke-linejoin="round"/>
<path d="M167.28 126.724C167.28 126.724 166.601 124.973 166.941 124.077" stroke="#263238" stroke-linecap="round" stroke-linejoin="round"/>
<path d="M168.613 113.873C168.613 113.873 169.425 114.823 169.469 115.585C169.514 116.348 171.437 117.273 171.437 117.273" stroke="#263238" stroke-linecap="round" stroke-linejoin="round"/>
<path d="M181.637 114.454C181.637 114.454 182.753 114.055 183.349 114.454" stroke="#263238" stroke-linecap="round" stroke-linejoin="round"/>
<path d="M167.28 129.032C167.242 128.469 167.343 127.905 167.574 127.391C167.804 126.876 168.158 126.426 168.603 126.08" stroke="#263238" stroke-linecap="round" stroke-linejoin="round"/>
<path d="M167.679 130.956C167.679 130.956 166.409 132.048 166.409 132.732" stroke="#263238" stroke-linecap="round" stroke-linejoin="round"/>
<path d="M161.834 129.032C163.339 129.593 164.589 131.935 165.499 132.333" stroke="#263238" stroke-linecap="round" stroke-linejoin="round"/>
<path d="M180.072 121.573C180.982 122.882 183.024 132.397 185.081 135.408" stroke="#263238" stroke-linecap="round" stroke-linejoin="round"/>
<path d="M187.708 118.887C187.88 119 189.076 122.7 189.076 122.7" stroke="#263238" stroke-linecap="round" stroke-linejoin="round"/>
<path d="M202.994 142.331C203.294 144.224 203.84 146.07 204.618 147.821" stroke="#263238" stroke-linecap="round" stroke-linejoin="round"/>
<path d="M182.109 157.1C181.956 156.476 181.297 152.377 180.485 151.01" stroke="#263238" stroke-linecap="round" stroke-linejoin="round"/>
<path opacity="0.2" d="M44.2259 221.051C44.2259 221.051 60.2356 199.526 72.3093 195.585C84.3829 191.644 84.9783 186.296 84.4863 176.318C83.9943 166.34 84.3583 156.284 81.0423 155.083C77.7262 153.883 85.0176 140.855 81.5343 135.694L58.6907 171.58L44.2259 221.051Z" fill="black" fill-opacity="0.7"/>
<path d="M40.344 227.048L40.1029 226.969L40.4473 227.161L40.344 227.048ZM79.2612 161.017C77.2932 160.097 73.3867 155.782 72.8996 155.241C75.3596 151.098 77.7901 147.103 78.6315 146.144C80.3781 144.176 82.5084 138.434 81.6425 135.659C80.8504 133.111 78.2575 133.519 77.9033 133.588H77.8639C77.8506 133.59 77.8379 133.595 77.8268 133.603C77.8157 133.61 77.8066 133.62 77.8 133.632C77.7458 133.726 72.4667 142.626 70.8283 144.756C70.0461 145.77 68.2453 148.077 66.4003 150.39L65.8542 150.306C64.7099 150.128 63.5425 150.161 62.4102 150.404L62.297 150.444C61.7114 150.696 61.1471 150.996 60.6095 151.339L60.2208 151.177C59.4434 150.852 57.8346 150.227 57.072 150.193C56.1421 150.144 52.8654 151.669 50.9072 152.899C49.5573 152.489 48.1504 152.298 46.74 152.333C45.2394 152.397 42.1792 153.642 39.7192 154.64C38.6269 155.083 37.6823 155.467 37.1312 155.624L36.6392 155.772C35.1632 156.21 34.3662 156.456 33.3428 158.503C32.2801 160.628 31.1338 168.554 30.5827 172.362L30.5089 172.879C30.2974 174.355 30.3318 176.943 30.3662 179.703C30.4204 183.541 30.4745 187.506 29.9038 189.051C29.1328 190.997 28.1142 192.836 26.873 194.522C26.7107 194.753 26.5631 194.97 26.4253 195.176C25.6572 196.375 25.0439 197.666 24.6 199.019C24.1867 200.111 23.6701 201.312 23.1683 202.409C22.2433 204.441 21.3823 206.118 21.3823 206.118C21.3823 206.118 38.8237 225.361 40.344 227.048C40.4259 227.08 40.5097 227.106 40.5949 227.127C40.654 227.028 43.8716 221.528 47.2812 216.101C50.2332 211.417 53.2984 206.788 54.612 205.725C56.4134 204.179 57.7234 202.141 58.3807 199.86C59.0892 197.582 63.6107 194.773 67.9846 192.057C72.8209 189.056 77.8246 185.951 77.9918 183.383C78.0853 182.055 78.3904 179.855 78.7446 177.302C79.704 170.384 80.8946 161.77 79.2612 161.017ZM70.9759 172.077L68.8259 174.168C68.5208 172.446 66.4298 170.158 66.1002 169.809C66.2655 168.981 66.3724 168.143 66.42 167.3C66.4987 166.34 66.5824 165.332 66.8185 165.169C67.0547 165.007 68.142 163.201 69.9132 160.249C70.0608 162.33 71.8812 164.623 72.1272 164.953L70.9759 172.077Z" fill="white"/>
<path opacity="0.4" d="M45.4461 165.686C44.8114 171.354 39.2567 185.415 39.2567 185.415L38.2727 171.25C38.2727 171.25 33.948 190.473 32.7623 191.167C31.5766 191.86 29.4954 195.536 28.3343 198.453C27.552 200.421 24.8903 201.759 23.2126 202.433C23.7046 201.336 24.231 200.136 24.6443 199.043C25.0882 197.691 25.7015 196.4 26.4696 195.201C26.6074 194.994 26.755 194.778 26.9173 194.547C28.1585 192.861 29.1771 191.022 29.9481 189.076C30.5188 187.521 30.4401 183.555 30.4105 179.728C30.3761 176.967 30.3417 174.36 30.5532 172.904L30.627 172.387C31.1781 168.579 32.3244 160.653 33.3871 158.527C34.4105 156.481 35.2174 156.235 36.6835 155.797L37.1755 155.649C37.7266 155.477 38.6515 155.093 39.7635 154.665C42.2235 153.681 45.2837 152.422 46.7843 152.358C48.187 152.328 49.5854 152.523 50.9269 152.933C52.8949 151.698 56.1618 150.178 57.0917 150.227C57.8543 150.262 59.4631 150.887 60.2405 151.211C56.9736 152.894 51.478 156.948 51.478 156.948C45.264 158.296 45.4461 165.686 45.4461 165.686Z" fill="white"/>
<path opacity="0.4" d="M56.457 158.158C58.0655 157.045 59.7325 156.018 61.4508 155.083C63.0449 154.335 63.5566 151.354 62.4348 150.513C62.3929 150.481 62.3439 150.461 62.2922 150.454L62.4053 150.414C63.5376 150.171 64.705 150.138 65.8493 150.316C63.7878 153.41 62.1741 155.782 61.746 156.294C60.3291 158.016 56.457 158.158 56.457 158.158Z" fill="white"/>
<path opacity="0.4" d="M64.5898 177.578L65.3425 177.902C64.885 179.728 64.5898 177.578 64.5898 177.578Z" fill="white"/>
<path opacity="0.4" d="M79.2612 161.017C77.2932 160.097 73.3867 155.782 72.8996 155.241C75.3596 151.098 77.7901 147.103 78.6314 146.144C80.378 144.176 82.5084 138.434 81.6425 135.659C80.8504 133.111 78.2575 133.519 77.9033 133.588V133.696C77.9033 133.696 80.7077 134.045 80.7028 138.099C80.6978 142.154 73.4162 150.188 73.4162 150.188C73.4162 150.188 65.928 164.234 65.436 164.023C64.944 163.811 63.8468 173.41 63.8468 173.41C63.8468 173.41 65.9329 175.186 65.436 177.578C65.4097 177.696 65.3852 177.804 65.3622 177.902L68.57 179.285C68.57 179.285 71.7877 177.026 73.4211 180.347C75.0546 183.668 57.7165 195.536 56.3537 197.292C56.3537 197.292 56.1618 203.909 53.6329 204.884C51.9946 205.513 49.1065 211.772 47.2812 216.106C50.2332 211.422 53.2983 206.792 54.612 205.73C56.4134 204.184 57.7234 202.146 58.3807 199.865C59.0892 197.587 63.6107 194.778 67.9845 192.062C72.8209 189.061 77.8246 185.956 77.9918 183.388C78.0853 182.06 78.3904 179.86 78.7446 177.307C79.704 170.384 80.8946 161.77 79.2612 161.017ZM70.9759 172.077L68.8259 174.168C68.5208 172.446 66.4298 170.158 66.1002 169.809C66.2655 168.981 66.3724 168.143 66.42 167.3C66.4987 166.34 66.5823 165.332 66.8185 165.169C67.0547 165.007 68.142 163.201 69.9132 160.249C70.0608 162.33 71.8812 164.623 72.1272 164.953L70.9759 172.077Z" fill="white"/>
<path d="M58.2823 158.286C59.623 157.998 60.8416 157.302 61.7706 156.294C63.2466 154.635 69.249 146.99 70.912 144.83C72.575 142.67 77.8885 133.696 77.8885 133.696C77.8885 133.696 80.7126 133.032 81.5441 135.693C82.3756 138.355 80.383 143.998 78.5528 146.075C76.7225 148.151 67.4188 164.603 66.7448 165.1C66.0707 165.597 66.5824 170.256 65.2688 171.25" stroke="#263238" stroke-linecap="round" stroke-linejoin="round"/>
<path d="M65.9821 169.853C65.9821 169.853 68.5848 172.579 68.7521 174.404L71.0743 172.131L72.2404 164.933C72.2404 164.933 69.9427 162.168 70.0116 159.895" stroke="#263238" stroke-linecap="round" stroke-linejoin="round"/>
<path d="M72.7717 155.255C72.7717 155.255 77.0571 160.116 79.2169 161.115C81.3768 162.114 78.2329 178.561 77.8885 183.378C77.5441 188.195 59.778 194.999 58.2823 199.826C57.6345 202.089 56.334 204.112 54.5431 205.641C51.66 207.978 40.5015 227.078 40.5015 227.078" stroke="#263238" stroke-linecap="round" stroke-linejoin="round"/>
<path d="M66.4643 150.513C66.4643 150.513 63.9305 150.045 62.4348 150.513C60.9391 150.98 54.612 155.472 53.136 156.294C51.66 157.115 49.4804 157.278 48.9835 158.286" stroke="#263238" stroke-linecap="round" stroke-linejoin="round"/>
<path d="M60.6144 151.467C60.6144 151.467 58.056 150.355 57.072 150.306C56.088 150.257 52.088 152.141 50.2627 153.469C48.8592 154.499 47.283 155.268 45.6084 155.742" stroke="#263238" stroke-linecap="round" stroke-linejoin="round"/>
<path d="M50.9122 153.012C49.5707 152.593 48.1698 152.395 46.7646 152.427C44.5998 152.52 38.9517 155.177 37.1805 155.733C35.4093 156.289 34.5778 156.338 33.4708 158.557C32.3638 160.776 31.1436 169.465 30.6467 172.899C30.1498 176.333 31.0354 186.384 30.0366 189.1C29.0379 191.816 27.4979 193.848 26.568 195.26C24.6738 198.074 24.8854 200.18 21.4365 206.143" stroke="#263238" stroke-linecap="round" stroke-linejoin="round"/>
<path d="M46.9024 159.034C44.7425 160.948 45.141 164.603 45.4264 165.686C45.7117 166.768 44.3883 171.098 43.9504 173.41" stroke="#263238" stroke-linecap="round" stroke-linejoin="round"/>
<path d="M60.6144 160.884C56.6784 160.968 55.4582 163.624 55.2024 165.371" stroke="#263238" stroke-linecap="round" stroke-linejoin="round"/>
<path d="M43.9947 156.948C42.8286 156.864 39.8373 158.695 39.2567 161.686" stroke="#263238" stroke-linecap="round" stroke-linejoin="round"/>
<path d="M72.2404 164.933C72.2404 164.933 72.8209 163.275 73.4015 163.108" stroke="#263238" stroke-linecap="round" stroke-linejoin="round"/>
<path d="M71.0744 172.131C70.7877 173.106 70.4326 174.06 70.0116 174.985C69.5196 175.969 70.0116 177.538 70.0116 177.538" stroke="#263238" stroke-linecap="round" stroke-linejoin="round"/>
<path d="M68.7521 174.404C68.6685 176.067 66.8382 177.848 66.4643 177.538" stroke="#263238" stroke-linecap="round" stroke-linejoin="round"/>
<path d="M53.1065 171.58C53.0474 173.41 49.7264 186.783 49.7264 186.783" stroke="#263238" stroke-linecap="round" stroke-linejoin="round"/>
</svg>
