<svg width="808" height="559" viewBox="0 0 808 559" fill="none" xmlns="http://www.w3.org/2000/svg">
<path opacity="0.75" d="M137.442 556.938C137.442 556.938 20.1526 533.74 14.1729 451.782C7.29021 357.452 101.947 356.411 87.427 288.036C67.1598 192.601 106.794 135.755 195.597 139.676C270.477 142.981 333.644 201.626 373.705 151.212C416.908 96.8421 497.725 56.6698 577.701 90.3449C657.676 124.02 645.893 233.45 701.204 256.702C756.514 279.954 816.41 341.283 806.764 426.12C797.714 505.714 724.312 558.596 656.294 557.794C622.963 557.402 493.593 558.233 377.332 557.794C256.348 557.336 137.442 556.938 137.442 556.938Z" fill="#E4F2FF"/>
<path d="M720.522 240.2C720.522 240.2 698.845 198.416 735.842 178.298C775.671 156.64 806.204 196.874 796.803 230C787.401 263.127 732.062 261.656 720.522 240.2Z" fill="#E4F2FF"/>
<path d="M346.423 153.401H313.819V245.92H346.423V153.401Z" fill="#92CDFE"/>
<path d="M392.654 113.022H360.05V245.919H392.654V113.022Z" fill="#92CDFE"/>
<path d="M438.886 140.28H406.282V245.92H438.886V140.28Z" fill="#92CDFE"/>
<path d="M485.117 163.708H452.513V245.921H485.117V163.708Z" fill="#92CDFE"/>
<path d="M531.349 110.804H498.745V245.92H531.349V110.804Z" fill="#92CDFE"/>
<path d="M577.58 149.281H544.976V245.919H577.58V149.281Z" fill="#92CDFE"/>
<path d="M407.432 94.8716C407.432 94.8716 497.711 99.6738 557.971 42.9897" stroke="#92CDFE" stroke-width="8" stroke-miterlimit="10" stroke-linecap="round"/>
<path d="M540.557 41.6815L557.092 59.0833L570.972 32.348L540.557 41.6815Z" fill="#92CDFE"/>
<path d="M299.709 51.5769H415.604" stroke="#92CDFE" stroke-miterlimit="10" stroke-linecap="round"/>
<path d="M299.709 62.4569H415.604" stroke="#92CDFE" stroke-miterlimit="10" stroke-linecap="round"/>
<path d="M299.709 73.3381H378.846" stroke="#92CDFE" stroke-miterlimit="10" stroke-linecap="round"/>
<path d="M613.522 15H263.767V274.632H613.522V15Z" stroke="#92CDFE" stroke-miterlimit="10"/>
<path d="M234.783 105.242H195.814C190.836 105.242 186.8 109.078 186.8 113.811V128.932V134.22V150.788L195.965 142.79H234.782C239.761 142.79 243.797 138.954 243.797 134.222V113.812C243.799 109.078 239.762 105.242 234.783 105.242Z" fill="white" stroke="#92CDFE" stroke-miterlimit="10"/>
<path d="M212.178 119.58L212.528 119.938L212.533 119.933L212.538 119.928L212.178 119.58ZM215.961 118.655L216.127 119.127L216.139 119.122L215.961 118.655ZM217.653 117.352L217.249 117.057L217.242 117.067L217.653 117.352ZM217.798 113.033L217.369 113.29L217.376 113.302L217.798 113.033ZM216.362 111.695L216.121 112.133L216.127 112.136L216.362 111.695ZM212.592 111.492L212.411 111.025L212.404 111.028L212.592 111.492ZM211.163 112.346L210.844 111.962L210.838 111.966L211.163 112.346ZM209.898 113.009L210.024 113.493L210.031 113.491L210.038 113.489L209.898 113.009ZM208.451 112.638L208.147 113.035L208.15 113.037L208.451 112.638ZM207.629 111.242L208.128 111.208L207.629 111.242ZM208.258 109.766L208.607 110.124L208.612 110.119L208.258 109.766ZM210.987 107.959L211.174 108.423L211.178 108.421L210.987 107.959ZM218.333 108.396L218.077 108.825L218.086 108.831L218.333 108.396ZM221.172 111.136L220.745 111.396L221.172 111.136ZM221.677 117.881L222.14 118.07L222.142 118.066L221.677 117.881ZM220.267 119.993L220.617 120.351L220.267 119.993ZM218.188 121.389L218.386 121.848L218.392 121.845L218.188 121.389ZM215.633 122.102L215.558 121.607L215.483 121.619L215.414 121.652L215.633 122.102ZM215.503 122.165L215.284 121.715L215.211 121.751L215.153 121.807L215.503 122.165ZM214.892 124.866L215.242 125.224L215.247 125.219L215.252 125.214L214.892 124.866ZM212.12 124.835L211.752 125.175L211.757 125.18L211.762 125.185L212.12 124.835ZM211.829 130.668L211.46 131.006L211.471 131.018L211.483 131.029L211.829 130.668ZM211.867 127.251L211.517 126.893L211.867 127.251ZM215.155 127.288L214.787 127.625L214.798 127.637L214.809 127.649L215.155 127.288ZM215.117 130.705L214.768 130.348L214.768 130.348L215.117 130.705ZM212.115 120.966C212.12 120.528 212.262 120.198 212.528 119.938L211.829 119.223C211.356 119.685 211.123 120.275 211.115 120.955L212.115 120.966ZM212.538 119.928C212.807 119.649 213.137 119.511 213.566 119.515L213.577 118.515C212.888 118.508 212.289 118.746 211.819 119.233L212.538 119.928ZM213.566 119.515C214.496 119.526 215.351 119.399 216.127 119.127L215.796 118.183C215.147 118.411 214.409 118.525 213.577 118.515L213.566 119.515ZM216.139 119.122C216.941 118.817 217.588 118.322 218.063 117.638L217.242 117.067C216.887 117.577 216.407 117.951 215.783 118.188L216.139 119.122ZM218.056 117.647C218.572 116.942 218.812 116.037 218.824 114.979L217.824 114.968C217.814 115.887 217.607 116.568 217.249 117.057L218.056 117.647ZM218.824 114.979C218.833 114.161 218.636 113.417 218.219 112.764L217.376 113.302C217.678 113.775 217.831 114.325 217.824 114.968L218.824 114.979ZM218.227 112.776C217.839 112.13 217.291 111.622 216.596 111.253L216.127 112.136C216.672 112.426 217.081 112.811 217.369 113.29L218.227 112.776ZM216.603 111.257C215.923 110.883 215.154 110.698 214.309 110.688L214.298 111.688C215.001 111.696 215.604 111.849 216.121 112.133L216.603 111.257ZM214.309 110.688C213.647 110.681 213.012 110.792 212.411 111.025L212.772 111.958C213.25 111.773 213.757 111.682 214.298 111.688L214.309 110.688ZM212.404 111.028C211.838 111.257 211.317 111.568 210.844 111.962L211.483 112.731C211.877 112.403 212.309 112.145 212.779 111.955L212.404 111.028ZM210.838 111.966C210.551 112.212 210.195 112.402 209.758 112.529L210.038 113.489C210.594 113.327 211.081 113.075 211.488 112.726L210.838 111.966ZM209.772 112.525C209.483 112.601 209.155 112.544 208.753 112.239L208.15 113.037C208.728 113.474 209.365 113.665 210.024 113.493L209.772 112.525ZM208.756 112.242C208.334 111.918 208.153 111.575 208.128 111.208L207.13 111.277C207.179 111.986 207.546 112.574 208.147 113.035L208.756 112.242ZM208.128 111.208C208.102 110.844 208.234 110.488 208.607 110.124L207.908 109.409C207.368 109.937 207.081 110.565 207.13 111.277L208.128 111.208ZM208.612 110.119C209.347 109.381 210.2 108.816 211.174 108.423L210.8 107.495C209.701 107.939 208.734 108.579 207.903 109.414L208.612 110.119ZM211.178 108.421C212.172 108.008 213.225 107.807 214.342 107.819L214.353 106.82C213.105 106.806 211.918 107.031 210.795 107.497L211.178 108.421ZM214.342 107.819C215.744 107.835 216.985 108.173 218.077 108.825L218.59 107.967C217.333 107.217 215.916 106.837 214.353 106.82L214.342 107.819ZM218.086 108.831C219.21 109.469 220.094 110.323 220.745 111.396L221.6 110.877C220.858 109.655 219.849 108.682 218.58 107.961L218.086 108.831ZM220.745 111.396C221.39 112.457 221.708 113.658 221.693 115.011L222.693 115.023C222.71 113.496 222.348 112.11 221.6 110.877L220.745 111.396ZM221.693 115.011C221.682 116.036 221.518 116.929 221.213 117.696L222.142 118.066C222.5 117.164 222.68 116.147 222.693 115.023L221.693 115.011ZM221.214 117.692C220.908 118.444 220.476 119.09 219.918 119.636L220.617 120.351C221.276 119.706 221.784 118.944 222.14 118.07L221.214 117.692ZM219.918 119.636C219.376 120.165 218.733 120.598 217.984 120.932L218.392 121.845C219.241 121.466 219.985 120.969 220.617 120.351L219.918 119.636ZM217.99 120.93C217.256 121.246 216.446 121.473 215.558 121.607L215.707 122.596C216.671 122.45 217.565 122.202 218.386 121.848L217.99 120.93ZM215.414 121.652C215.371 121.673 215.328 121.694 215.284 121.715L215.722 122.614C215.765 122.593 215.808 122.572 215.851 122.551L215.414 121.652ZM215.153 121.807C215.003 121.954 214.971 122.135 214.97 122.255L215.97 122.267C215.969 122.301 215.959 122.418 215.852 122.522L215.153 121.807ZM214.97 122.255L214.956 123.448L215.956 123.46L215.97 122.267L214.97 122.255ZM214.956 123.448C214.951 123.887 214.809 124.233 214.533 124.519L215.252 125.214C215.715 124.734 215.949 124.139 215.956 123.46L214.956 123.448ZM214.543 124.509C214.276 124.769 213.944 124.904 213.505 124.899L213.494 125.899C214.174 125.906 214.769 125.686 215.242 125.224L214.543 124.509ZM213.505 124.899C213.067 124.894 212.738 124.752 212.477 124.486L211.762 125.185C212.224 125.657 212.815 125.891 213.494 125.899L213.505 124.899ZM212.487 124.496C212.217 124.204 212.082 123.854 212.087 123.416L211.087 123.405C211.08 124.084 211.3 124.685 211.752 125.175L212.487 124.496ZM212.087 123.416L212.115 120.966L211.115 120.955L211.087 123.405L212.087 123.416ZM213.28 130.668C212.741 130.662 212.397 130.52 212.175 130.307L211.483 131.029C211.941 131.469 212.56 131.66 213.268 131.668L213.28 130.668ZM212.197 130.33C211.989 130.103 211.855 129.756 211.861 129.218L210.861 129.206C210.853 129.915 211.031 130.538 211.46 131.006L212.197 130.33ZM211.861 129.218L211.867 128.67L210.867 128.658L210.861 129.206L211.861 129.218ZM211.867 128.67C211.873 128.129 212.016 127.805 212.216 127.608L211.517 126.893C211.066 127.335 210.875 127.952 210.867 128.658L211.867 128.67ZM212.216 127.608C212.445 127.385 212.788 127.245 213.318 127.251L213.329 126.251C212.612 126.243 211.985 126.436 211.517 126.893L212.216 127.608ZM213.318 127.251L213.737 127.256L213.748 126.256L213.329 126.251L213.318 127.251ZM213.737 127.256C214.269 127.262 214.589 127.41 214.787 127.625L215.524 126.95C215.085 126.47 214.463 126.264 213.748 126.256L213.737 127.256ZM214.809 127.649C215.021 127.851 215.161 128.175 215.155 128.706L216.155 128.718C216.163 128.003 215.971 127.377 215.501 126.927L214.809 127.649ZM215.155 128.706L215.149 129.254L216.149 129.266L216.155 128.718L215.155 128.706ZM215.149 129.254C215.143 129.784 214.996 130.124 214.768 130.348L215.467 131.063C215.934 130.606 216.141 129.982 216.149 129.266L215.149 129.254ZM214.768 130.348C214.567 130.544 214.239 130.679 213.699 130.673L213.687 131.673C214.394 131.681 215.015 131.504 215.467 131.063L214.768 130.348ZM213.699 130.673L213.28 130.668L213.268 131.668L213.687 131.673L213.699 130.673Z" fill="#92CDFE"/>
<path d="M470.638 118.55H434.026C429.349 118.55 425.556 122.154 425.556 126.601V140.808V145.777V161.342L434.168 153.828H470.638C475.315 153.828 479.108 150.224 479.108 145.777V126.601C479.107 122.154 475.315 118.55 470.638 118.55Z" fill="white" stroke="#92CDFE" stroke-miterlimit="10"/>
<path d="M466.426 139.223C468.136 139.223 469.523 137.837 469.523 136.127C469.523 134.416 468.136 133.03 466.426 133.03C464.716 133.03 463.329 134.416 463.329 136.127C463.329 137.837 464.716 139.223 466.426 139.223Z" fill="#92CDFE"/>
<path d="M453.937 139.223C455.647 139.223 457.034 137.837 457.034 136.127C457.034 134.416 455.647 133.03 453.937 133.03C452.227 133.03 450.84 134.416 450.84 136.127C450.84 137.837 452.227 139.223 453.937 139.223Z" fill="#92CDFE"/>
<path d="M441.45 139.223C443.16 139.223 444.547 137.837 444.547 136.127C444.547 134.416 443.16 133.03 441.45 133.03C439.74 133.03 438.353 134.416 438.353 136.127C438.353 137.837 439.74 139.223 441.45 139.223Z" fill="#92CDFE"/>
<path fill-rule="evenodd" clip-rule="evenodd" d="M779.808 240.373C781.37 241.187 782.797 242.199 784.061 243.369L788.605 241.751L792.876 248.493L789.473 251.91C789.991 253.553 790.298 255.275 790.366 257.036L794.722 259.105L792.974 266.892L788.153 266.902C787.339 268.467 786.326 269.892 785.157 271.156L786.775 275.7L780.034 279.97L776.615 276.568C774.973 277.085 773.251 277.391 771.49 277.459L769.422 281.815L761.634 280.069L761.623 275.246C760.059 274.432 758.634 273.421 757.37 272.25L752.825 273.868L748.554 267.127L751.958 263.709C751.44 262.066 751.135 260.346 751.066 258.584L746.711 256.515L748.457 248.728L753.278 248.718C754.091 247.154 755.104 245.728 756.275 244.465L754.657 239.921L761.397 235.65L764.815 239.054C766.457 238.535 768.178 238.23 769.941 238.161L772.008 233.807L779.795 235.553L779.808 240.373ZM772.943 249.536C768.33 248.501 763.751 251.401 762.716 256.015C761.681 260.628 764.582 265.207 769.195 266.242C773.809 267.277 778.387 264.376 779.422 259.763C780.457 255.149 777.557 250.571 772.943 249.536Z" fill="#92CDFE"/>
<path fill-rule="evenodd" clip-rule="evenodd" d="M48.2557 191.58C50.5333 192.768 52.6139 194.242 54.4564 195.947L61.0829 193.588L67.3096 203.417L62.3472 208.401C63.1021 210.795 63.5502 213.305 63.6487 215.874L70 218.89L67.4528 230.243L60.4229 230.258C59.2366 232.537 57.7604 234.618 56.0536 236.46L58.413 243.086L48.5848 249.312L43.6001 244.35C41.2053 245.105 38.6953 245.551 36.1258 245.649L33.11 252L21.7554 249.455L21.7406 242.424C19.4611 241.238 17.3824 239.762 15.5399 238.055L8.91338 240.414L2.68666 230.585L7.65094 225.601C6.89607 223.207 6.44984 220.697 6.34944 218.128L0 215.112L2.54721 203.759L9.57715 203.744C10.7634 201.465 12.2396 199.384 13.9465 197.542L11.587 190.916L21.4152 184.69L26.3999 189.652C28.7947 188.897 31.3047 188.451 33.8742 188.351L36.89 182L48.2446 184.547L48.2557 191.58ZM38.2454 204.939C31.5185 203.431 24.8418 207.659 23.3321 214.387C21.8224 221.113 26.0541 227.789 32.7809 229.299C39.5078 230.806 46.1845 226.577 47.6942 219.851C49.2021 213.123 44.9722 206.447 38.2454 204.939Z" fill="#92CDFE"/>
<path fill-rule="evenodd" clip-rule="evenodd" d="M134.868 14.27C138.025 15.9148 140.908 17.9596 143.461 20.3226L152.641 17.0535L161.271 30.6733L154.396 37.5799C155.443 40.8974 156.061 44.3768 156.199 47.9361L165 52.1151L161.47 67.8467L151.73 67.869C150.087 71.0284 148.04 73.9086 145.675 76.4614L148.944 85.6436L135.326 94.2732L128.419 87.3982C125.101 88.4457 121.622 89.0616 118.062 89.1992L113.883 98L98.1489 94.4723L98.1284 84.73C94.9689 83.0871 92.0886 81.0404 89.5357 78.6774L80.3532 81.9465L71.7233 68.3267L78.6022 61.4201C77.5547 58.1026 76.9388 54.6232 76.7992 51.0639L68 46.8849L71.5279 31.1514L81.2686 31.131C82.9116 27.9716 84.9584 25.0895 87.3233 22.5367L84.0541 13.3546L97.6725 4.72497L104.579 11.6018C107.897 10.5543 111.375 9.93658 114.936 9.79889L119.115 1L134.847 4.5296L134.868 14.27ZM120.996 32.7832C111.676 30.6937 102.423 36.5528 100.333 45.8746C98.2419 55.1963 104.105 64.4455 113.425 66.5368C122.747 68.6282 131.999 62.7653 134.088 53.4455C136.178 44.1237 130.318 34.8727 120.996 32.7832Z" stroke="#92CDFE" stroke-miterlimit="10"/>
<path fill-rule="evenodd" clip-rule="evenodd" d="M243.614 263.848C244.699 264.413 245.688 265.115 246.564 265.926L249.717 264.803L252.679 269.479L250.318 271.851C250.678 272.99 250.891 274.185 250.938 275.406L253.96 276.842L252.747 282.244L249.403 282.251C248.838 283.336 248.135 284.324 247.323 285.201L248.446 288.354L243.77 291.317L241.399 288.956C240.26 289.316 239.065 289.527 237.843 289.575L236.408 292.597L231.006 291.386L230.999 288.04C229.913 287.476 228.925 286.774 228.048 285.962L224.895 287.084L221.933 282.408L224.295 280.037C223.935 278.898 223.723 277.703 223.675 276.481L220.655 275.047L221.866 269.645L225.21 269.638C225.775 268.553 226.478 267.564 227.29 266.687L226.167 263.535L230.843 260.572L233.215 262.933C234.353 262.573 235.548 262.362 236.77 262.314L238.205 259.292L243.606 260.503L243.614 263.848ZM238.852 270.205C235.651 269.488 232.475 271.499 231.757 274.7C231.038 277.9 233.052 281.077 236.252 281.795C239.452 282.513 242.629 280.501 243.347 277.3C244.064 274.098 242.052 270.922 238.852 270.205Z" stroke="#92CDFE" stroke-miterlimit="10"/>
<path fill-rule="evenodd" clip-rule="evenodd" d="M710.719 123.045C712.031 123.728 713.228 124.577 714.289 125.56L718.104 124.202L721.689 129.862L718.832 132.731C719.267 134.109 719.524 135.556 719.582 137.034L723.238 138.771L721.771 145.308L717.723 145.318C717.04 146.631 716.19 147.827 715.207 148.889L716.566 152.704L710.907 156.289L708.037 153.432C706.659 153.866 705.214 154.123 703.734 154.18L701.998 157.837L695.46 156.371L695.452 152.323C694.139 151.64 692.943 150.79 691.882 149.808L688.067 151.167L684.482 145.507L687.34 142.637C686.906 141.258 686.649 139.813 686.59 138.335L682.934 136.598L684.4 130.061L688.448 130.052C689.131 128.739 689.981 127.542 690.964 126.481L689.605 122.666L695.264 119.081L698.134 121.939C699.512 121.504 700.957 121.247 702.437 121.19L704.173 117.533L710.71 118.999L710.719 123.045ZM704.956 130.737C701.083 129.868 697.239 132.303 696.37 136.177C695.501 140.049 697.938 143.894 701.81 144.763C705.683 145.632 709.527 143.196 710.396 139.323C711.264 135.449 708.829 131.605 704.956 130.737Z" stroke="#92CDFE" stroke-miterlimit="10"/>
<path d="M246.315 355.948C246.986 356.784 281.189 363.043 281.189 363.043C281.189 363.043 299.521 377.006 298.849 377.121C298.177 377.237 238.714 376.568 238.714 376.568L246.315 355.948Z" fill="#F6C8A6"/>
<path d="M277.612 368.184L289.593 369.511" stroke="#EF8576" stroke-miterlimit="10" stroke-linecap="round"/>
<path d="M277.612 373.382L295.619 374.261" stroke="#EF8576" stroke-miterlimit="10" stroke-linecap="round"/>
<path d="M413.725 517.112H422.86V457.808H413.725V517.112Z" fill="white" stroke="#16004D" stroke-miterlimit="10"/>
<path d="M416.268 536.046H420.317C423.086 536.046 425.328 533.802 425.328 531.035V490.407C425.328 487.639 423.084 485.395 420.317 485.395H416.268C413.5 485.395 411.257 487.639 411.257 490.407V531.035C411.257 533.802 413.5 536.046 416.268 536.046Z" fill="#6FBBEF"/>
<path d="M382.247 531.804H384.489H452.096H457.413V537.901V544.759H452.096V537.901H384.489V544.759H379.174V537.901V531.804H382.247Z" fill="#6FBBEF"/>
<path d="M381.781 556.416C386.284 556.416 389.935 552.765 389.935 548.262C389.935 543.759 386.284 540.109 381.781 540.109C377.278 540.109 373.628 543.759 373.628 548.262C373.628 552.765 377.278 556.416 381.781 556.416Z" fill="white" stroke="#16004D" stroke-miterlimit="10"/>
<path d="M378.658 548.262C378.658 549.988 380.056 551.386 381.781 551.386C383.507 551.386 384.905 549.988 384.905 548.262C384.905 546.537 383.507 545.139 381.781 545.139C380.056 545.139 378.658 546.537 378.658 548.262Z" fill="#16004D"/>
<path d="M455.035 556.416C459.538 556.416 463.189 552.765 463.189 548.262C463.189 543.759 459.538 540.109 455.035 540.109C450.532 540.109 446.882 543.759 446.882 548.262C446.882 552.765 450.532 556.416 455.035 556.416Z" fill="white" stroke="#16004D" stroke-miterlimit="10"/>
<path d="M451.912 548.262C451.912 549.988 453.31 551.386 455.035 551.386C456.761 551.386 458.159 549.988 458.159 548.262C458.159 546.537 456.761 545.139 455.035 545.139C453.31 545.139 451.912 546.537 451.912 548.262Z" fill="#16004D"/>
<path d="M369.739 292.495C369.739 292.495 334.642 291.82 318.617 328.286C302.593 364.752 314.108 416.249 341.967 441.676C371.593 468.715 443.857 461.446 456.499 458.388C469.141 455.328 413.265 336.145 411.731 332.41C410.199 328.674 369.739 292.495 369.739 292.495Z" fill="#6FBBEF"/>
<path d="M324.71 419.101C324.71 419.101 337.129 453.791 385.842 459.675C434.554 465.559 461.149 457.053 461.149 457.053" stroke="#16004D" stroke-miterlimit="10" stroke-linecap="round"/>
<path d="M500.863 496.613L504.791 531.602L482.255 534.057L479.125 496.613H500.863Z" fill="#A66957"/>
<path d="M549.546 556.68L477.599 556.352L474.923 515.824L509.518 517.396L514.106 533.69L549.546 556.68Z" fill="#160047"/>
<path d="M527.889 538.888C526.584 541.661 525.278 544.435 523.973 547.208C523.789 547.599 523.604 547.992 523.42 548.383C523.021 549.229 524.281 549.97 524.68 549.12C525.985 546.347 527.291 543.574 528.596 540.8C528.78 540.409 528.965 540.017 529.149 539.625C529.548 538.78 528.29 538.037 527.889 538.888Z" fill="white"/>
<path d="M521.285 535.373C519.981 538.146 518.675 540.92 517.37 543.693C517.185 544.084 517.001 544.477 516.816 544.868C516.418 545.714 517.677 546.455 518.077 545.605C519.381 542.832 520.687 540.059 521.992 537.286C522.177 536.894 522.361 536.502 522.546 536.11C522.943 535.265 521.685 534.522 521.285 535.373Z" fill="white"/>
<path d="M491.674 556.416C492.738 554.519 493.314 552.338 493.211 550.03C492.908 543.223 486.921 537.924 479.864 538.218C479.362 538.239 477.124 538.47 476.639 538.545L476.828 539.422C477.336 539.336 479.374 539.07 479.903 539.048C486.484 538.775 492.069 543.718 492.353 550.066C492.456 552.377 491.835 554.556 490.696 556.411L491.674 556.416Z" fill="#F0F0F0"/>
<path d="M517.622 405.715C511.686 378.314 491.472 378.222 491.472 378.222L391.851 372.41C391.851 372.41 392.523 403.459 412.04 418.192C424.462 427.57 463.197 424.021 463.197 424.021L462.058 409.896L470 508.371H517.622C517.622 508.371 523.559 433.116 517.622 405.715Z" fill="#16004D"/>
<path d="M517.622 508.372H470L462.058 409.896" stroke="#92CDFE" stroke-miterlimit="10" stroke-linecap="round"/>
<path d="M391.851 372.41C391.851 372.41 392.523 403.459 412.04 418.192C424.462 427.57 463.197 424.021 463.197 424.021" stroke="#92CDFE" stroke-miterlimit="10" stroke-linecap="round"/>
<path d="M468.83 493.861H518.597" stroke="#92CDFE" stroke-miterlimit="10" stroke-linecap="round"/>
<path d="M465.134 496.613L469.061 531.602L446.525 534.057L443.396 496.613H465.134Z" fill="#A66957"/>
<path d="M513.816 556.68L441.869 556.352L439.194 515.824L473.789 517.396L478.376 533.69L513.816 556.68Z" fill="#160047"/>
<path d="M492.16 538.888C490.855 541.661 489.549 544.435 488.244 547.208C488.06 547.599 487.875 547.992 487.691 548.383C487.292 549.229 488.552 549.97 488.951 549.12C490.256 546.347 491.562 543.574 492.867 540.8C493.051 540.409 493.236 540.017 493.42 539.625C493.819 538.78 492.56 538.037 492.16 538.888Z" fill="white"/>
<path d="M485.555 535.373C484.25 538.146 482.944 540.92 481.64 543.693C481.455 544.084 481.27 544.477 481.086 544.868C480.688 545.714 481.947 546.455 482.346 545.605C483.651 542.832 484.957 540.059 486.262 537.286C486.447 536.894 486.631 536.502 486.816 536.11C487.214 535.265 485.956 534.522 485.555 535.373Z" fill="white"/>
<path d="M455.945 556.416C457.009 554.519 457.585 552.338 457.483 550.03C457.179 543.223 451.192 537.924 444.135 538.218C443.633 538.239 441.394 538.47 440.91 538.545L441.098 539.422C441.606 539.336 443.644 539.07 444.173 539.048C450.754 538.775 456.339 543.718 456.623 550.066C456.726 552.377 456.105 554.556 454.966 556.411L455.945 556.416Z" fill="#F0F0F0"/>
<path d="M473.789 517.396L478.376 533.69L514.477 556.68" stroke="white" stroke-width="0.75" stroke-miterlimit="10" stroke-linecap="round"/>
<path d="M481.892 405.715C475.956 378.314 455.742 378.222 455.742 378.222L356.121 372.41C356.121 372.41 353.474 410.679 373.522 424.68C390.042 436.216 428.098 431.843 428.098 431.843L426.328 409.898L434.27 508.374H481.892C481.892 508.374 487.83 433.116 481.892 405.715Z" fill="#16004D"/>
<path d="M455.742 378.222C455.742 378.222 475.956 378.314 481.892 405.715C487.829 433.116 481.892 508.372 481.892 508.372H434.27L426.637 413.726" stroke="#92CDFE" stroke-miterlimit="10" stroke-linecap="round"/>
<path d="M433.101 493.861H482.869" stroke="#92CDFE" stroke-miterlimit="10" stroke-linecap="round"/>
<path d="M459.299 277.634C459.299 277.634 470.553 255.881 472.746 252.093C474.937 248.304 477.557 245.973 478.896 247.474C480.235 248.974 478.896 253.776 478.896 253.776C478.896 253.776 483.561 246.242 485.844 243.547C488.128 240.852 491.72 240.212 490.015 244.894C490.015 244.894 492.192 241.31 493.927 241.812C495.663 242.314 494.019 245.272 492.421 247.058C492.421 247.058 495.49 242.638 497.027 243.446C498.563 244.255 497.057 246.988 495.209 249.321C495.209 249.321 497.352 245.971 499.087 246.814C500.823 247.657 498.699 250.829 496.279 254.893C493.859 258.957 489.734 265.033 487.569 269.19C485.933 272.331 481.3 282 481.3 282L480.41 284.374L459.299 277.634Z" fill="#A66957"/>
<path d="M478.378 247.058C478.378 247.058 479.415 247.219 479.415 249.894C479.415 252.569 478.319 256.402 478.896 258.686C479.474 260.97 478.377 264.531 478.377 264.531" stroke="#7F4040" stroke-width="0.75" stroke-miterlimit="10" stroke-linecap="round"/>
<path d="M484.003 253.588L491.138 243.446" stroke="#7F4040" stroke-width="0.75" stroke-miterlimit="10" stroke-linecap="round"/>
<path d="M486.42 254.893C486.644 254.601 493.822 245.098 493.822 245.098" stroke="#7F4040" stroke-width="0.75" stroke-miterlimit="10" stroke-linecap="round"/>
<path d="M489.445 256.598L496.583 247.587" stroke="#7F4040" stroke-width="0.75" stroke-miterlimit="10" stroke-linecap="round"/>
<path d="M460.12 271.93L432.642 305.604L436.59 300.766L403.043 269.983C403.043 269.983 405.218 327.098 406.679 334.385C408.14 341.673 430.081 358.435 454.841 345.775C479.601 333.116 484.937 283.863 484.937 283.863L460.12 271.93Z" fill="#5069FF"/>
<path d="M453.334 280.246L482.894 295.903C484.404 288.781 484.936 283.864 484.936 283.864L460.12 271.931L453.334 280.246Z" stroke="#16004D" stroke-miterlimit="10" stroke-linecap="round"/>
<path d="M482.214 282.708L479.029 293.607" stroke="#16004D" stroke-miterlimit="10" stroke-linecap="round"/>
<path d="M478.378 280.71C478.242 280.836 474.138 291.265 474.138 291.265" stroke="#16004D" stroke-miterlimit="10" stroke-linecap="round"/>
<path d="M473.974 278.592L468.727 288.158" stroke="#16004D" stroke-miterlimit="10" stroke-linecap="round"/>
<path d="M469.29 276.34L463.946 285.611" stroke="#16004D" stroke-miterlimit="10" stroke-linecap="round"/>
<path d="M458.821 283.152L464.324 274.331" stroke="#16004D" stroke-miterlimit="10" stroke-linecap="round"/>
<path d="M484.936 283.863L460.12 271.93L432.642 305.604" stroke="#16004D" stroke-miterlimit="10" stroke-linecap="round"/>
<path d="M436.59 300.766L403.043 269.983" stroke="#16004D" stroke-miterlimit="10" stroke-linecap="round"/>
<path d="M391.534 263.892C391.534 263.892 415.081 265.719 425.676 297.139C436.271 328.559 442.482 375.932 442.482 375.932L349.841 378.569C349.841 378.569 342.412 272.296 391.534 263.892Z" fill="#5069FF" stroke="#16004D" stroke-miterlimit="10"/>
<path d="M417.76 355.352L451.935 363.907L465.682 375.631H403.504L417.76 355.352Z" fill="#A66957"/>
<path d="M443.396 366.252L456.063 367.231" stroke="#7F4040" stroke-width="0.75" stroke-miterlimit="10" stroke-linecap="round"/>
<path d="M444.31 371.275L460.355 371.609" stroke="#7F4040" stroke-width="0.75" stroke-miterlimit="10" stroke-linecap="round"/>
<path d="M425.798 349.019L375.33 333.593L380.041 299.331L383.199 264.887C383.199 264.887 361.737 269.707 341.323 300.517C337.93 305.637 333.524 313.276 330.244 319.888C316.578 347.438 318.123 359.751 324.621 367.316C329.066 372.492 335.648 375.632 347.266 375.632C375.867 375.632 426.651 375.632 426.651 375.632L425.798 349.019Z" fill="#5069FF"/>
<path d="M361.253 329.29L425.799 349.019L426.652 375.632C426.652 375.632 375.868 375.632 347.267 375.632C326.565 375.632 317.255 365.113 321.336 344.479" stroke="#16004D" stroke-miterlimit="10" stroke-linecap="round"/>
<path d="M371.152 332.316L381.469 304.994" stroke="#16004D" stroke-miterlimit="10" stroke-linecap="round"/>
<path d="M415.189 345.776V375.631" stroke="#16004D" stroke-miterlimit="10" stroke-linecap="round"/>
<path d="M415.189 351.455L425.463 352.49" stroke="#16004D" stroke-miterlimit="10" stroke-linecap="round"/>
<path d="M415.477 357.666L425.98 358.153" stroke="#16004D" stroke-miterlimit="10" stroke-linecap="round"/>
<path d="M415.189 363.176L426.133 363.328" stroke="#16004D" stroke-miterlimit="10" stroke-linecap="round"/>
<path d="M415.189 368.108L426.285 368.23" stroke="#16004D" stroke-miterlimit="10" stroke-linecap="round"/>
<path d="M415.189 372.067H426.536" stroke="#16004D" stroke-miterlimit="10" stroke-linecap="round"/>
<path d="M401.515 264.62C399.864 263.48 395.943 260.198 394.675 260.309C393.404 260.37 387.905 258.229 384.346 262.378C380.049 267.39 378.065 275.521 381.906 280.292C384.961 284.087 391.411 282.543 395.931 279.592C400.807 281.907 406.025 281.358 408.351 277.992C411.047 274.087 406.947 268.372 401.515 264.62Z" fill="white" stroke="#16004D" stroke-miterlimit="10"/>
<path d="M403.537 224.881H395.198C389.654 224.881 385.118 230.045 385.118 236.357V240.338C384.029 239.561 382.697 239.1 381.253 239.1C377.586 239.1 374.615 242.047 374.615 245.684C374.615 249.321 377.586 252.269 381.253 252.269C382.668 252.269 383.976 251.826 385.053 251.079L385.157 251.152V256.179V256.666V265.407C385.157 268.579 387.753 271.174 390.924 271.174H394.599C397.771 271.174 400.366 268.579 400.366 265.407V260.758H403.537C409.081 260.758 413.616 255.594 413.616 249.282V236.357C413.616 230.045 409.081 224.881 403.537 224.881Z" fill="#A66957"/>
<path d="M384.844 246.555C384.844 246.555 385.136 242.082 380.544 242.579" stroke="#7F4040" stroke-miterlimit="10" stroke-linecap="round"/>
<path d="M396.93 240.581C396.93 241.619 397.771 242.46 398.809 242.46C399.848 242.46 400.689 241.619 400.689 240.581C400.689 239.542 399.848 238.701 398.809 238.701C397.772 238.701 396.93 239.542 396.93 240.581Z" fill="#010001"/>
<path d="M409.236 240.305C409.236 241.19 409.954 241.909 410.84 241.909C411.726 241.909 412.445 241.19 412.445 240.305C412.445 239.42 411.726 238.701 410.84 238.701C409.954 238.701 409.236 239.42 409.236 240.305Z" fill="#010001"/>
<path d="M390.397 247.493C390.397 250.073 392.49 252.165 395.069 252.165C397.649 252.165 399.741 250.073 399.741 247.493C399.741 244.912 397.649 242.82 395.069 242.82C392.488 242.82 390.397 244.912 390.397 247.493Z" fill="#9E5656"/>
<path d="M412.76 243.937C413.045 243.937 413.32 243.974 413.585 244.037V248.883C413.585 249.607 413.558 250.307 413.411 250.989C413.216 251.022 412.965 251.048 412.76 251.048C410.797 251.048 409.204 249.456 409.204 247.493C409.204 245.529 410.797 243.937 412.76 243.937Z" fill="#9E5656"/>
<path d="M396.232 237.88C397.156 237.393 398.116 237.009 399.122 236.719C399.35 236.653 399.491 236.409 399.428 236.18C399.366 235.954 399.118 235.809 398.89 235.874C397.817 236.183 396.778 236.603 395.791 237.124C395.582 237.234 395.517 237.526 395.634 237.723C395.757 237.935 396.022 237.991 396.232 237.88Z" fill="#7F4040"/>
<path d="M409.204 237.525C410.238 237.486 411.279 237.527 412.306 237.667C412.539 237.699 412.777 237.611 412.844 237.361C412.9 237.157 412.774 236.854 412.538 236.823C411.432 236.672 410.321 236.607 409.204 236.649C408.968 236.658 408.766 236.844 408.766 237.087C408.766 237.317 408.967 237.533 409.204 237.525Z" fill="#7F4040"/>
<path d="M404.813 238.835C405.41 240.609 406.251 242.291 407.323 243.825C407.375 243.625 407.428 243.425 407.48 243.225C406.71 243.558 405.896 243.783 405.069 243.915C404.836 243.952 404.706 244.243 404.763 244.453C404.832 244.702 405.068 244.796 405.302 244.759C406.209 244.613 407.078 244.347 407.922 243.981C408.127 243.892 408.202 243.558 408.08 243.382C407.05 241.91 406.232 240.305 405.658 238.602C405.479 238.072 404.632 238.299 404.813 238.835Z" fill="#7F4040"/>
<path d="M381.254 220.837C388.023 214.011 397.831 213.468 406.963 218.95C416.094 224.431 415.892 233.408 415.349 234.689C415.026 235.448 414.574 236.019 413.614 236.213C412.772 236.319 411.353 236.165 408.822 235.627C401.539 234.076 396.931 227.766 396.931 227.766C396.931 227.766 397.55 228.904 395.07 234.178C393.21 238.135 388.482 240.581 386.067 241.591C385.323 240.581 383.517 239.185 381.323 239.101C379.752 239.041 377.967 239.909 376.81 240.797C374.963 237.211 375.025 227.119 381.254 220.837Z" fill="#161522"/>
<path d="M407.798 250.344C407.779 251.683 406.696 252.801 405.343 252.799C403.989 252.798 402.906 251.685 402.887 250.344C402.879 249.781 402.003 249.779 402.011 250.344C402.03 251.736 402.885 252.972 404.188 253.468C405.466 253.953 407 253.556 407.875 252.505C408.387 251.891 408.662 251.143 408.673 250.344C408.681 249.78 407.805 249.78 407.798 250.344Z" fill="#7F4040"/>
<path d="M452.236 372.223H412.191V376.216H452.236V372.223Z" fill="#161522"/>
<path d="M526.051 376.215H452.356C449.406 376.215 447.015 373.824 447.015 370.874V324.904C447.015 321.955 449.406 319.563 452.356 319.563H526.051C529.001 319.563 531.392 321.955 531.392 324.904V370.874C531.392 373.825 529.001 376.215 526.051 376.215Z" fill="#161522"/>
<path d="M495.757 347.831C495.757 351.888 492.468 355.176 488.411 355.176C484.354 355.176 481.066 351.888 481.066 347.831C481.066 343.774 484.354 340.486 488.411 340.486C492.468 340.487 495.757 343.775 495.757 347.831Z" stroke="white" stroke-miterlimit="10"/>
<path d="M701.893 502.388L678.318 476.667L696.611 461.14L720.689 487.41L701.893 502.388Z" fill="#F6C8A6"/>
<path d="M696.441 557.889L753.206 506.182L721.367 473.759L696.357 499.798L707.483 513.668L696.441 557.889Z" fill="#16004D"/>
<path d="M699.966 528.923C703.057 530.268 706.148 531.613 709.239 532.959C709.674 533.148 710.109 533.337 710.544 533.526C711.056 533.749 711.502 532.995 710.985 532.769C707.895 531.424 704.804 530.079 701.713 528.733C701.278 528.544 700.842 528.355 700.408 528.166C699.897 527.943 699.45 528.697 699.966 528.923Z" fill="white"/>
<path d="M702.595 521.315C705.686 522.66 708.777 524.005 711.867 525.351C712.302 525.54 712.738 525.729 713.172 525.918C713.684 526.141 714.13 525.387 713.615 525.161C710.524 523.816 707.433 522.471 704.342 521.125C703.908 520.936 703.472 520.747 703.037 520.558C702.526 520.335 702.078 521.089 702.595 521.315Z" fill="white"/>
<path d="M705.584 515.752C703.123 516.657 700.593 517.407 698.051 518.045C695.94 518.575 693.794 519.028 691.625 519.24C689.922 519.406 687.971 519.534 686.349 518.871C684.948 518.297 684.424 516.962 684.618 515.498C684.799 514.14 685.869 513.415 687.118 513.098C690.537 512.227 694.531 513.28 697.849 514.14C700.463 514.816 703.063 515.622 705.583 516.596C706.11 516.8 706.338 515.953 705.815 515.752C703.439 514.832 700.99 514.068 698.529 513.412C694.94 512.455 690.66 511.328 686.95 512.236C685.684 512.546 684.477 513.236 683.977 514.498C683.465 515.788 683.63 517.651 684.576 518.708C685.633 519.889 687.404 520.149 688.903 520.212C691.085 520.304 693.289 519.961 695.424 519.537C698.944 518.837 702.445 517.836 705.817 516.596C706.342 516.404 706.116 515.557 705.584 515.752Z" fill="white"/>
<path d="M689.372 505.438C694.247 508.647 699.123 511.856 703.999 515.065C704.703 515.529 705.408 515.991 706.112 516.455C706.584 516.766 707.023 516.008 706.555 515.698C701.679 512.489 696.803 509.28 691.927 506.071C691.223 505.608 690.519 505.144 689.814 504.681C689.341 504.371 688.902 505.129 689.372 505.438Z" fill="white"/>
<path d="M739.695 492.424C733.628 498.462 733.334 508.257 739.168 514.63C739.91 515.441 740.717 516.156 741.571 516.78L753.205 506.183L739.695 492.424Z" fill="white"/>
<path d="M625.062 307.933C625.062 307.933 596.711 373.999 602.484 398.544C608.257 423.089 646.48 461.604 683.986 492.424L711.04 461.913L678.317 405.399L692.738 314.112L626.042 309.508" fill="#2E4ECC"/>
<path d="M701.666 445.723L669.265 479.948" stroke="#16004D" stroke-miterlimit="10" stroke-linecap="round"/>
<path d="M623.285 433.829C639.122 453.045 661.681 474.096 683.986 492.425L711.041 461.914L678.317 405.4" stroke="#16004D" stroke-miterlimit="10" stroke-linecap="round"/>
<path d="M648.456 520.903L648.779 486.014L672.191 487.144L671.861 522.779L648.456 520.903Z" fill="#F6C8A6"/>
<path d="M602.484 556.385L679.267 556.574L677.676 511.161L641.646 513.481L640.488 531.223L602.484 556.385Z" fill="#16004D"/>
<path d="M624.684 537.491C626.053 540.564 627.421 543.637 628.79 546.71C628.987 547.149 629.182 547.589 629.378 548.028C629.607 548.542 630.363 548.097 630.135 547.586C628.766 544.512 627.398 541.439 626.029 538.367C625.833 537.928 625.638 537.487 625.441 537.048C625.211 536.535 624.457 536.98 624.684 537.491Z" fill="white"/>
<path d="M631.76 533.653C633.129 536.727 634.497 539.799 635.866 542.872C636.062 543.311 636.257 543.752 636.453 544.191C636.682 544.705 637.438 544.26 637.21 543.748C635.841 540.675 634.473 537.602 633.104 534.529C632.908 534.089 632.713 533.65 632.517 533.211C632.288 532.697 631.532 533.143 631.76 533.653Z" fill="white"/>
<path d="M637.597 531.445C635.292 530.502 632.754 529.266 630.471 528.026C628.596 527.008 626.752 525.91 625.039 524.634C623.669 523.613 622.176 522.397 621.408 520.831C620.747 519.484 621.207 518.221 622.278 517.233C623.269 516.318 624.528 516.382 625.677 516.961C627.167 517.709 628.385 518.967 629.469 520.207C630.773 521.696 631.922 523.318 633.003 524.974C634.494 527.262 635.887 529.641 637.102 532.09C637.352 532.595 638.109 532.152 637.859 531.649C636.73 529.372 635.443 527.161 634.075 525.021C632.942 523.249 631.731 521.517 630.37 519.914C629.211 518.548 627.898 517.17 626.308 516.304C625.1 515.647 623.676 515.355 622.418 516.053C621.185 516.736 620.106 518.257 620.195 519.703C620.294 521.329 621.522 522.721 622.649 523.781C624.25 525.287 626.116 526.514 628 527.633C630.99 529.409 634.144 530.972 637.365 532.291C637.886 532.504 638.113 531.657 637.597 531.445Z" fill="white"/>
<path d="M632.682 512.909C634.116 518.588 635.551 524.266 636.985 529.944C637.187 530.742 637.388 531.541 637.59 532.339C637.728 532.886 638.574 532.654 638.435 532.107C637 526.428 635.566 520.75 634.131 515.072C633.929 514.274 633.728 513.475 633.526 512.677C633.388 512.13 632.544 512.361 632.682 512.909Z" fill="white"/>
<path d="M678.592 537.304C670.039 537.66 663.21 544.686 663.21 553.327C663.21 554.425 663.322 555.497 663.532 556.535L679.268 556.573L678.592 537.304Z" fill="white"/>
<path d="M701.312 316.769C700.813 317.825 682.626 499.574 682.626 499.574H639.372L638.988 480.773L635.558 313.227L701.312 316.769Z" fill="#2E4ECC" stroke="#16004D" stroke-miterlimit="10" stroke-linecap="round"/>
<path d="M660.324 316.865C660.324 316.865 660.905 338.505 680.485 338.256" stroke="#16004D" stroke-miterlimit="10" stroke-linecap="round"/>
<path d="M663.137 481.282L668.251 334.387" stroke="#16004D" stroke-miterlimit="10" stroke-linecap="round"/>
<path d="M684.154 481.79L638.987 480.774" stroke="#16004D" stroke-miterlimit="10" stroke-linecap="round"/>
<path d="M547.154 201.164L530.957 179.144C530.957 179.144 527.921 179.042 525.983 176.306C524.045 173.572 523.459 170.578 524.78 169.272C526.101 167.966 526.781 168.271 526.781 168.271C526.781 168.271 527.532 168.153 527.766 167.001C528 165.849 529.964 164.981 529.964 164.981L530.956 165.07C530.956 165.07 531.345 165.042 531.65 163.872C531.955 162.703 534.103 161.862 534.103 161.862H534.991C534.991 161.862 531.11 153.484 530.956 150.62C530.802 147.754 533.315 145.492 536.029 148.757C538.744 152.022 542.503 160.37 542.503 160.37C542.503 160.37 545.878 159.314 548.336 162.542C550.795 165.77 558.846 178.951 558.846 178.951L563.159 189.361L547.154 201.164Z" fill="#F6C8A6"/>
<path d="M545.005 166.3C545.005 166.3 541.236 169.256 538.076 169.39C534.915 169.523 533.909 166.527 535.849 164.702C537.79 162.876 542.997 159.012 545.987 160.32C548.976 161.629 560.842 180.454 562.244 187.088" stroke="#EF8576" stroke-width="0.75" stroke-miterlimit="10" stroke-linecap="round"/>
<path d="M541.175 169.038C541.175 169.038 542.623 171.268 540.755 172.989C538.887 174.708 536.597 173.206 534.356 170.571C532.113 167.935 530.663 164.344 532.463 162.637C534.262 160.928 536.456 162.236 537.158 163.17" stroke="#EF8576" stroke-width="0.75" stroke-miterlimit="10" stroke-linecap="round"/>
<path d="M537.155 173.372C537.155 173.372 537.911 176.085 535.073 177.103C532.234 178.12 529.268 174.287 528.308 171.671C527.347 169.056 527.011 166.347 529.189 165.264C530.958 164.383 531.717 165.461 531.717 165.461" stroke="#EF8576" stroke-width="0.75" stroke-miterlimit="10" stroke-linecap="round"/>
<path d="M532.607 177.271C532.607 177.271 532.642 179.192 530.182 179.231C527.722 179.27 523.694 174.661 523.964 171.609C524.234 168.557 526.475 167.824 527.316 168.268" stroke="#EF8576" stroke-width="0.75" stroke-miterlimit="10" stroke-linecap="round"/>
<path d="M544.614 199.887L562.759 185.375L570.932 195.356L547.668 212.276L544.614 199.887Z" fill="white" stroke="#6FBBEF" stroke-miterlimit="10"/>
<path d="M569.665 189.282L541.723 211.192C541.723 211.192 548.088 260.356 579.978 273.893C611.869 287.429 636.034 274.925 640.52 254.893C645.005 234.86 652.817 209.749 652.817 209.749C652.817 209.749 629.25 224.451 608.849 219.815C588.45 215.178 569.665 189.282 569.665 189.282Z" fill="#EB3341"/>
<path d="M569.665 189.282L541.723 211.193C541.723 211.193 542.304 215.663 543.985 222.276L577.412 198.509C572.606 193.331 569.665 189.282 569.665 189.282Z" fill="white"/>
<path d="M565.286 192.716C567.276 195.109 570.13 198.592 572.758 201.817L573.695 201.151C571.508 198.467 568.4 194.665 566.189 192.008L565.286 192.716Z" fill="#16004D"/>
<path d="M550.065 204.651L549.141 205.375L553.928 215.205L554.875 214.532L550.065 204.651Z" fill="#16004D"/>
<path d="M548.871 218.801L544.996 208.625L544.051 209.367L547.905 219.488L548.871 218.801Z" fill="#16004D"/>
<path d="M560.955 196.112L560.051 196.82L566.951 205.945L567.886 205.281L560.955 196.112Z" fill="#16004D"/>
<path d="M554.416 201.239L559.962 210.915L560.902 210.246L555.327 200.524L554.416 201.239Z" fill="#16004D"/>
<path d="M652.817 209.75C652.817 209.75 629.25 224.452 608.849 219.816C588.449 215.179 569.665 189.283 569.665 189.283L541.723 211.193" stroke="#16004D" stroke-miterlimit="10" stroke-linecap="round"/>
<path d="M653.944 206.676C653.944 206.676 641.587 212.276 631.533 228.29C624.143 240.061 610.125 287.157 614.796 327.561L707.477 329.286L700.296 247.35L671.09 206.676H653.944Z" fill="#EB3341"/>
<path d="M614.797 327.561L707.479 329.286L706.239 315.148L613.898 313.38C613.978 318.154 614.259 322.902 614.797 327.561Z" fill="white"/>
<path d="M642.273 313.925L641.126 313.903V328.051L642.273 328.072V313.925Z" fill="#16004D"/>
<path d="M650.858 314.09L649.71 314.067L649.385 328.205L650.532 328.226L650.858 314.09Z" fill="#16004D"/>
<path d="M658.036 314.226L656.889 314.204V328.344L658.036 328.365V314.226Z" fill="#16004D"/>
<path d="M626.418 313.621L625.267 313.599L626.101 327.772L627.251 327.793L626.418 313.621Z" fill="#16004D"/>
<path d="M619.014 327.64L620.163 327.661C619.884 322.341 619.593 316.769 619.429 313.488L618.279 313.466C618.451 316.874 618.755 322.7 619.014 327.64Z" fill="#16004D"/>
<path d="M634.206 313.771L633.059 313.748L632.865 327.897L634.012 327.919L634.206 313.771Z" fill="#16004D"/>
<path d="M689.497 314.828L688.35 314.807V328.93L689.497 328.952V314.828Z" fill="#16004D"/>
<path d="M695.548 314.945L694.402 314.922L694.47 329.044L695.617 329.065L695.548 314.945Z" fill="#16004D"/>
<path d="M703.043 315.087L701.89 315.065L703.128 329.205L704.281 329.226L703.043 315.087Z" fill="#16004D"/>
<path d="M682.715 314.698L681.568 314.677V328.803L682.715 328.826V314.698Z" fill="#16004D"/>
<path d="M674.172 314.535L673.025 314.514V328.645L674.172 328.667V314.535Z" fill="#16004D"/>
<path d="M665.476 314.369L664.327 314.347L664.769 328.492L665.917 328.513L665.476 314.369Z" fill="#16004D"/>
<path d="M653.944 206.676C653.944 206.676 641.587 212.276 631.533 228.29C624.143 240.061 610.125 287.157 614.796 327.561L707.477 329.286L700.296 247.35L671.09 206.676H653.944Z" stroke="#16004D" stroke-miterlimit="10"/>
<path d="M682.885 308.176C682.885 308.176 658.514 308.158 645.391 300.363C632.268 292.569 643.608 288.955 646.533 289.033C649.458 289.111 681.561 290.89 681.561 290.89L682.885 308.176Z" fill="#F6C8A6"/>
<path d="M648.058 291.634C648.058 291.634 649.872 297.385 660.339 297.546" stroke="#EF8576" stroke-width="0.75" stroke-miterlimit="10" stroke-linecap="round"/>
<path d="M641.699 292.832C641.699 292.832 642.171 297.599 654.971 300.363" stroke="#EF8576" stroke-width="0.75" stroke-miterlimit="10" stroke-linecap="round"/>
<path d="M686.645 287.679L679.682 289.283L680.819 309.916L692.542 311.135L686.645 287.679Z" fill="white" stroke="#6FBBEF" stroke-miterlimit="10"/>
<path d="M671.091 206.676L686.645 252.378C686.645 252.378 704.533 266.185 711.144 274.566L685.353 285.443L687.945 311.909C687.945 311.909 755.452 339.645 758.56 282.426C761.666 225.207 671.091 206.676 671.091 206.676Z" fill="#EB3341"/>
<path d="M687.944 311.909L699.034 315.478L695.728 281.067L685.353 285.443L687.944 311.909Z" fill="white"/>
<path d="M686.704 293.353L696.823 292.457L696.713 291.314L686.02 292.26L686.698 299.175L697.379 298.24L697.269 297.098L687.16 297.983L686.704 293.353Z" fill="#16004D"/>
<path d="M697.905 303.719L687.214 304.444L687.806 310.495L698.65 311.472L698.538 310.311L688.274 309.385L687.897 305.547L698.015 304.861L697.905 303.719Z" fill="#16004D"/>
<path d="M685.623 288.205L696.182 285.789L696.072 284.638L685.511 287.054L685.623 288.205Z" fill="#16004D"/>
<path d="M728.429 267.275L685.353 285.443L687.945 311.909C687.945 311.909 755.452 339.645 758.56 282.426C759.585 263.566 750.43 248.909 737.697 237.733" stroke="#16004D" stroke-miterlimit="10" stroke-linecap="round"/>
<path d="M686.645 252.377C686.645 252.377 704.533 266.184 711.144 274.564" stroke="#16004D" stroke-miterlimit="10" stroke-linecap="round"/>
<path d="M589.396 294.08L640.32 294.174C645.606 294.183 648.339 290.081 646.425 285.011L633.076 249.667C631.162 244.597 625.323 240.479 620.037 240.469L569.113 240.376C563.828 240.367 561.094 244.468 563.009 249.539L576.357 284.884C578.272 289.953 584.11 294.071 589.396 294.08Z" fill="#161522"/>
<path d="M594.477 264.469C595.457 268.154 599.237 271.146 602.919 271.152C606.603 271.159 608.793 268.177 607.813 264.494C606.833 260.81 603.053 257.817 599.371 257.811C595.687 257.803 593.497 260.784 594.477 264.469Z" stroke="white" stroke-miterlimit="10"/>
<path d="M626.448 294.148L674.267 294.236C675.903 294.239 677.232 292.916 677.234 291.279L677.238 289.585C677.241 287.95 675.918 286.621 674.281 286.618L626.461 286.531C624.826 286.527 623.497 287.852 623.494 289.487L623.49 291.181C623.488 292.817 624.813 294.146 626.448 294.148Z" fill="#161522"/>
<path d="M671.627 189.814C671.68 189.439 671.722 189.061 671.744 188.676L672.527 175.007C672.909 168.334 668.425 162.598 662.562 162.263L653.745 161.758C647.884 161.423 642.774 166.609 642.392 173.283L641.61 186.951C641.228 193.626 645.711 199.361 651.573 199.696L656.034 199.952L655.958 205.375C655.925 207.703 657.786 209.617 660.114 209.65L667.254 209.75C669.582 209.783 671.495 207.922 671.528 205.594C671.528 205.594 671.699 190.222 671.627 189.814Z" fill="#F6C8A6"/>
<path d="M671.091 181.766C671.091 181.766 669.756 170.136 669.122 171.806C668.218 174.189 667.539 187.629 664.865 188.66C661.327 190.026 660.396 184.052 653.464 183.418C646.532 182.783 641.613 185.446 640.916 188.226C640.485 189.942 639.35 194.717 644.869 198.501C649.586 201.734 656.784 201.227 656.784 201.227C656.784 201.227 663.522 200.798 666.63 196.906C669.863 192.856 671.091 181.766 671.091 181.766Z" fill="#A66957"/>
<path d="M659.781 178.758C659.718 179.856 658.778 180.695 657.68 180.632C656.582 180.569 655.743 179.628 655.806 178.53C655.869 177.433 656.81 176.593 657.908 176.657C659.004 176.72 659.843 177.66 659.781 178.758Z" fill="#020202"/>
<path d="M646.786 177.722C646.732 178.659 645.929 179.375 644.993 179.321C644.056 179.267 643.34 178.465 643.393 177.527C643.447 176.59 644.25 175.874 645.186 175.928C646.122 175.983 646.838 176.785 646.786 177.722Z" fill="#020202"/>
<path d="M648.218 185.963C648.218 185.963 649.05 188.93 651.15 189.251C653.25 189.571 655.039 187.326 655.258 185.507L648.218 185.963Z" fill="white"/>
<path d="M650.068 176.25C649.373 177.884 648.502 179.437 647.469 180.882C647.316 181.095 647.464 181.484 647.731 181.525C648.458 181.637 649.186 181.751 649.914 181.863C650.148 181.899 650.385 181.803 650.452 181.557C650.51 181.349 650.381 181.055 650.146 181.018C649.419 180.906 648.691 180.794 647.963 180.681C648.051 180.896 648.137 181.109 648.225 181.324C649.258 179.879 650.129 178.327 650.824 176.693C650.916 176.475 650.889 176.223 650.667 176.093C650.483 175.985 650.162 176.03 650.068 176.25Z" fill="#EF8576"/>
<path d="M660.712 175.902C660.056 175.521 659.355 175.215 658.632 174.99C658.413 174.922 658.145 175.07 658.093 175.296C658.04 175.534 658.165 175.762 658.399 175.834C658.571 175.888 658.742 175.946 658.911 176.009C658.99 176.039 659.069 176.069 659.146 176.101C659.163 176.108 659.308 176.166 659.208 176.125C659.246 176.141 659.285 176.158 659.323 176.175C659.648 176.319 659.963 176.48 660.271 176.658C660.469 176.773 660.759 176.71 660.87 176.501C660.981 176.292 660.925 176.025 660.712 175.902Z" fill="#7F4040"/>
<path d="M646.244 174.137C645.549 174.132 644.854 174.172 644.163 174.256C643.937 174.284 643.713 174.437 643.725 174.694C643.735 174.908 643.919 175.161 644.163 175.132C644.854 175.048 645.547 175.008 646.244 175.013C646.473 175.014 646.692 174.811 646.682 174.575C646.671 174.337 646.489 174.138 646.244 174.137Z" fill="#7F4040"/>
<path d="M669.686 184.121L668.671 173.322C668.671 173.322 637.092 178.776 635.813 161.498C635 150.522 648.777 145.978 658.774 152.019C658.774 152.019 678.403 151.316 684.326 163.508C690.25 175.7 684.39 184.262 671.62 195.778L671.742 188.676L669.686 184.121Z" fill="#A66957"/>
<path d="M682.744 185.766C682.463 189.31 679.339 191.953 675.766 191.669C672.193 191.386 669.525 188.283 669.805 184.739C670.085 181.195 673.21 178.551 676.783 178.835C680.357 179.119 683.026 182.222 682.744 185.766Z" fill="#F6C8A6"/>
<path d="M673.205 185.842C673.205 185.804 673.209 185.766 673.211 185.728C673.214 185.69 673.217 185.651 673.221 185.611C673.226 185.552 673.253 185.386 673.228 185.54C673.282 185.212 673.348 184.889 673.458 184.574C673.473 184.532 673.488 184.489 673.504 184.447C673.514 184.423 673.58 184.265 673.53 184.38C673.573 184.282 673.618 184.186 673.668 184.092C673.717 183.999 673.77 183.909 673.827 183.821C673.854 183.779 673.883 183.737 673.912 183.696C673.928 183.672 673.946 183.65 673.962 183.627C673.98 183.602 673.917 183.678 673.979 183.607C674.052 183.523 674.123 183.439 674.203 183.362C674.246 183.319 674.289 183.279 674.335 183.24C674.354 183.224 674.372 183.209 674.39 183.193C674.482 183.115 674.319 183.244 674.417 183.171C674.514 183.1 674.614 183.034 674.719 182.976C674.771 182.947 674.823 182.92 674.876 182.894C674.906 182.88 674.937 182.866 674.967 182.852C674.995 182.839 674.991 182.842 674.956 182.857C674.982 182.846 675.008 182.837 675.033 182.828C675.723 182.588 676.401 182.585 677.149 182.723C677.381 182.766 677.621 182.658 677.688 182.417C677.746 182.204 677.615 181.921 677.381 181.878C676.022 181.628 674.544 181.753 673.532 182.793C672.906 183.435 672.543 184.31 672.401 185.187C672.365 185.402 672.333 185.624 672.329 185.843C672.32 186.406 673.196 186.406 673.205 185.842Z" fill="#EF8576"/>
<path d="M667.802 208.376C667.802 209.931 665.055 211.192 661.667 211.192C658.278 211.192 655.531 209.931 655.531 208.376C655.531 206.822 658.279 205.56 661.667 205.56C665.055 205.56 667.802 206.822 667.802 208.376Z" fill="#EB3341" stroke="#16004D" stroke-miterlimit="10"/>
<path d="M655.806 203.531C655.806 203.531 658.148 204.933 662.165 205.12C666.183 205.306 670.042 203.714 671.569 201.661L675.016 208.514L663.878 214.245L659.845 206.675L654.504 213.154L652.005 208.111C652.005 208.111 653.477 206.357 655.806 203.531Z" fill="white" stroke="#6FBBEF" stroke-miterlimit="10"/>
<path d="M92.2621 383.428H81.9509V557.926H92.2621V383.428Z" fill="white" stroke="#16004D" stroke-miterlimit="10"/>
<path d="M550.333 383.428H540.022V557.926H550.333V383.428Z" fill="white" stroke="#16004D" stroke-miterlimit="10"/>
<path d="M586.018 375.631H46.2665V387.255H586.018V375.631Z" fill="white" stroke="#16004D" stroke-miterlimit="10"/>
<path d="M11.6404 558.936C18.6142 558.936 25.5891 558.936 32.5629 558.936C51.3724 558.936 70.1818 558.936 88.9912 558.936C116.878 558.936 144.765 558.936 172.651 558.936C206.674 558.936 240.698 558.936 274.72 558.936C311.855 558.936 348.989 558.936 386.124 558.936C423.863 558.936 461.603 558.936 499.343 558.936C534.291 558.936 569.24 558.936 604.188 558.936C633.827 558.936 663.467 558.936 693.107 558.936C714.416 558.936 735.727 558.936 757.036 558.936C767.104 558.936 777.185 559.081 787.252 558.936C787.693 558.93 788.133 558.936 788.573 558.936C790.453 558.936 790.455 556.015 788.573 556.015C781.6 556.015 774.625 556.015 767.651 556.015C748.841 556.015 730.032 556.015 711.223 556.015C683.336 556.015 655.449 556.015 627.563 556.015C593.539 556.015 559.516 556.015 525.494 556.015C488.359 556.015 451.225 556.015 414.09 556.015C376.35 556.015 338.61 556.015 300.871 556.015C265.923 556.015 230.974 556.015 196.026 556.015C166.386 556.015 136.747 556.015 107.107 556.015C85.7975 556.015 64.4871 556.015 43.1778 556.015C33.1096 556.015 23.0286 555.87 12.9604 556.015C12.52 556.021 12.0796 556.015 11.6392 556.015C9.76082 556.015 9.75732 558.936 11.6404 558.936Z" fill="#161522"/>
<path d="M285.538 367.785L293.268 313.883C293.583 311.683 291.876 309.715 289.655 309.715H227.108C225.319 309.715 223.795 311.01 223.505 312.775L215.348 362.571C215 364.698 216.56 366.663 218.712 366.803L281.687 370.91C283.59 371.034 285.267 369.673 285.538 367.785Z" fill="#16004D"/>
<path d="M280.694 363.077L287.077 318.566C287.381 316.437 285.731 314.532 283.58 314.532H231.756C230.026 314.532 228.55 315.786 228.27 317.493L221.536 358.601C221.198 360.66 222.71 362.561 224.791 362.697L276.966 366.1C278.808 366.219 280.432 364.902 280.694 363.077Z" fill="#6FBBEF"/>
<path d="M153.041 226.748L144.144 226.41C138.23 226.186 133.181 231.512 132.925 238.246L132.402 252.037C132.387 252.426 132.393 252.809 132.41 253.191C132.299 253.594 132.227 254.013 132.21 254.448L131.891 262.843L131.874 263.31L131.555 271.706C131.439 274.752 133.838 277.339 136.884 277.454L140.413 277.589C143.46 277.704 146.046 275.306 146.161 272.26L146.443 264.83L151.587 265.025C157.502 265.25 162.551 259.923 162.806 253.19L163.33 239.399C163.585 232.665 158.955 226.972 153.041 226.748Z" fill="#F6C8A6"/>
<path d="M157.337 244.86C157.77 245.805 157.356 246.923 156.411 247.356C155.466 247.789 154.348 247.375 153.914 246.43C153.481 245.485 153.896 244.367 154.841 243.933C155.786 243.5 156.904 243.915 157.337 244.86Z" fill="#161522"/>
<path d="M162.799 243.353C163.409 245.501 164.068 247.738 165.598 249.363C165.644 249.411 165.693 249.466 165.695 249.531C165.699 249.625 165.613 249.692 165.535 249.744C164.671 250.316 163.751 250.803 162.793 251.198" fill="#F6C8A6"/>
<path d="M162.378 243.47C162.821 245.034 163.283 246.621 164.094 248.042C164.283 248.373 164.493 248.693 164.724 248.998C164.851 249.164 164.979 249.327 165.117 249.483C165.144 249.513 165.251 249.67 165.29 249.674C165.395 249.39 165.384 249.301 165.257 249.406C165.217 249.432 165.178 249.457 165.138 249.483C164.358 249.984 163.534 250.421 162.679 250.779C162.166 250.992 162.392 251.84 162.911 251.623C163.817 251.245 164.692 250.805 165.521 250.277C165.859 250.063 166.267 249.787 166.086 249.325C165.939 248.95 165.527 248.633 165.293 248.3C164.234 246.791 163.721 244.99 163.222 243.238C163.068 242.695 162.222 242.925 162.378 243.47Z" fill="#101010"/>
<path d="M155.877 240.67C154.703 241.409 153.541 242.166 152.388 242.938C152.134 243.107 152 243.46 152.179 243.737C152.341 243.989 152.707 244.128 152.978 243.946C154.131 243.174 155.293 242.417 156.467 241.678C156.725 241.515 156.851 241.15 156.676 240.879C156.509 240.62 156.154 240.495 155.877 240.67Z" fill="#161522"/>
<path d="M168.059 211.899C162.749 209.377 154.641 221.404 154.641 221.404C154.641 221.404 159.83 213.53 153.897 211.696C147.964 209.862 140.961 220.846 140.961 220.846C140.961 220.846 117.824 224.224 118.962 245.676C118.962 245.676 119.297 257.896 131.934 261.739L132.358 248.581L134.169 247.327L135.42 251.61C135.42 251.61 140.411 252.697 143.659 244.792C148.99 243.572 156.553 240.82 163.866 234.59C177.16 223.268 173.37 214.421 168.059 211.899Z" fill="#16004D"/>
<path d="M124.293 251.148C124.376 254.922 127.528 257.915 131.333 257.831C135.139 257.748 138.156 254.619 138.073 250.845C137.99 247.071 134.839 244.078 131.033 244.162C127.227 244.245 124.21 247.373 124.293 251.148Z" fill="#F6C8A6"/>
<path d="M135.305 251.833C135.374 250.184 134.56 248.351 132.992 247.67C132.147 247.303 131.217 247.253 130.312 247.366C130.077 247.396 129.874 247.546 129.874 247.804C129.874 248.018 130.076 248.272 130.312 248.242C131.061 248.148 131.761 248.149 132.455 248.393C132.662 248.467 132.901 248.591 133.141 248.758C133.162 248.772 133.182 248.787 133.202 248.802C133.124 248.742 133.222 248.818 133.231 248.826C133.278 248.866 133.325 248.907 133.369 248.949C133.465 249.039 133.553 249.137 133.638 249.238C133.653 249.255 133.667 249.274 133.682 249.293C133.617 249.21 133.688 249.302 133.697 249.315C133.73 249.362 133.763 249.408 133.794 249.457C133.859 249.557 133.917 249.659 133.972 249.763C133.995 249.808 134.016 249.852 134.037 249.897C134.053 249.928 134.114 250.073 134.072 249.97C134.117 250.076 134.156 250.185 134.193 250.295C134.256 250.488 134.306 250.685 134.345 250.884C134.361 250.968 134.375 251.053 134.388 251.137C134.408 251.261 134.378 251.041 134.391 251.162C134.396 251.205 134.402 251.249 134.405 251.292C134.423 251.471 134.436 251.652 134.429 251.832C134.405 252.398 135.281 252.396 135.305 251.833Z" fill="#EF8576"/>
<path d="M148.417 255.64C150.982 255.64 153.061 253.561 153.061 250.997C153.061 248.433 150.982 246.354 148.417 246.354C145.853 246.354 143.774 248.433 143.774 250.997C143.774 253.561 145.853 255.64 148.417 255.64Z" fill="#EF8576"/>
<path d="M154.96 255.64C154.96 255.64 157.095 260.141 160.882 259.655L154.96 255.64Z" fill="#F6C8A6"/>
<path d="M154.96 255.64C154.96 255.64 157.095 260.141 160.882 259.655" stroke="#101010" stroke-width="0.75" stroke-miterlimit="10" stroke-linecap="round"/>
<path d="M118.922 280.023L126.885 268.928H150.637L155.093 280.245L118.922 280.023Z" fill="white"/>
<path d="M101.903 310.508L101.008 375.114L262.557 377.238V357.678L206.076 344.711C206.076 344.711 194.434 319.45 176.423 295.978C158.413 272.505 136.145 274.328 121.857 278.33C105.426 282.933 90.6875 300.287 89.1596 327.048C87.4249 357.415 87.5802 375.113 87.5802 375.113H99.4427" fill="white"/>
<path d="M101.903 310.508L101.008 375.114L262.557 377.238V357.678L206.077 344.711C206.077 344.711 194.434 319.45 176.423 295.978C158.413 272.505 136.145 274.328 121.857 278.33C105.426 282.933 90.6875 300.287 89.1596 327.048C87.4249 357.415 87.5802 375.113 87.5802 375.113H99.4427" stroke="#16004D" stroke-miterlimit="10" stroke-linecap="round"/>
<path d="M255.02 355.948L253.69 377.121" stroke="#16004D" stroke-miterlimit="10" stroke-linecap="round"/>
<path d="M119.256 278.976L126.885 268.928H150.636L154.887 278.976" stroke="#16004D" stroke-miterlimit="10" stroke-linecap="round"/>
<path d="M156.254 314.532C156.254 314.532 155.589 371.705 180.033 376.568" stroke="#16004D" stroke-miterlimit="10" stroke-linecap="round"/>
<path d="M184.633 486.683L174.887 525.891L155.32 514.877L163.849 480.794L184.633 486.683Z" fill="#F6C8A6"/>
<path d="M200.962 557.745L143.873 533.637L152.579 508.321L181.442 521.22L180.681 527.055L200.962 557.745Z" fill="#16004D"/>
<path d="M189.713 535.901C187.723 537.755 185.731 539.609 183.741 541.464C183.46 541.724 183.18 541.986 182.899 542.246C182.21 542.888 183.244 543.919 183.932 543.279C185.923 541.425 187.914 539.571 189.905 537.716C190.185 537.456 190.466 537.194 190.746 536.934C191.435 536.292 190.4 535.261 189.713 535.901Z" fill="white"/>
<path d="M185.669 530.816C183.679 532.67 181.687 534.524 179.696 536.379C179.416 536.64 179.136 536.901 178.855 537.161C178.166 537.803 179.2 538.834 179.888 538.194C181.878 536.34 183.87 534.486 185.861 532.631C186.141 532.37 186.421 532.109 186.702 531.849C187.391 531.206 186.357 530.176 185.669 530.816Z" fill="white"/>
<path d="M162.09 413.118L162.104 413.139L140.312 490.015L197.357 520.87C197.357 520.87 225.845 439.987 228.262 413.116H162.09V413.118Z" fill="#2E4ECC"/>
<path d="M197.359 520.872L140.314 490.016L162.105 413.139L138.402 378.313L170.67 352.534" stroke="#16004D" stroke-miterlimit="10" stroke-linecap="round"/>
<path d="M245.875 497.372L251.96 537.312L229.661 534.673L224.424 499.93L245.875 497.372Z" fill="#F6C8A6"/>
<path d="M288.282 556.687L226.311 556.393L224.61 529.675L256.213 530.48L257.756 536.158L288.282 556.687Z" fill="#16004D"/>
<path d="M269.54 540.759C268.418 543.231 267.295 545.704 266.173 548.176C266.013 548.53 265.851 548.884 265.691 549.237C265.529 549.595 265.588 550.023 265.953 550.235C266.266 550.419 266.788 550.335 266.952 549.974C268.074 547.502 269.197 545.029 270.319 542.557C270.481 542.203 270.641 541.849 270.801 541.497C270.964 541.138 270.904 540.71 270.539 540.498C270.226 540.314 269.704 540.398 269.54 540.759Z" fill="white"/>
<path d="M263.851 537.62C262.729 540.092 261.606 542.565 260.484 545.037C260.324 545.391 260.162 545.745 260.002 546.099C259.84 546.457 259.9 546.884 260.264 547.098C260.577 547.281 261.099 547.197 261.263 546.836C262.385 544.364 263.508 541.891 264.631 539.419C264.791 539.065 264.952 538.711 265.112 538.359C265.274 538 265.215 537.572 264.85 537.36C264.537 537.175 264.015 537.259 263.851 537.62Z" fill="white"/>
<path d="M173.438 385.845C173.438 385.845 240.504 390.763 250.787 410.883C261.07 431.002 273.142 524.08 273.142 524.08L208.312 522.251L193.111 443.805L156.255 423.402L173.438 385.845Z" fill="#2E4ECC"/>
<path d="M273.142 524.079L208.312 522.25L193.11 443.803L156.254 423.401L173.439 385.845" stroke="#16004D" stroke-miterlimit="10" stroke-linecap="round"/>
<path d="M138.237 516.955H147.372V457.651H138.237V516.955Z" fill="white" stroke="#16004D" stroke-miterlimit="10"/>
<path d="M140.78 535.89H144.828C147.597 535.89 149.84 533.646 149.84 530.879V490.251C149.84 487.483 147.596 485.24 144.828 485.24H140.78C138.012 485.24 135.768 487.484 135.768 490.251V530.879C135.768 533.646 138.012 535.89 140.78 535.89Z" fill="#6FBBEF"/>
<path d="M106.76 531.649H109H176.609H181.924V537.745V544.604H176.609V537.745H109V544.604H103.685V537.745V531.649H106.76Z" fill="#6FBBEF"/>
<path d="M98.1402 548.107C98.1402 552.61 101.791 556.26 106.294 556.26C110.797 556.26 114.446 552.61 114.446 548.107C114.446 543.603 110.796 539.954 106.294 539.954C101.791 539.953 98.1402 543.603 98.1402 548.107Z" fill="white" stroke="#16004D" stroke-miterlimit="10"/>
<path d="M103.169 548.107C103.169 549.832 104.567 551.23 106.293 551.23C108.018 551.23 109.416 549.832 109.416 548.107C109.416 546.381 108.018 544.983 106.293 544.983C104.568 544.982 103.169 546.381 103.169 548.107Z" fill="#16004D"/>
<path d="M171.394 548.107C171.394 552.61 175.045 556.26 179.548 556.26C184.051 556.26 187.702 552.61 187.702 548.107C187.702 543.603 184.051 539.954 179.548 539.954C175.045 539.953 171.394 543.603 171.394 548.107Z" fill="white" stroke="#16004D" stroke-miterlimit="10"/>
<path d="M176.423 548.107C176.423 549.832 177.821 551.23 179.547 551.23C181.272 551.23 182.67 549.832 182.67 548.107C182.67 546.381 181.272 544.983 179.547 544.983C177.821 544.983 176.423 546.381 176.423 548.107Z" fill="#16004D"/>
<path d="M148.688 464.221C132.387 464.249 108.446 462.919 84.0372 445.919C59.6289 428.92 71.1795 414.318 72.4866 393.833C73.7938 373.347 49.3855 343.271 76.4093 329.323C103.433 315.376 164.02 329.323 182.763 363.758C201.505 398.192 190.608 408.653 209.351 416.498C228.094 424.343 228.094 439.164 213.709 450.06C199.325 460.956 168.347 464.187 148.688 464.221Z" fill="#6FBBEF"/>
<path d="M213.709 450.06C199.326 460.956 168.345 464.188 148.688 464.221C132.387 464.249 108.446 462.919 84.0372 445.919" stroke="#16004D" stroke-miterlimit="10" stroke-linecap="round"/>
<circle cx="155.83" cy="244.954" r="4.75664" stroke="white"/>
<path d="M137.724 248.459L150.573 244.954M160.503 243.786C160.697 243.202 161.437 242.034 162.839 242.034" stroke="white" stroke-linecap="round"/>
</svg>
