<svg width="294" height="196" viewBox="0 0 294 196" fill="none" xmlns="http://www.w3.org/2000/svg">
<path d="M177.968 155.232H245.98C247.28 155.232 248.526 154.716 249.445 153.797C250.364 152.878 250.88 151.632 250.88 150.332V24.5001C250.88 23.2005 250.364 21.9542 249.445 21.0353C248.526 20.1163 247.28 19.6001 245.98 19.6001H49.196C47.8965 19.6001 46.6501 20.1163 45.7312 21.0353C44.8123 21.9542 44.296 23.2005 44.296 24.5001V150.332C44.296 151.632 44.8123 152.878 45.7312 153.797C46.6501 154.716 47.8965 155.232 49.196 155.232H117.208" stroke="black" stroke-linecap="round" stroke-linejoin="round"/>
<path d="M246.176 25.0881H48.608V140.728H246.176V25.0881Z" stroke="black" stroke-linecap="round" stroke-linejoin="round"/>
<path d="M177.968 155.232H117.208V168.933H177.968V155.232Z" stroke="black" stroke-linecap="round" stroke-linejoin="round"/>
<path d="M177.968 168.933H188.552V174.162H106.624V168.933H117.208" stroke="black" stroke-linecap="round" stroke-linejoin="round"/>
<path d="M78.153 61.7399H62.767V41.2266H74.8563L78.153 44.4488V61.7399Z" fill="white" stroke="#263238" stroke-linecap="round" stroke-linejoin="round"/>
<path d="M75.2719 44.1116V44.9505L78.153 44.4526L75.2719 44.1116Z" fill="#263238" stroke="#263238" stroke-linecap="round" stroke-linejoin="round"/>
<path d="M74.8563 41.2266V44.4527H78.153L74.8563 41.2266Z" fill="white" stroke="#263238" stroke-linecap="round" stroke-linejoin="round"/>
<path d="M64.7231 45.6836H76.5655" stroke="#263238" stroke-linecap="round" stroke-linejoin="round"/>
<path d="M64.7231 48.6157H76.5655" stroke="#263238" stroke-linecap="round" stroke-linejoin="round"/>
<path d="M64.7231 51.5439H76.5655" stroke="#263238" stroke-linecap="round" stroke-linejoin="round"/>
<path d="M64.7231 54.4761H76.5655" stroke="#263238" stroke-linecap="round" stroke-linejoin="round"/>
<path d="M64.7231 57.4043H76.5655" stroke="#263238" stroke-linecap="round" stroke-linejoin="round"/>
<path d="M34.7037 86.53H40.2153" stroke="#263238" stroke-linecap="round" stroke-linejoin="round"/>
<path d="M28.6121 86.53H33.7081" stroke="#263238" stroke-linecap="round" stroke-linejoin="round"/>
<path d="M38.0828 88.2705H40.2152" stroke="#263238" stroke-linecap="round" stroke-linejoin="round"/>
<path d="M28.6121 88.2705H37.0871" stroke="#263238" stroke-linecap="round" stroke-linejoin="round"/>
<path d="M39.3763 90.011H40.2152" stroke="#263238" stroke-linecap="round" stroke-linejoin="round"/>
<path d="M34.8018 90.011H37.9848" stroke="#263238" stroke-linecap="round" stroke-linejoin="round"/>
<path d="M28.6121 90.011H33.908" stroke="#263238" stroke-linecap="round" stroke-linejoin="round"/>
<path d="M28.6121 91.7515H40.2153" stroke="#263238" stroke-linecap="round" stroke-linejoin="round"/>
<path d="M38.2827 93.4919H40.2153" stroke="#263238" stroke-linecap="round" stroke-linejoin="round"/>
<path d="M31.6226 93.4919H36.2952" stroke="#263238" stroke-linecap="round" stroke-linejoin="round"/>
<path d="M28.6121 93.4919H30.231" stroke="#263238" stroke-linecap="round" stroke-linejoin="round"/>
<path d="M33.908 95.2324H40.2152" stroke="#263238" stroke-linecap="round" stroke-linejoin="round"/>
<path d="M28.6121 95.2324H32.8143" stroke="#263238" stroke-linecap="round" stroke-linejoin="round"/>
<path d="M37.0872 96.9729H40.2153" stroke="#263238" stroke-linecap="round" stroke-linejoin="round"/>
<path d="M34.006 96.9729H36.1933" stroke="#263238" stroke-linecap="round" stroke-linejoin="round"/>
<path d="M28.6121 96.9729H32.8143" stroke="#263238" stroke-linecap="round" stroke-linejoin="round"/>
<path d="M70.0347 109.925H57.3457V93.0059H67.3143L70.0347 95.6597V109.925Z" fill="white" stroke="#263238" stroke-linecap="round" stroke-linejoin="round"/>
<path d="M67.6553 95.3853V96.0752L70.0347 95.6636L67.6553 95.3853Z" fill="#263238" stroke="#263238" stroke-linecap="round" stroke-linejoin="round"/>
<path d="M67.3142 93.0059V95.6636H70.0347L67.3142 93.0059Z" fill="white" stroke="#263238" stroke-linecap="round" stroke-linejoin="round"/>
<path d="M58.9568 96.679H68.7254" stroke="#263238" stroke-linecap="round" stroke-linejoin="round"/>
<path d="M58.9568 99.0974H68.7254" stroke="#263238" stroke-linecap="round" stroke-linejoin="round"/>
<path d="M58.9568 101.516H68.7254" stroke="#263238" stroke-linecap="round" stroke-linejoin="round"/>
<path d="M58.9568 103.931H68.7254" stroke="#263238" stroke-linecap="round" stroke-linejoin="round"/>
<path d="M58.9568 106.35H68.7254" stroke="#263238" stroke-linecap="round" stroke-linejoin="round"/>
<path d="M56.695 63.6371H41.309V43.1238H53.3982L56.695 46.3421V63.6371Z" fill="white" stroke="#263238" stroke-linecap="round" stroke-linejoin="round"/>
<path d="M53.8098 46.009V46.8479L56.6949 46.3462L53.8098 46.009Z" fill="#263238" stroke="#263238" stroke-linecap="round" stroke-linejoin="round"/>
<path d="M53.3982 43.1238V46.346H56.6949L53.3982 43.1238Z" fill="white" stroke="#263238" stroke-linecap="round" stroke-linejoin="round"/>
<path d="M43.2611 47.5808H55.1073" stroke="#263238" stroke-linecap="round" stroke-linejoin="round"/>
<path d="M43.2611 50.509H55.1073" stroke="#263238" stroke-linecap="round" stroke-linejoin="round"/>
<path d="M43.2611 53.4414H55.1073" stroke="#263238" stroke-linecap="round" stroke-linejoin="round"/>
<path d="M43.2611 56.3735H55.1073" stroke="#263238" stroke-linecap="round" stroke-linejoin="round"/>
<path d="M43.2611 59.3018H55.1073" stroke="#263238" stroke-linecap="round" stroke-linejoin="round"/>
<path d="M89.6465 73.0217H74.2605V52.5044H86.3498L89.6465 55.7266V73.0217Z" fill="white" stroke="#263238" stroke-linecap="round" stroke-linejoin="round"/>
<path d="M86.7653 55.3894V56.2322L89.6465 55.7304L86.7653 55.3894Z" fill="#263238" stroke="#263238" stroke-linecap="round" stroke-linejoin="round"/>
<path d="M86.3497 52.5044V55.7306H89.6465L86.3497 52.5044Z" fill="white" stroke="#263238" stroke-linecap="round" stroke-linejoin="round"/>
<path d="M76.2166 56.9653H88.0589" stroke="#263238" stroke-linecap="round" stroke-linejoin="round"/>
<path d="M76.2166 59.8936H88.0589" stroke="#263238" stroke-linecap="round" stroke-linejoin="round"/>
<path d="M76.2166 62.8257H88.0589" stroke="#263238" stroke-linecap="round" stroke-linejoin="round"/>
<path d="M76.2166 65.7539H88.0589" stroke="#263238" stroke-linecap="round" stroke-linejoin="round"/>
<path d="M76.2166 68.6863H88.0589" stroke="#263238" stroke-linecap="round" stroke-linejoin="round"/>
<path d="M110.289 95.7578H94.9032V75.2405H106.992L110.289 78.4627V95.7578Z" fill="white" stroke="#263238" stroke-linecap="round" stroke-linejoin="round"/>
<path d="M107.404 78.1255V78.9683L110.289 78.4665L107.404 78.1255Z" fill="#263238" stroke="#263238" stroke-linecap="round" stroke-linejoin="round"/>
<path d="M106.992 75.2405V78.4666H110.289L106.992 75.2405Z" fill="white" stroke="#263238" stroke-linecap="round" stroke-linejoin="round"/>
<path d="M96.8553 79.7014H108.702" stroke="#263238" stroke-linecap="round" stroke-linejoin="round"/>
<path d="M96.8553 82.6296H108.702" stroke="#263238" stroke-linecap="round" stroke-linejoin="round"/>
<path d="M96.8553 85.5618H108.702" stroke="#263238" stroke-linecap="round" stroke-linejoin="round"/>
<path d="M96.8553 88.49H108.702" stroke="#263238" stroke-linecap="round" stroke-linejoin="round"/>
<path d="M96.8553 91.4221H108.702" stroke="#263238" stroke-linecap="round" stroke-linejoin="round"/>
<path d="M67.3535 58.3452H50.423C48.5589 58.3452 47.0479 59.8563 47.0479 61.7203V81.8456C47.0479 83.7096 48.5589 85.2207 50.423 85.2207H67.3535C69.2175 85.2207 70.7286 83.7096 70.7286 81.8456V61.7203C70.7286 59.8563 69.2175 58.3452 67.3535 58.3452Z" fill="white" stroke="#263238" stroke-linecap="round" stroke-linejoin="round"/>
<path d="M68.0944 58.3452H49.6704C48.9728 58.3452 48.3037 58.6223 47.8104 59.1156C47.3172 59.6089 47.04 60.2779 47.04 60.9755V61.5439H70.7168V60.9795C70.7179 60.2825 70.4423 59.6137 69.9506 59.1198C69.4589 58.6259 68.7913 58.3473 68.0944 58.3452Z" fill="#263238" stroke="#263238" stroke-linecap="round" stroke-linejoin="round"/>
<path d="M50.4269 66.24H67.3417" stroke="#263238" stroke-linecap="round" stroke-linejoin="round"/>
<path d="M50.4269 70.3718H67.3417" stroke="#263238" stroke-linecap="round" stroke-linejoin="round"/>
<path d="M50.4269 74.5073H67.3417" stroke="#263238" stroke-linecap="round" stroke-linejoin="round"/>
<path d="M50.4269 78.6431H67.3417" stroke="#263238" stroke-linecap="round" stroke-linejoin="round"/>
<path d="M64.68 59.8505C64.68 59.7017 64.6358 59.5562 64.5531 59.4324C64.4704 59.3086 64.3529 59.2122 64.2153 59.1552C64.0778 59.0982 63.9265 59.0833 63.7805 59.1124C63.6345 59.1414 63.5004 59.2131 63.3951 59.3183C63.2899 59.4236 63.2182 59.5577 63.1891 59.7037C63.1601 59.8497 63.175 60.001 63.232 60.1386C63.2889 60.2761 63.3854 60.3936 63.5092 60.4763C63.6329 60.559 63.7785 60.6032 63.9273 60.6032C64.1269 60.6032 64.3184 60.5239 64.4595 60.3827C64.6007 60.2416 64.68 60.0502 64.68 59.8505Z" fill="white"/>
<path d="M67.1731 59.8505C67.1731 59.7017 67.129 59.5562 67.0463 59.4324C66.9636 59.3086 66.846 59.2122 66.7085 59.1552C66.571 59.0982 66.4197 59.0833 66.2737 59.1124C66.1277 59.1414 65.9935 59.2131 65.8883 59.3183C65.783 59.4236 65.7113 59.5577 65.6823 59.7037C65.6533 59.8497 65.6682 60.001 65.7251 60.1386C65.7821 60.2761 65.8786 60.3936 66.0023 60.4763C66.1261 60.559 66.2716 60.6032 66.4205 60.6032C66.6201 60.6032 66.8115 60.5239 66.9527 60.3827C67.0938 60.2416 67.1731 60.0502 67.1731 59.8505Z" fill="white"/>
<path d="M69.6466 59.8505C69.6466 59.7015 69.6024 59.5558 69.5195 59.432C69.4366 59.3081 69.3189 59.2117 69.1811 59.1548C69.0434 59.098 68.8918 59.0833 68.7457 59.1127C68.5996 59.142 68.4655 59.2141 68.3604 59.3197C68.2553 59.4254 68.1839 59.5599 68.1553 59.7061C68.1267 59.8524 68.1422 60.0038 68.1998 60.1413C68.2573 60.2787 68.3544 60.396 68.4787 60.4782C68.603 60.5605 68.7489 60.604 68.8979 60.6032C68.9966 60.6032 69.0943 60.5837 69.1853 60.5458C69.2764 60.5079 69.3592 60.4524 69.4287 60.3825C69.4983 60.3126 69.5534 60.2296 69.5908 60.1383C69.6282 60.047 69.6472 59.9492 69.6466 59.8505Z" fill="white"/>
<path d="M51.1246 80.3521H41.454C39.59 80.3521 38.0789 81.8631 38.0789 83.7272V95.6126C38.0789 97.4766 39.59 98.9877 41.454 98.9877H51.1246C52.9886 98.9877 54.4997 97.4766 54.4997 95.6126V83.7272C54.4997 81.8631 52.9886 80.3521 51.1246 80.3521Z" fill="white" stroke="#263238" stroke-linecap="round" stroke-linejoin="round"/>
<path d="M52.673 80.3599H39.9017C39.4182 80.3599 38.9546 80.5519 38.6127 80.8937C38.2709 81.2356 38.0789 81.6992 38.0789 82.1827V82.5747H54.488V82.1827C54.488 81.7006 54.297 81.2381 53.9569 80.8965C53.6167 80.5549 53.1551 80.3619 52.673 80.3599Z" fill="#263238" stroke="#263238" stroke-linecap="round" stroke-linejoin="round"/>
<path d="M40.423 85.8245H52.1516" stroke="#263238" stroke-linecap="round" stroke-linejoin="round"/>
<path d="M40.423 88.6899H52.1516" stroke="#263238" stroke-linecap="round" stroke-linejoin="round"/>
<path d="M40.423 91.5593H52.1516" stroke="#263238" stroke-linecap="round" stroke-linejoin="round"/>
<path d="M40.423 94.4248H52.1516" stroke="#263238" stroke-linecap="round" stroke-linejoin="round"/>
<path d="M49.7958 81.9124C50.0837 81.9124 50.3171 81.6789 50.3171 81.391C50.3171 81.1031 50.0837 80.8696 49.7958 80.8696C49.5078 80.8696 49.2744 81.1031 49.2744 81.391C49.2744 81.6789 49.5078 81.9124 49.7958 81.9124Z" fill="white"/>
<path d="M51.5127 81.9124C51.8006 81.9124 52.0341 81.6789 52.0341 81.391C52.0341 81.1031 51.8006 80.8696 51.5127 80.8696C51.2248 80.8696 50.9913 81.1031 50.9913 81.391C50.9913 81.6789 51.2248 81.9124 51.5127 81.9124Z" fill="white"/>
<path d="M53.751 81.391C53.751 81.2879 53.7204 81.1871 53.6631 81.1013C53.6058 81.0156 53.5244 80.9488 53.4291 80.9093C53.3339 80.8699 53.229 80.8595 53.1279 80.8796C53.0268 80.8998 52.9339 80.9494 52.861 81.0223C52.788 81.0952 52.7384 81.1881 52.7183 81.2893C52.6982 81.3904 52.7085 81.4952 52.7479 81.5905C52.7874 81.6858 52.8542 81.7672 52.94 81.8245C53.0257 81.8818 53.1265 81.9123 53.2296 81.9123C53.2981 81.9123 53.3659 81.8989 53.4291 81.8727C53.4924 81.8465 53.5499 81.8081 53.5983 81.7596C53.6467 81.7112 53.6851 81.6538 53.7113 81.5905C53.7375 81.5272 53.751 81.4595 53.751 81.391Z" fill="white"/>
<path d="M46.201 104.597H51.7126" stroke="#263238" stroke-linecap="round" stroke-linejoin="round"/>
<path d="M40.1055 104.597H45.2054" stroke="#263238" stroke-linecap="round" stroke-linejoin="round"/>
<path d="M49.5802 106.338H51.7127" stroke="#263238" stroke-linecap="round" stroke-linejoin="round"/>
<path d="M40.1055 106.338H48.5844" stroke="#263238" stroke-linecap="round" stroke-linejoin="round"/>
<path d="M50.8699 108.078H51.7127" stroke="#263238" stroke-linecap="round" stroke-linejoin="round"/>
<path d="M46.2991 108.078H49.4782" stroke="#263238" stroke-linecap="round" stroke-linejoin="round"/>
<path d="M40.1055 108.078H45.4053" stroke="#263238" stroke-linecap="round" stroke-linejoin="round"/>
<path d="M40.1055 109.819H51.7126" stroke="#263238" stroke-linecap="round" stroke-linejoin="round"/>
<path d="M49.78 111.559H51.7126" stroke="#263238" stroke-linecap="round" stroke-linejoin="round"/>
<path d="M43.12 111.559H47.7887" stroke="#263238" stroke-linecap="round" stroke-linejoin="round"/>
<path d="M40.1055 111.559H41.7283" stroke="#263238" stroke-linecap="round" stroke-linejoin="round"/>
<path d="M45.4054 113.3H51.7127" stroke="#263238" stroke-linecap="round" stroke-linejoin="round"/>
<path d="M40.1055 113.3H44.3116" stroke="#263238" stroke-linecap="round" stroke-linejoin="round"/>
<path d="M48.5845 115.04H51.7126" stroke="#263238" stroke-linecap="round" stroke-linejoin="round"/>
<path d="M45.5033 115.04H47.6907" stroke="#263238" stroke-linecap="round" stroke-linejoin="round"/>
<path d="M40.1055 115.04H44.3116" stroke="#263238" stroke-linecap="round" stroke-linejoin="round"/>
<path d="M85.162 102.257H90.6774" stroke="#263238" stroke-linecap="round" stroke-linejoin="round"/>
<path d="M79.0703 102.257H84.1702" stroke="#263238" stroke-linecap="round" stroke-linejoin="round"/>
<path d="M88.541 104.001H90.6774" stroke="#263238" stroke-linecap="round" stroke-linejoin="round"/>
<path d="M79.0703 104.001H87.5493" stroke="#263238" stroke-linecap="round" stroke-linejoin="round"/>
<path d="M89.8346 105.742H90.6774" stroke="#263238" stroke-linecap="round" stroke-linejoin="round"/>
<path d="M85.2639 105.742H88.443" stroke="#263238" stroke-linecap="round" stroke-linejoin="round"/>
<path d="M79.0703 105.742H84.3701" stroke="#263238" stroke-linecap="round" stroke-linejoin="round"/>
<path d="M79.0703 107.482H90.6774" stroke="#263238" stroke-linecap="round" stroke-linejoin="round"/>
<path d="M88.741 109.223H90.6774" stroke="#263238" stroke-linecap="round" stroke-linejoin="round"/>
<path d="M82.0808 109.223H86.7534" stroke="#263238" stroke-linecap="round" stroke-linejoin="round"/>
<path d="M79.0703 109.223H80.6893" stroke="#263238" stroke-linecap="round" stroke-linejoin="round"/>
<path d="M84.3701 110.963H90.6774" stroke="#263238" stroke-linecap="round" stroke-linejoin="round"/>
<path d="M79.0703 110.963H83.2765" stroke="#263238" stroke-linecap="round" stroke-linejoin="round"/>
<path d="M87.5493 112.704H90.6775" stroke="#263238" stroke-linecap="round" stroke-linejoin="round"/>
<path d="M84.4681 112.704H86.6555" stroke="#263238" stroke-linecap="round" stroke-linejoin="round"/>
<path d="M79.0703 112.704H83.2765" stroke="#263238" stroke-linecap="round" stroke-linejoin="round"/>
<path d="M98.0588 62.7749H103.57" stroke="#263238" stroke-linecap="round" stroke-linejoin="round"/>
<path d="M91.9631 62.7749H97.0631" stroke="#263238" stroke-linecap="round" stroke-linejoin="round"/>
<path d="M101.438 64.5154H103.57" stroke="#263238" stroke-linecap="round" stroke-linejoin="round"/>
<path d="M91.9631 64.5154H100.442" stroke="#263238" stroke-linecap="round" stroke-linejoin="round"/>
<path d="M102.728 66.2559H103.57" stroke="#263238" stroke-linecap="round" stroke-linejoin="round"/>
<path d="M98.1567 66.2559H101.336" stroke="#263238" stroke-linecap="round" stroke-linejoin="round"/>
<path d="M91.9631 66.2559H97.263" stroke="#263238" stroke-linecap="round" stroke-linejoin="round"/>
<path d="M91.9631 67.9963H103.57" stroke="#263238" stroke-linecap="round" stroke-linejoin="round"/>
<path d="M101.638 69.7368H103.57" stroke="#263238" stroke-linecap="round" stroke-linejoin="round"/>
<path d="M94.9777 69.7368H99.6464" stroke="#263238" stroke-linecap="round" stroke-linejoin="round"/>
<path d="M91.9631 69.7368H93.586" stroke="#263238" stroke-linecap="round" stroke-linejoin="round"/>
<path d="M97.2631 71.4773H103.57" stroke="#263238" stroke-linecap="round" stroke-linejoin="round"/>
<path d="M91.9631 71.4773H96.1693" stroke="#263238" stroke-linecap="round" stroke-linejoin="round"/>
<path d="M100.442 73.2178H103.57" stroke="#263238" stroke-linecap="round" stroke-linejoin="round"/>
<path d="M97.3611 73.2178H99.5484" stroke="#263238" stroke-linecap="round" stroke-linejoin="round"/>
<path d="M91.9631 73.2178H96.1693" stroke="#263238" stroke-linecap="round" stroke-linejoin="round"/>
<path d="M37.5889 66.7065H43.1004" stroke="#263238" stroke-linecap="round" stroke-linejoin="round"/>
<path d="M31.4933 66.7065H36.5932" stroke="#263238" stroke-linecap="round" stroke-linejoin="round"/>
<path d="M40.9679 68.447H43.1004" stroke="#263238" stroke-linecap="round" stroke-linejoin="round"/>
<path d="M31.4933 68.447H39.9722" stroke="#263238" stroke-linecap="round" stroke-linejoin="round"/>
<path d="M42.2615 70.1875H43.1004" stroke="#263238" stroke-linecap="round" stroke-linejoin="round"/>
<path d="M37.6869 70.1875H40.8699" stroke="#263238" stroke-linecap="round" stroke-linejoin="round"/>
<path d="M31.4933 70.1875H36.7931" stroke="#263238" stroke-linecap="round" stroke-linejoin="round"/>
<path d="M31.4933 71.928H43.1004" stroke="#263238" stroke-linecap="round" stroke-linejoin="round"/>
<path d="M41.1678 73.6685H43.1004" stroke="#263238" stroke-linecap="round" stroke-linejoin="round"/>
<path d="M34.5077 73.6685H39.1803" stroke="#263238" stroke-linecap="round" stroke-linejoin="round"/>
<path d="M31.4933 73.6685H33.1162" stroke="#263238" stroke-linecap="round" stroke-linejoin="round"/>
<path d="M36.7931 75.4089H43.1004" stroke="#263238" stroke-linecap="round" stroke-linejoin="round"/>
<path d="M31.4933 75.4089H35.6994" stroke="#263238" stroke-linecap="round" stroke-linejoin="round"/>
<path d="M39.9722 77.1494H43.1003" stroke="#263238" stroke-linecap="round" stroke-linejoin="round"/>
<path d="M36.8911 77.1494H39.0785" stroke="#263238" stroke-linecap="round" stroke-linejoin="round"/>
<path d="M31.4933 77.1494H35.6994" stroke="#263238" stroke-linecap="round" stroke-linejoin="round"/>
<path d="M72.0574 80.4971V97.7922H87.4434V77.2788H75.358L72.0574 80.4971Z" fill="white" stroke="#263238" stroke-linecap="round" stroke-linejoin="round"/>
<path d="M74.9425 80.1638V81.0027L72.0574 80.5049L74.9425 80.1638Z" fill="#263238" stroke="#263238" stroke-linecap="round" stroke-linejoin="round"/>
<path d="M75.3541 77.2788V80.505H72.0574L75.3541 77.2788Z" fill="white" stroke="#263238" stroke-linecap="round" stroke-linejoin="round"/>
<path d="M85.4913 81.7358H73.645" stroke="#263238" stroke-linecap="round" stroke-linejoin="round"/>
<path d="M85.4913 84.6641H73.645" stroke="#263238" stroke-linecap="round" stroke-linejoin="round"/>
<path d="M85.4913 87.5962H73.645" stroke="#263238" stroke-linecap="round" stroke-linejoin="round"/>
<path d="M85.4913 90.5283H73.645" stroke="#263238" stroke-linecap="round" stroke-linejoin="round"/>
<path d="M87.4434 93.0059H72.0574V97.7961H87.4434V93.0059Z" fill="#263238" stroke="#263238" stroke-linecap="round" stroke-linejoin="round"/>
<path d="M89.819 81.8418H79.1722V86.9692H89.819V81.8418Z" fill="#263238" stroke="#263238" stroke-linecap="round" stroke-linejoin="round"/>
<path d="M83.543 82.5669C84.0879 82.5669 84.327 82.8883 84.327 83.4097V83.8252C84.3443 83.9342 84.3364 84.0457 84.3039 84.1512C84.2713 84.2566 84.215 84.3532 84.1393 84.4335C84.0636 84.5138 83.9704 84.5756 83.867 84.6142C83.7637 84.6528 83.6528 84.6672 83.543 84.6563H83.2019V86.0204H82.8099V82.5669H83.543ZM83.5155 84.3113C83.8017 84.3113 83.9389 84.178 83.9389 83.8487V83.3901C83.9389 83.0765 83.8252 82.9158 83.5469 82.9158H83.1784V84.3113H83.5155Z" fill="white"/>
<path d="M85.456 82.5669C85.9931 82.5669 86.24 82.8923 86.24 83.4254V85.1659C86.24 85.6951 85.9931 86.0204 85.456 86.0204H84.6328V82.5669H85.456ZM85.456 85.6676C85.7304 85.6676 85.848 85.4951 85.848 85.1815V83.4058C85.848 83.0883 85.7147 82.9158 85.4364 82.9158H85.0209V85.6598L85.456 85.6676Z" fill="white"/>
<path d="M87.761 84.1741V84.523H86.977V86.0204H86.585V82.5669H87.957V82.9158H86.9691V84.1741H87.761Z" fill="white"/>
<path opacity="0.2" d="M271.687 96.5105L268.975 96.4438L268.936 97.9883C268.268 98.0582 267.611 98.2029 266.976 98.4195L266.211 97.0201L263.816 98.3215L264.553 99.6739C264.007 100.074 263.506 100.533 263.059 101.042L261.699 100.207L260.288 102.524L261.601 103.308C261.328 103.928 261.124 104.576 260.994 105.24L259.398 105.197L259.332 107.914L260.876 107.953C260.946 108.62 261.091 109.278 261.307 109.913L259.896 110.709L261.194 113.096L262.55 112.359C262.948 112.905 263.405 113.404 263.914 113.849L263.083 115.213L265.4 116.628L266.203 115.315C266.822 115.587 267.469 115.791 268.132 115.922L268.093 117.518L270.809 117.584L270.872 116.032C271.539 115.962 272.197 115.818 272.832 115.601L273.593 117L275.98 115.703L275.239 114.346C275.786 113.948 276.287 113.491 276.732 112.982L278.093 113.813L279.512 111.497L278.195 110.693C278.47 110.074 278.673 109.426 278.802 108.76L280.398 108.804L280.468 106.087L278.924 106.048C278.852 105.381 278.707 104.723 278.493 104.088L279.888 103.327L278.591 100.94L277.234 101.681C276.838 101.132 276.381 100.631 275.87 100.187L276.705 98.8233L274.4 97.4003L273.596 98.7174C272.979 98.4406 272.332 98.2354 271.668 98.1059L271.687 96.5105ZM269.727 113.551C268.435 113.519 267.18 113.104 266.123 112.359C265.066 111.614 264.254 110.572 263.789 109.365C263.324 108.159 263.227 106.841 263.511 105.579C263.795 104.318 264.446 103.169 265.383 102.277C266.32 101.386 267.5 100.792 268.774 100.572C270.049 100.351 271.36 100.513 272.542 101.037C273.724 101.562 274.724 102.425 275.415 103.518C276.107 104.611 276.459 105.884 276.427 107.177C276.382 108.91 275.652 110.555 274.396 111.75C273.14 112.945 271.461 113.593 269.727 113.551Z" stroke="black" stroke-linecap="round" stroke-linejoin="round"/>
<path opacity="0.2" d="M264.016 76.2204L261.303 76.1538L261.264 77.6944C260.597 77.767 259.939 77.913 259.304 78.1295L258.52 76.73L256.137 78.0276L256.874 79.3839C256.328 79.7829 255.827 80.2404 255.38 80.748L254.016 79.917L252.601 82.2337L253.914 83.0373C253.641 83.6557 253.437 84.3026 253.306 84.966L251.711 84.9268L251.644 87.6433L253.185 87.6786C253.256 88.3525 253.402 89.0164 253.62 89.6582L252.221 90.4187L253.518 92.802L254.874 92.0651C255.273 92.6119 255.73 93.1128 256.239 93.5586L255.408 94.9188L257.724 96.3379L258.508 95.0208C259.126 95.2958 259.773 95.4997 260.437 95.6284L260.398 97.2238L263.114 97.2944L263.154 95.7499C263.821 95.6787 264.479 95.5327 265.114 95.3148L265.874 96.7142L268.257 95.4167L267.564 94.08C268.11 93.6819 268.611 93.2244 269.057 92.7158L270.417 93.5468L271.836 91.2301L270.519 90.4265C270.795 89.809 270.999 89.1619 271.127 88.4979L272.722 88.5371L272.793 85.8244L271.248 85.7852C271.178 85.1176 271.032 84.46 270.813 83.8252L272.213 83.0608L270.915 80.6775L269.559 81.4144C269.161 80.8676 268.703 80.3666 268.195 79.9209L269.026 78.5607L266.709 77.1456L265.925 78.4588C265.307 78.1849 264.66 77.9811 263.996 77.8512L264.016 76.2204ZM262.056 93.2568C260.763 93.2246 259.509 92.8096 258.451 92.0644C257.394 91.3192 256.582 90.2773 256.117 89.0704C255.652 87.8634 255.556 86.5457 255.84 85.284C256.124 84.0222 256.776 82.873 257.713 81.9818C258.651 81.0906 259.831 80.4973 261.106 80.2771C262.38 80.0569 263.691 80.2197 264.873 80.7447C266.055 81.2698 267.055 82.1336 267.746 83.2269C268.437 84.3202 268.788 85.5938 268.755 86.8868C268.711 88.6197 267.981 90.2642 266.724 91.4587C265.468 92.6532 263.789 93.2999 262.056 93.2568Z" stroke="black" stroke-linecap="round" stroke-linejoin="round"/>
<path opacity="0.2" d="M131.884 50.9599V48.2159H130.34C130.253 47.5466 130.091 46.8892 129.858 46.2559L131.238 45.4719L129.877 43.1199L128.541 43.9039C128.129 43.3684 127.659 42.8794 127.141 42.4457L127.925 41.0658L125.573 39.7056L124.789 41.0423C124.158 40.7843 123.501 40.5963 122.829 40.4817V38.8667H120.113V40.4112C119.443 40.4983 118.786 40.66 118.153 40.8933L117.369 39.5135L115.017 40.8737L115.801 42.2105C115.266 42.6236 114.777 43.0927 114.342 43.6099L112.963 42.8259L111.606 45.1779L112.939 45.9619C112.681 46.5927 112.493 47.25 112.379 47.9219H110.783V50.6385H112.328C112.415 51.3077 112.576 51.9651 112.81 52.5985L111.43 53.3825L112.79 55.7345L114.127 54.9505C114.54 55.4851 115.009 55.9739 115.526 56.4087L114.742 57.7885L117.094 59.1449L117.878 57.8121C118.509 58.0701 119.166 58.2581 119.838 58.3726V59.9759H122.555V58.4079C123.224 58.3208 123.882 58.159 124.515 57.9257L125.299 59.3056L127.651 57.9453L126.867 56.6086C127.402 56.1965 127.891 55.7273 128.325 55.2092L129.705 55.9932L131.065 53.6412L129.728 52.8572C129.986 52.2263 130.174 51.5691 130.289 50.8972L131.884 50.9599ZM114.801 49.4272C114.801 48.134 115.185 46.8698 115.903 45.7945C116.621 44.7193 117.643 43.8812 118.837 43.3863C120.032 42.8914 121.347 42.762 122.615 43.0143C123.884 43.2665 125.049 43.8893 125.963 44.8037C126.878 45.7182 127.5 46.8832 127.753 48.1516C128.005 49.4199 127.875 50.7346 127.38 51.9294C126.886 53.1241 126.048 54.1453 124.972 54.8638C123.897 55.5823 122.633 55.9657 121.34 55.9657C120.48 55.9657 119.628 55.7961 118.834 55.4665C118.04 55.1369 117.318 54.6539 116.711 54.0451C116.103 53.4363 115.622 52.7136 115.294 51.9185C114.967 51.1234 114.799 50.2715 114.801 49.4115V49.4272Z" stroke="black" stroke-linecap="round" stroke-linejoin="round"/>
<path opacity="0.2" d="M151.974 42.7633V40.0467H150.434C150.347 39.3775 150.185 38.7201 149.952 38.0867L151.328 37.3027L149.971 34.9507L148.635 35.7347C148.223 35.1973 147.753 34.7081 147.231 34.2765L148.015 32.8927L145.663 31.5364L144.879 32.8692C144.249 32.6096 143.592 32.4228 142.919 32.3126V30.6897H140.207V32.2342C139.537 32.3202 138.88 32.482 138.247 32.7163L137.463 31.3365L135.111 32.6928L135.895 34.0295C135.364 34.442 134.882 34.9128 134.456 35.4329L133.076 34.6489L131.716 37.0009L133.053 37.7849C132.79 38.4141 132.602 39.0719 132.492 39.7449H130.889V42.4615H132.433C132.521 43.1306 132.683 43.7879 132.915 44.4215L131.536 45.2055L132.892 47.5575L134.233 46.7735C134.643 47.3053 135.113 47.7892 135.632 48.216L134.848 49.5959L137.2 50.9561L137.984 49.6194C138.613 49.8816 139.271 50.0697 139.944 50.1799V51.7754H142.661V50.2309C143.33 50.1456 143.988 49.9838 144.621 49.7487L145.405 51.1286L147.757 49.7723L146.973 48.4355C147.509 48.0231 147.998 47.5525 148.431 47.0322L149.815 47.8162L151.171 45.4642L149.838 44.6802C150.098 44.0502 150.284 43.3926 150.395 42.7202L151.974 42.7633ZM134.895 41.2306C134.895 39.9374 135.279 38.6732 135.997 37.5979C136.715 36.5227 137.737 35.6846 138.931 35.1897C140.126 34.6948 141.441 34.5654 142.709 34.8177C143.978 35.0699 145.143 35.6927 146.057 36.6071C146.971 37.5216 147.594 38.6866 147.847 39.955C148.099 41.2233 147.969 42.538 147.474 43.7328C146.98 44.9275 146.141 45.9487 145.066 46.6672C143.991 47.3857 142.727 47.7691 141.434 47.7691C140.575 47.7697 139.724 47.6009 138.931 47.2725C138.137 46.9441 137.416 46.4625 136.809 45.8552C136.202 45.2479 135.72 44.5269 135.392 43.7334C135.063 42.9399 134.895 42.0894 134.895 41.2306Z" stroke="black" stroke-linecap="round" stroke-linejoin="round"/>
<g opacity="0.2">
<path d="M71.0383 129.678C74.8702 129.678 77.9767 126.571 77.9767 122.739C77.9767 118.907 74.8702 115.801 71.0383 115.801C67.2063 115.801 64.0999 118.907 64.0999 122.739C64.0999 126.571 67.2063 129.678 71.0383 129.678Z" stroke="black" stroke-linecap="round" stroke-linejoin="round"/>
<path d="M76.2459 123.714C76.7869 120.837 74.8934 118.066 72.0168 117.525C69.1402 116.985 66.3698 118.878 65.8288 121.755C65.2879 124.631 67.1813 127.402 70.0579 127.943C72.9345 128.484 75.705 126.59 76.2459 123.714Z" stroke="black" stroke-linecap="round" stroke-linejoin="round"/>
<path d="M81.1989 127.498L77.4553 125.468L76.832 126.616L80.5796 128.643C80.4972 128.795 80.4787 128.974 80.5279 129.14C80.5771 129.306 80.6901 129.446 80.8422 129.529L87.9805 133.394C88.1329 133.476 88.3117 133.495 88.4777 133.445C88.6438 133.396 88.7835 133.283 88.8664 133.131L89.4897 131.983C89.5707 131.83 89.5881 131.651 89.5382 131.485C89.4883 131.319 89.3751 131.18 89.2232 131.097L82.0848 127.232C81.9318 127.151 81.753 127.133 81.5872 127.183C81.4214 127.233 81.2819 127.346 81.1989 127.498Z" stroke="black" stroke-miterlimit="10"/>
</g>
<path opacity="0.2" d="M187.768 43.1201C187.769 44.6197 187.325 46.0858 186.492 47.3331C185.66 48.5803 184.476 49.5527 183.091 50.1271C181.705 50.7015 180.181 50.8522 178.71 50.5601C177.239 50.268 175.888 49.5463 174.827 48.4862C173.767 47.4261 173.044 46.0752 172.751 44.6045C172.459 43.1338 172.608 41.6092 173.182 40.2237C173.756 38.8382 174.728 37.6539 175.974 36.8207C177.221 35.9875 178.687 35.5427 180.187 35.5427" stroke="black" stroke-linecap="round" stroke-linejoin="round"/>
<path opacity="0.2" d="M187.768 43.1201H180.187V35.5427C182.197 35.5427 184.125 36.3409 185.546 37.7618C186.968 39.1828 187.767 41.1101 187.768 43.1201Z" stroke="black" stroke-linecap="round" stroke-linejoin="round"/>
<path opacity="0.2" d="M186.984 37.8945L190.904 34.7585H196.392" stroke="black" stroke-linecap="round" stroke-linejoin="round"/>
<path opacity="0.2" d="M199.528 34.7585H206.843" stroke="black" stroke-linecap="round" stroke-linejoin="round"/>
<path opacity="0.2" d="M199.528 37.1106H206.843" stroke="black" stroke-linecap="round" stroke-linejoin="round"/>
<path opacity="0.2" d="M199.528 39.4626H206.843" stroke="black" stroke-linecap="round" stroke-linejoin="round"/>
<path opacity="0.2" d="M199.528 41.8147H206.843" stroke="black" stroke-linecap="round" stroke-linejoin="round"/>
<g opacity="0.2">
<path d="M103.574 123.915L103.292 122.535H98.3293L98.6116 123.915L98.8664 125.146L100.552 133.378H113.802L111.865 123.915H103.574Z" stroke="black" stroke-linecap="round" stroke-linejoin="round"/>
<path d="M113.802 133.378L116.244 124.554H112.069" stroke="black" stroke-linecap="round" stroke-linejoin="round"/>
</g>
<g opacity="0.2">
<path d="M122.179 123.915L121.892 122.535H116.934L117.216 123.915L117.471 125.146L119.156 133.378H132.406L130.465 123.915H122.179Z" stroke="black" stroke-linecap="round" stroke-linejoin="round"/>
<path d="M132.406 133.378L134.848 124.554H130.673" stroke="black" stroke-linecap="round" stroke-linejoin="round"/>
</g>
<path d="M150.316 101.893C150.41 101.892 150.504 101.909 150.591 101.944C150.678 101.979 150.757 102.031 150.824 102.097C150.891 102.163 150.945 102.242 150.981 102.329C151.018 102.415 151.037 102.508 151.038 102.602V107.087C151.024 107.269 150.942 107.44 150.808 107.565C150.674 107.689 150.497 107.759 150.314 107.759C150.131 107.759 149.955 107.689 149.821 107.565C149.687 107.44 149.605 107.269 149.591 107.087V102.602C149.592 102.508 149.612 102.415 149.649 102.328C149.686 102.242 149.739 102.163 149.807 102.097C149.874 102.031 149.954 101.979 150.041 101.944C150.129 101.909 150.222 101.892 150.316 101.893Z" fill="#263238"/>
<path d="M148.568 101.893C148.662 101.892 148.756 101.909 148.843 101.944C148.931 101.979 149.01 102.031 149.078 102.097C149.145 102.163 149.199 102.242 149.236 102.328C149.273 102.415 149.292 102.508 149.293 102.602V107.087C149.28 107.269 149.198 107.44 149.064 107.565C148.929 107.689 148.753 107.759 148.57 107.759C148.387 107.759 148.21 107.689 148.076 107.565C147.942 107.44 147.86 107.269 147.847 107.087V102.602C147.849 102.413 147.926 102.232 148.061 102.099C148.196 101.966 148.378 101.892 148.568 101.893Z" fill="#263238"/>
<path d="M146.847 101.893C146.941 101.892 147.034 101.909 147.122 101.944C147.209 101.979 147.288 102.031 147.355 102.097C147.422 102.163 147.476 102.242 147.512 102.329C147.549 102.415 147.568 102.508 147.568 102.602V107.087C147.568 107.181 147.549 107.274 147.512 107.36C147.476 107.447 147.422 107.525 147.355 107.591C147.288 107.657 147.209 107.709 147.122 107.744C147.034 107.78 146.941 107.797 146.847 107.796C146.753 107.797 146.66 107.78 146.573 107.744C146.485 107.709 146.406 107.657 146.339 107.591C146.272 107.525 146.219 107.447 146.182 107.36C146.145 107.274 146.126 107.181 146.126 107.087V102.602C146.126 102.508 146.145 102.415 146.182 102.329C146.219 102.242 146.272 102.163 146.339 102.097C146.406 102.031 146.485 101.979 146.573 101.944C146.66 101.909 146.753 101.892 146.847 101.893Z" fill="#263238"/>
<path d="M145.111 101.893C145.205 101.892 145.298 101.909 145.386 101.944C145.473 101.979 145.553 102.031 145.62 102.097C145.687 102.163 145.741 102.242 145.778 102.328C145.815 102.415 145.835 102.508 145.836 102.602V107.087C145.822 107.269 145.74 107.44 145.606 107.565C145.472 107.689 145.296 107.759 145.113 107.759C144.929 107.759 144.753 107.689 144.619 107.565C144.485 107.44 144.403 107.269 144.389 107.087V102.602C144.391 102.413 144.468 102.232 144.604 102.099C144.739 101.966 144.921 101.892 145.111 101.893Z" fill="#263238"/>
<path d="M143.378 101.893C143.472 101.892 143.565 101.909 143.652 101.944C143.74 101.979 143.819 102.031 143.886 102.097C143.953 102.163 144.006 102.242 144.043 102.329C144.08 102.415 144.099 102.508 144.099 102.602V107.087C144.099 107.278 144.023 107.461 143.888 107.597C143.753 107.732 143.569 107.808 143.378 107.808C143.187 107.808 143.003 107.732 142.868 107.597C142.733 107.461 142.657 107.278 142.657 107.087V102.602C142.657 102.508 142.676 102.415 142.713 102.329C142.749 102.242 142.803 102.163 142.87 102.097C142.937 102.031 143.016 101.979 143.103 101.944C143.191 101.909 143.284 101.892 143.378 101.893Z" fill="#263238"/>
<path d="M141.641 101.893C141.736 101.892 141.829 101.909 141.916 101.944C142.004 101.979 142.084 102.031 142.151 102.097C142.218 102.163 142.272 102.242 142.309 102.328C142.346 102.415 142.366 102.508 142.367 102.602V107.087C142.366 107.181 142.346 107.274 142.309 107.361C142.272 107.447 142.218 107.526 142.151 107.592C142.084 107.657 142.004 107.709 141.916 107.745C141.829 107.78 141.736 107.797 141.641 107.796C141.452 107.797 141.269 107.723 141.134 107.59C140.999 107.457 140.922 107.276 140.92 107.087V102.602C140.922 102.413 140.999 102.232 141.134 102.099C141.269 101.966 141.452 101.892 141.641 101.893Z" fill="#263238"/>
<path d="M139.909 101.893C140.003 101.892 140.096 101.909 140.183 101.944C140.27 101.979 140.35 102.031 140.417 102.097C140.484 102.163 140.537 102.242 140.574 102.329C140.61 102.415 140.629 102.508 140.63 102.602V107.087C140.63 107.278 140.554 107.461 140.419 107.597C140.283 107.732 140.1 107.808 139.909 107.808C139.717 107.808 139.534 107.732 139.399 107.597C139.263 107.461 139.187 107.278 139.187 107.087V102.602C139.188 102.508 139.207 102.415 139.244 102.329C139.28 102.242 139.333 102.163 139.4 102.097C139.468 102.031 139.547 101.979 139.634 101.944C139.721 101.909 139.815 101.892 139.909 101.893Z" fill="#263238"/>
<path d="M138.176 101.893C138.366 101.892 138.548 101.966 138.683 102.099C138.818 102.232 138.895 102.413 138.897 102.602V107.087C138.884 107.269 138.802 107.44 138.668 107.565C138.533 107.689 138.357 107.759 138.174 107.759C137.991 107.759 137.815 107.689 137.68 107.565C137.546 107.44 137.464 107.269 137.451 107.087V102.602C137.452 102.508 137.471 102.415 137.508 102.328C137.545 102.242 137.599 102.163 137.666 102.097C137.734 102.031 137.813 101.979 137.901 101.944C137.988 101.909 138.082 101.892 138.176 101.893Z" fill="#263238"/>
<path d="M136.44 101.893C136.534 101.892 136.627 101.909 136.714 101.944C136.801 101.979 136.881 102.031 136.948 102.097C137.015 102.163 137.068 102.242 137.105 102.329C137.141 102.415 137.16 102.508 137.161 102.602V107.087C137.161 107.278 137.085 107.461 136.95 107.597C136.814 107.732 136.631 107.808 136.44 107.808C136.248 107.808 136.065 107.732 135.93 107.597C135.794 107.461 135.718 107.278 135.718 107.087V102.602C135.719 102.508 135.738 102.415 135.774 102.329C135.811 102.242 135.864 102.163 135.931 102.097C135.998 102.031 136.078 101.979 136.165 101.944C136.252 101.909 136.346 101.892 136.44 101.893Z" fill="#263238"/>
<path d="M134.707 101.893C134.896 101.892 135.079 101.966 135.214 102.099C135.349 102.232 135.426 102.413 135.428 102.602V107.087C135.415 107.269 135.333 107.44 135.199 107.565C135.064 107.689 134.888 107.759 134.705 107.759C134.522 107.759 134.345 107.689 134.211 107.565C134.077 107.44 133.995 107.269 133.982 107.087V102.602C133.983 102.508 134.002 102.415 134.039 102.328C134.076 102.242 134.13 102.163 134.197 102.097C134.265 102.031 134.344 101.979 134.432 101.944C134.519 101.909 134.613 101.892 134.707 101.893Z" fill="#263238"/>
<path d="M132.97 101.893C133.064 101.892 133.158 101.909 133.245 101.944C133.332 101.979 133.411 102.031 133.478 102.097C133.546 102.163 133.599 102.242 133.635 102.329C133.672 102.415 133.691 102.508 133.692 102.602V107.087C133.692 107.278 133.616 107.461 133.48 107.597C133.345 107.732 133.162 107.808 132.97 107.808C132.779 107.808 132.596 107.732 132.46 107.597C132.325 107.461 132.249 107.278 132.249 107.087V102.602C132.25 102.508 132.269 102.415 132.305 102.329C132.342 102.242 132.395 102.163 132.462 102.097C132.529 102.031 132.609 101.979 132.696 101.944C132.783 101.909 132.876 101.892 132.97 101.893Z" fill="#263238"/>
<path d="M131.732 101.893C131.713 101.961 131.713 102.032 131.732 102.1C131.798 102.166 131.851 102.244 131.887 102.33C131.924 102.416 131.943 102.509 131.943 102.602V107.087C131.943 107.18 131.924 107.272 131.887 107.359C131.851 107.445 131.798 107.523 131.732 107.588C131.418 107.737 131.074 107.808 130.728 107.796C129.913 107.796 129.395 107.479 129.572 107.087L131.422 102.602C131.543 102.374 131.646 102.136 131.732 101.893Z" fill="#263238"/>
<path d="M131.732 101.893C131.593 102.12 131.471 102.357 131.367 102.602L129.082 107.087C128.897 107.479 128.09 107.796 127.275 107.796C126.459 107.796 126.126 107.479 126.538 107.087L131.022 102.602L131.536 102.1C131.665 101.971 131.732 101.893 131.732 101.893Z" fill="#263238"/>
<path d="M131.732 101.893C131.658 101.952 131.589 102.016 131.524 102.085L131.022 102.602L126.538 107.087C126.146 107.479 125.828 107.153 125.828 106.303C125.828 105.452 126.146 104.648 126.538 104.472L131.022 102.23C131.267 102.135 131.504 102.023 131.732 101.893Z" fill="#263238"/>
<path d="M131.732 101.893C131.489 101.97 131.251 102.064 131.022 102.175L126.538 103.966C126.146 104.139 125.828 103.606 125.828 102.771C125.827 102.577 125.846 102.384 125.883 102.194C125.9 102.11 125.922 102.026 125.95 101.944C125.956 101.913 125.969 101.885 125.989 101.861L126.036 101.81C126.101 101.742 126.178 101.688 126.265 101.651C126.351 101.614 126.444 101.595 126.538 101.595H131.022C131.116 101.595 131.209 101.614 131.295 101.651C131.381 101.688 131.459 101.742 131.524 101.81L131.567 101.861C131.567 101.885 131.594 101.9 131.61 101.897H131.732V101.893Z" fill="#263238"/>
<path d="M131.732 100.56C131.734 100.655 131.717 100.749 131.682 100.838C131.648 100.926 131.596 101.007 131.53 101.076C131.464 101.144 131.385 101.199 131.298 101.237C131.211 101.275 131.117 101.295 131.022 101.297H126.538C126.351 101.283 126.176 101.199 126.049 101.062C125.921 100.925 125.851 100.745 125.851 100.558C125.851 100.371 125.921 100.19 126.049 100.053C126.176 99.9162 126.351 99.8325 126.538 99.8188H131.022C131.117 99.8209 131.211 99.8417 131.298 99.88C131.386 99.9183 131.464 99.9735 131.53 100.042C131.596 100.111 131.648 100.192 131.682 100.281C131.717 100.37 131.734 100.464 131.732 100.56Z" fill="#263238"/>
<path d="M131.732 98.7841C131.734 98.8793 131.717 98.974 131.682 99.0628C131.648 99.1516 131.596 99.2327 131.53 99.3015C131.464 99.3703 131.386 99.4255 131.298 99.4638C131.211 99.5021 131.117 99.5229 131.022 99.525H126.538C126.351 99.5114 126.176 99.4276 126.049 99.2905C125.921 99.1534 125.851 98.9732 125.851 98.786C125.851 98.5989 125.921 98.4186 126.049 98.2816C126.176 98.1445 126.351 98.0607 126.538 98.0471H131.022C131.117 98.0486 131.211 98.069 131.298 98.1069C131.385 98.1448 131.464 98.1996 131.53 98.268C131.596 98.3365 131.648 98.4174 131.682 98.5059C131.717 98.5945 131.734 98.689 131.732 98.7841Z" fill="#263238"/>
<path d="M131.732 97.0121C131.734 97.1073 131.717 97.2021 131.682 97.2908C131.648 97.3796 131.596 97.4607 131.53 97.5295C131.464 97.5983 131.386 97.6535 131.298 97.6918C131.211 97.7302 131.117 97.7509 131.022 97.753H126.538C126.351 97.7394 126.176 97.6556 126.049 97.5185C125.921 97.3815 125.851 97.2012 125.851 97.0141C125.851 96.8269 125.921 96.6467 126.049 96.5096C126.176 96.3725 126.351 96.2888 126.538 96.2751H131.022C131.117 96.2767 131.211 96.297 131.298 96.3349C131.385 96.3728 131.464 96.4276 131.53 96.4961C131.596 96.5646 131.648 96.6454 131.682 96.734C131.717 96.8225 131.734 96.9171 131.732 97.0121Z" fill="#263238"/>
<path d="M131.732 95.256C131.734 95.3511 131.717 95.4456 131.682 95.5341C131.648 95.6227 131.596 95.7036 131.53 95.772C131.464 95.8405 131.385 95.8953 131.298 95.9332C131.211 95.9711 131.117 95.9915 131.022 95.993H126.538C126.351 95.9794 126.176 95.8956 126.049 95.7585C125.921 95.6215 125.851 95.4412 125.851 95.2541C125.851 95.0669 125.921 94.8866 126.049 94.7496C126.176 94.6125 126.351 94.5287 126.538 94.5151H131.022C131.117 94.5172 131.211 94.538 131.298 94.5763C131.386 94.6146 131.464 94.6698 131.53 94.7386C131.596 94.8074 131.648 94.8885 131.682 94.9773C131.717 95.0661 131.734 95.1608 131.732 95.256Z" fill="#263238"/>
<path d="M131.732 93.4645C131.734 93.5597 131.717 93.6545 131.682 93.7432C131.648 93.832 131.596 93.9131 131.53 93.9819C131.464 94.0507 131.386 94.1059 131.298 94.1442C131.211 94.1826 131.117 94.2033 131.022 94.2054H126.538C126.351 94.1918 126.176 94.108 126.049 93.9709C125.921 93.8339 125.851 93.6536 125.851 93.4665C125.851 93.2793 125.921 93.0991 126.049 92.962C126.176 92.8249 126.351 92.7411 126.538 92.7275H131.022C131.117 92.7291 131.211 92.7494 131.298 92.7873C131.385 92.8252 131.464 92.88 131.53 92.9485C131.596 93.017 131.648 93.0978 131.682 93.1864C131.717 93.2749 131.734 93.3694 131.732 93.4645Z" fill="#263238"/>
<path d="M131.732 91.6928C131.734 91.7878 131.717 91.8824 131.682 91.9709C131.648 92.0595 131.596 92.1403 131.53 92.2088C131.464 92.2773 131.385 92.3321 131.298 92.37C131.211 92.4079 131.117 92.4282 131.022 92.4297H126.538C126.351 92.4161 126.176 92.3324 126.049 92.1953C125.921 92.0582 125.851 91.878 125.851 91.6908C125.851 91.5037 125.921 91.3234 126.049 91.1863C126.176 91.0493 126.351 90.9655 126.538 90.9519H131.022C131.117 90.9539 131.211 90.9747 131.298 91.0131C131.386 91.0514 131.464 91.1065 131.53 91.1753C131.596 91.2441 131.648 91.3253 131.682 91.414C131.717 91.5028 131.734 91.5975 131.732 91.6928Z" fill="#263238"/>
<path d="M131.732 89.4818C131.731 89.6754 131.711 89.8684 131.673 90.0581C131.657 90.1429 131.636 90.2267 131.61 90.3089C131.603 90.3385 131.588 90.3656 131.567 90.3873C131.555 90.4073 131.54 90.4257 131.524 90.4422C131.459 90.5101 131.381 90.5641 131.295 90.6012C131.209 90.6382 131.116 90.6575 131.022 90.6578H126.538C126.444 90.6575 126.351 90.6382 126.265 90.6012C126.179 90.5641 126.101 90.5101 126.036 90.4422L125.989 90.3873C125.989 90.3677 125.961 90.3521 125.95 90.356H125.832C126.076 90.2833 126.314 90.1888 126.542 90.0737L131.026 88.2862C131.414 88.1098 131.732 88.6469 131.732 89.4818Z" fill="#263238"/>
<path d="M131.732 85.9342C131.732 86.7692 131.414 87.5885 131.022 87.7649L126.538 90.0032C126.294 90.1062 126.057 90.2241 125.828 90.356C125.828 90.356 125.906 90.2933 126.036 90.1639L126.538 89.6504L131.022 85.1659C131.414 84.7543 131.732 85.0993 131.732 85.9342Z" fill="#263238"/>
<path d="M130.332 84.4565C131.116 84.4565 131.43 84.7741 131.022 85.1661L126.538 89.6505L126.02 90.1601C125.952 90.2244 125.888 90.2925 125.828 90.364C125.968 90.1375 126.092 89.9018 126.2 89.6584L128.552 85.1739C128.752 84.7741 129.548 84.4565 130.332 84.4565Z" fill="#263238"/>
<path d="M126.984 84.4563C127.768 84.4563 128.258 84.7739 128.074 85.1659L126.114 89.6503C125.997 89.8786 125.895 90.1143 125.808 90.3559C125.814 90.2881 125.814 90.2199 125.808 90.1521V90.0463C125.782 90.008 125.76 89.9673 125.742 89.9247C125.705 89.8379 125.686 89.7446 125.687 89.6503V85.1659C125.687 85.0704 125.706 84.9759 125.742 84.8875C125.759 84.8459 125.782 84.8064 125.808 84.7699C125.859 84.7284 125.914 84.6929 125.973 84.6641C126.289 84.5157 126.636 84.4445 126.984 84.4563Z" fill="#263238"/>
<path d="M124.73 84.4565C124.917 84.4586 125.095 84.5344 125.226 84.6674C125.356 84.8003 125.429 84.9796 125.428 85.1661V89.6505C125.428 89.8356 125.355 90.0131 125.224 90.1439C125.093 90.2748 124.916 90.3483 124.73 90.3483C124.545 90.3483 124.368 90.2748 124.237 90.1439C124.106 90.0131 124.033 89.8356 124.033 89.6505V85.1661C124.032 84.9796 124.104 84.8003 124.235 84.6674C124.366 84.5344 124.544 84.4586 124.73 84.4565Z" fill="#263238"/>
<path d="M123.057 84.4565C123.243 84.4586 123.421 84.5344 123.552 84.6674C123.683 84.8003 123.755 84.9796 123.754 85.1661V89.6505C123.754 89.8356 123.681 90.0131 123.55 90.1439C123.419 90.2748 123.242 90.3483 123.057 90.3483C122.872 90.3483 122.694 90.2748 122.563 90.1439C122.432 90.0131 122.359 89.8356 122.359 89.6505V85.1661C122.358 85.0736 122.375 84.9818 122.41 84.896C122.444 84.8103 122.495 84.7322 122.56 84.6662C122.625 84.6003 122.702 84.5478 122.787 84.5118C122.873 84.4758 122.964 84.4571 123.057 84.4565Z" fill="#263238"/>
<path d="M121.383 84.4565C121.569 84.4586 121.747 84.5344 121.878 84.6674C122.009 84.8003 122.082 84.9796 122.08 85.1661V89.6505C122.081 89.7427 122.063 89.834 122.029 89.9194C121.994 90.0047 121.943 90.0823 121.878 90.1479C121.813 90.2134 121.736 90.2655 121.651 90.3012C121.566 90.337 121.475 90.3556 121.383 90.3561C121.29 90.3561 121.199 90.3379 121.113 90.3024C121.028 90.2669 120.95 90.2148 120.885 90.1492C120.82 90.0837 120.768 90.0059 120.733 89.9203C120.698 89.8347 120.681 89.743 120.681 89.6505V85.1661C120.681 85.0734 120.698 84.9815 120.733 84.8957C120.768 84.8099 120.82 84.7319 120.885 84.666C120.95 84.6001 121.028 84.5477 121.113 84.5118C121.198 84.4758 121.29 84.4571 121.383 84.4565Z" fill="#263238"/>
<path d="M120.195 93.0883V81.8262C121.356 81.8262 122.47 82.2875 123.291 83.1086C124.112 83.9298 124.574 85.0435 124.574 86.2048V88.7097C124.574 89.2847 124.46 89.8541 124.24 90.3853C124.02 90.9166 123.698 91.3993 123.291 91.8059C122.885 92.2124 122.402 92.535 121.871 92.755C121.339 92.9751 120.77 93.0883 120.195 93.0883Z" fill="white" stroke="#263238" stroke-linecap="round" stroke-linejoin="round"/>
<path d="M108.933 103.951L120.646 98.1687C121.199 97.8958 121.664 97.4736 121.99 96.9499C122.316 96.4262 122.488 95.8218 122.488 95.2051V79.9171C122.488 79.3005 122.316 78.6961 121.99 78.1724C121.664 77.6487 121.199 77.2265 120.646 76.9536L108.933 71.1716V103.951Z" fill="white" stroke="#263238" stroke-linecap="round" stroke-linejoin="round"/>
<path d="M130.834 110.383H139.489" stroke="#263238" stroke-linecap="round" stroke-linejoin="round"/>
<path d="M129.105 111.9H132.567" stroke="#263238" stroke-linecap="round" stroke-linejoin="round"/>
<path d="M134.511 87.9766V96.4163" stroke="#263238" stroke-linecap="round" stroke-linejoin="round"/>
<path d="M132.998 91.0067V85.8167" stroke="#263238" stroke-linecap="round" stroke-linejoin="round"/>
<path d="M123.045 101.606V105.934" stroke="#263238" stroke-linecap="round" stroke-linejoin="round"/>
<path d="M124.562 100.093V103.99" stroke="#263238" stroke-linecap="round" stroke-linejoin="round"/>
<path d="M198.995 71.1519H201.245" stroke="#263238" stroke-width="9" stroke-linecap="round" stroke-linejoin="round"/>
<path d="M181.727 98.1803H190.735V71.1519H198.995" stroke="#263238" stroke-width="4" stroke-linecap="round" stroke-linejoin="round"/>
<path d="M198.995 125.71H201.747" stroke="#263238" stroke-width="9" stroke-linecap="round" stroke-linejoin="round"/>
<path d="M179.975 106.44H190.484V125.71H198.995" stroke="#263238" stroke-width="4" stroke-linecap="round" stroke-linejoin="round"/>
<path d="M147.533 72.5945H145.287V92.9432" stroke="#263238" stroke-width="4" stroke-linecap="round" stroke-linejoin="round"/>
<path d="M149.281 72.5945H147.533" stroke="#263238" stroke-width="7" stroke-linecap="round" stroke-linejoin="round"/>
<path d="M169.364 80.2307H159.097V91.2302H169.364V80.2307Z" fill="#263238" stroke="#263238" stroke-linecap="round" stroke-linejoin="round"/>
<path d="M178.827 65.0171H168.744V74.919H178.827V65.0171Z" fill="#263238" stroke="#263238" stroke-linecap="round" stroke-linejoin="round"/>
<path d="M174.797 74.9152H179.262C178.199 77.7342 176.354 80.1917 173.943 81.9992C171.533 83.8068 168.657 84.8895 165.653 85.1204C162.649 85.3512 159.642 84.7206 156.984 83.3026C154.325 81.8845 152.127 79.7378 150.646 77.1143C149.249 74.6586 148.542 71.8713 148.599 69.0469C148.599 68.8 148.599 68.5491 148.619 68.3021C148.866 64.5054 150.469 60.924 153.138 58.2116C155.806 55.4991 159.36 53.8364 163.152 53.5269C166.944 53.2175 170.721 54.2818 173.794 56.5258C176.866 58.7698 179.03 62.0438 179.889 65.7502H174.793C174.191 65.7502 173.595 65.8687 173.039 66.099C172.483 66.3293 171.978 66.6669 171.552 67.0924C171.127 67.5179 170.789 68.0231 170.559 68.5791C170.329 69.135 170.21 69.7309 170.21 70.3327C170.21 70.9345 170.329 71.5304 170.559 72.0863C170.789 72.6423 171.127 73.1475 171.552 73.573C171.978 73.9985 172.483 74.3361 173.039 74.5664C173.595 74.7966 174.191 74.9152 174.793 74.9152H174.797Z" fill="white" stroke="#263238" stroke-linecap="round" stroke-linejoin="round"/>
<path d="M165.628 69.9641H170.214" stroke="#263238" stroke-linecap="round" stroke-linejoin="round"/>
<path d="M161.963 54.198V84.4486" stroke="#263238" stroke-linecap="round" stroke-linejoin="round"/>
<path d="M161.594 73.9978C163.822 73.9978 165.628 72.1918 165.628 69.9641C165.628 67.7364 163.822 65.9304 161.594 65.9304C159.366 65.9304 157.56 67.7364 157.56 69.9641C157.56 72.1918 159.366 73.9978 161.594 73.9978Z" fill="#263238" stroke="#263238" stroke-linecap="round" stroke-linejoin="round"/>
<path d="M163.613 69.9641C163.613 69.5647 163.494 69.1742 163.272 68.8421C163.05 68.51 162.735 68.2513 162.366 68.0986C161.997 67.9459 161.591 67.9062 161.199 67.9844C160.807 68.0626 160.447 68.2553 160.165 68.538C159.883 68.8207 159.691 69.1808 159.614 69.5727C159.536 69.9645 159.577 70.3706 159.73 70.7394C159.884 71.1082 160.143 71.4232 160.475 71.6446C160.808 71.8659 161.199 71.9837 161.598 71.9829C161.863 71.9829 162.125 71.9307 162.37 71.8292C162.615 71.7277 162.837 71.5789 163.024 71.3914C163.211 71.2039 163.36 70.9813 163.461 70.7364C163.562 70.4915 163.613 70.229 163.613 69.9641Z" fill="white" stroke="#263238" stroke-linecap="round" stroke-linejoin="round"/>
<path d="M175.161 71.979C176.274 71.979 177.176 71.0769 177.176 69.9641C177.176 68.8513 176.274 67.9492 175.161 67.9492C174.048 67.9492 173.146 68.8513 173.146 69.9641C173.146 71.0769 174.048 71.979 175.161 71.979Z" fill="white"/>
<path d="M153.711 69.0469V77.1142H150.634C149.237 74.6585 148.53 71.8712 148.588 69.0469H153.711Z" fill="#263238" stroke="#263238" stroke-linecap="round" stroke-linejoin="round"/>
<path d="M164.232 122.892V146.706" stroke="#263238" stroke-width="3" stroke-linecap="round" stroke-linejoin="round"/>
<path d="M164.232 139.36C167.614 139.36 170.355 136.618 170.355 133.237C170.355 129.855 167.614 127.114 164.232 127.114C160.851 127.114 158.109 129.855 158.109 133.237C158.109 136.618 160.851 139.36 164.232 139.36Z" fill="white" stroke="#263238" stroke-linecap="round" stroke-linejoin="round"/>
<path d="M164.232 148.423C165.856 148.423 167.172 147.107 167.172 145.483C167.172 143.859 165.856 142.543 164.232 142.543C162.609 142.543 161.292 143.859 161.292 145.483C161.292 147.107 162.609 148.423 164.232 148.423Z" fill="white" stroke="#263238" stroke-linecap="round" stroke-linejoin="round"/>
<path d="M186.165 95.3658L179.403 115.519C177.517 121.132 171.802 124.966 165.322 124.966H163.139C156.659 124.966 150.943 121.132 149.062 115.519L142.296 95.3658C141.269 92.3043 143.801 89.2153 147.333 89.2153H181.127C184.663 89.2153 187.192 92.3043 186.165 95.3658Z" fill="white" stroke="#263238" stroke-linecap="round" stroke-linejoin="round"/>
<path d="M183.338 97.2551C182.519 97.032 181.646 97.1291 180.896 97.5267C180.146 97.9242 179.576 98.5924 179.301 99.3955L173.836 115.358C173.57 116.136 173.601 116.984 173.922 117.741C174.243 118.498 174.832 119.109 175.577 119.458L176.753 120.019C177.929 118.713 178.826 117.182 179.391 115.518L185.334 97.8039L183.338 97.2551Z" fill="white" stroke="#263238" stroke-linecap="round" stroke-linejoin="round"/>
<path d="M148.995 99.3955C148.72 98.5924 148.15 97.9242 147.4 97.5267C146.65 97.1291 145.777 97.032 144.958 97.2551L143.1 97.7608L149.062 115.518C149.616 117.159 150.496 118.671 151.649 119.964L152.719 119.458C153.461 119.106 154.047 118.494 154.366 117.738C154.685 116.981 154.714 116.134 154.448 115.358L148.995 99.3955Z" fill="white" stroke="#263238" stroke-linecap="round" stroke-linejoin="round"/>
<path d="M174.832 89.2153C174.752 89.9597 174.399 90.6481 173.842 91.1481C173.285 91.6481 172.562 91.9245 171.814 91.9241H156.134C155.385 91.9245 154.663 91.6481 154.105 91.1481C153.548 90.6481 153.196 89.9597 153.115 89.2153H174.832Z" fill="white" stroke="#263238" stroke-linecap="round" stroke-linejoin="round"/>
<path d="M164.248 124.852V91.9241" stroke="#263238" stroke-linecap="round" stroke-linejoin="round"/>
<path d="M173.154 95.844H155.31C154.215 95.844 153.327 96.732 153.327 97.8275V105.958C153.327 107.053 154.215 107.941 155.31 107.941H173.154C174.25 107.941 175.138 107.053 175.138 105.958V97.8275C175.138 96.732 174.25 95.844 173.154 95.844Z" fill="white" stroke="#263238" stroke-linecap="round" stroke-linejoin="round"/>
<path d="M161.43 97.3806C161.974 97.3806 162.214 97.7099 162.214 98.2509V100.015C162.214 100.552 161.967 100.881 161.43 100.881H160.606V97.3806H161.43ZM161.43 100.517C161.712 100.517 161.845 100.34 161.845 100.019V98.2195C161.845 97.8981 161.712 97.7256 161.426 97.7256H161.006V100.517H161.43Z" fill="#263238"/>
<path d="M162.978 100.176L162.841 100.881H162.484L163.154 97.3806H163.719L164.389 100.881H163.997L163.864 100.176H162.978ZM163.029 99.8424H163.813L163.421 97.8197L163.029 99.8424Z" fill="#263238"/>
<path d="M165.008 100.881V97.7451H164.362V97.3884H166.039V97.7451H165.393V100.881H165.008Z" fill="#263238"/>
<path d="M166.51 100.176L166.373 100.881H166.012L166.682 97.3806H167.251L167.921 100.881H167.529L167.396 100.176H166.51ZM166.561 99.8424H167.345L166.953 97.8197L166.561 99.8424Z" fill="#263238"/>
<path d="M156.494 103.747V104.096H155.624V105.342H156.674V105.695H155.232V102.194H156.674V102.551H155.624V103.747H156.494Z" fill="#263238"/>
<path d="M157.917 104.186L157.333 105.695H156.965L157.67 103.892L157.008 102.194H157.4L157.937 103.594L158.482 102.194H158.85L158.207 103.88L158.909 105.683H158.497L157.917 104.186Z" fill="#263238"/>
<path d="M159.728 105.695V102.559H159.085V102.202H160.759V102.559H160.116V105.695H159.728Z" fill="#263238"/>
<path d="M161.806 102.194C162.355 102.194 162.59 102.477 162.59 102.978V103.264C162.613 103.417 162.582 103.572 162.503 103.704C162.423 103.836 162.3 103.935 162.155 103.986C162.476 104.08 162.594 104.339 162.594 104.715V105.26C162.581 105.403 162.605 105.548 162.664 105.679H162.272C162.219 105.545 162.198 105.4 162.21 105.256V104.703C162.21 104.311 162.021 104.186 161.696 104.186H161.422V105.679H161.03V102.194H161.806ZM161.704 103.845C162.014 103.845 162.202 103.747 162.202 103.366V103.029C162.202 102.716 162.084 102.551 161.81 102.551H161.418V103.845H161.704Z" fill="#263238"/>
<path d="M163.39 104.989L163.256 105.695H162.896L163.566 102.194H164.13L164.801 105.695H164.409L164.272 104.989H163.39ZM163.441 104.656H164.225L163.833 102.633L163.441 104.656Z" fill="#263238"/>
<path d="M166.647 103.041V103.355H166.275V103.022C166.275 102.704 166.153 102.516 165.883 102.516C165.612 102.516 165.471 102.704 165.471 103.022V104.872C165.471 105.185 165.6 105.378 165.883 105.378C166.165 105.378 166.275 105.185 166.275 104.872V104.417H166.647V104.852C166.647 105.381 166.396 105.73 165.863 105.73C165.33 105.73 165.079 105.381 165.079 104.852V103.041C165.079 102.508 165.33 102.159 165.863 102.159C166.396 102.159 166.647 102.508 166.647 103.041Z" fill="#263238"/>
<path d="M167.506 105.695V102.559H166.863V102.202H168.537V102.559H167.894V105.695H167.506Z" fill="#263238"/>
<path d="M169.191 102.194V105.695H168.799V102.194H169.191Z" fill="#263238"/>
<path d="M169.563 103.041C169.563 102.504 169.826 102.159 170.347 102.159C170.869 102.159 171.131 102.504 171.131 103.041V104.852C171.131 105.381 170.869 105.73 170.347 105.73C169.826 105.73 169.563 105.381 169.563 104.852V103.041ZM169.955 104.872C169.955 105.189 170.089 105.378 170.371 105.378C170.653 105.378 170.787 105.189 170.787 104.872V103.022C170.787 102.704 170.657 102.516 170.371 102.516C170.085 102.516 169.955 102.704 169.955 103.022V104.872Z" fill="#263238"/>
<path d="M171.884 105.695H171.531V102.194H172.029L172.837 104.727V102.194H173.182V105.695H172.79L171.896 102.865L171.884 105.695Z" fill="#263238"/>
<path d="M164.232 114.072C165.531 114.072 166.584 113.019 166.584 111.72C166.584 110.421 165.531 109.368 164.232 109.368C162.933 109.368 161.88 110.421 161.88 111.72C161.88 113.019 162.933 114.072 164.232 114.072Z" fill="#263238" stroke="#263238" stroke-linecap="round" stroke-linejoin="round"/>
<path d="M164.232 112.7C164.774 112.7 165.212 112.261 165.212 111.72C165.212 111.179 164.774 110.74 164.232 110.74C163.691 110.74 163.252 111.179 163.252 111.72C163.252 112.261 163.691 112.7 164.232 112.7Z" fill="white"/>
<path d="M259.618 47.1458H205.392C202.578 47.1458 200.296 49.4273 200.296 52.2418V89.6464C200.296 92.4608 202.578 94.7424 205.392 94.7424H259.618C262.432 94.7424 264.714 92.4608 264.714 89.6464V52.2418C264.714 49.4273 262.432 47.1458 259.618 47.1458Z" fill="#263238" stroke="#263238" stroke-linecap="round" stroke-linejoin="round"/>
<path d="M258.371 50.0505H206.639C204.634 50.0505 203.009 51.6757 203.009 53.6805V88.2039C203.009 90.2086 204.634 91.8338 206.639 91.8338H258.371C260.376 91.8338 262.001 90.2086 262.001 88.2039V53.6805C262.001 51.6757 260.376 50.0505 258.371 50.0505Z" fill="white" stroke="#263238" stroke-linecap="round" stroke-linejoin="round"/>
<path d="M257.415 57.032H210.641V58.7372H257.415V57.032Z" fill="#E0E0E0"/>
<path d="M257.415 61.0461H210.641V62.7513H257.415V61.0461Z" fill="#E0E0E0"/>
<path d="M257.415 65.0601H210.641V66.7653H257.415V65.0601Z" fill="#E0E0E0"/>
<path d="M257.415 69.0781H210.641V70.7833H257.415V69.0781Z" fill="#E0E0E0"/>
<path d="M257.415 73.0923H210.641V74.7975H257.415V73.0923Z" fill="#E0E0E0"/>
<path d="M257.415 77.1062H210.641V78.8114H257.415V77.1062Z" fill="#E0E0E0"/>
<path d="M257.415 81.1204H210.641V82.8256H257.415V81.1204Z" fill="#E0E0E0"/>
<path d="M215.498 67.0398H210.943V85.8558H215.498V67.0398Z" fill="#263238"/>
<path d="M222.464 72.3162H217.909V85.8558H222.464V72.3162Z" fill="white"/>
<path d="M229.43 69.0349H224.875V85.8556H229.43V69.0349Z" fill="#263238"/>
<path d="M236.4 75.8362H231.844V85.8596H236.4V75.8362Z" fill="white"/>
<path d="M243.365 69.3879H238.81V85.8598H243.365V69.3879Z" fill="#263238"/>
<path d="M250.335 65.0483H245.78V85.8557H250.335V65.0483Z" fill="white"/>
<path d="M257.301 62.3513H252.746V85.8556H257.301V62.3513Z" fill="#263238"/>
<path d="M207.192 57.3496H208.748" stroke="#263238" stroke-linecap="round" stroke-linejoin="round"/>
<path d="M207.192 59.584H208.748" stroke="#263238" stroke-linecap="round" stroke-linejoin="round"/>
<path d="M207.192 61.8223H208.748" stroke="#263238" stroke-linecap="round" stroke-linejoin="round"/>
<path d="M207.192 64.0605H208.748" stroke="#263238" stroke-linecap="round" stroke-linejoin="round"/>
<path d="M207.192 66.2988H208.748" stroke="#263238" stroke-linecap="round" stroke-linejoin="round"/>
<path d="M207.192 68.5332H208.748" stroke="#263238" stroke-linecap="round" stroke-linejoin="round"/>
<path d="M207.192 70.7715H208.748" stroke="#263238" stroke-linecap="round" stroke-linejoin="round"/>
<path d="M207.192 73.01H208.748" stroke="#263238" stroke-linecap="round" stroke-linejoin="round"/>
<path d="M207.192 75.2483H208.748" stroke="#263238" stroke-linecap="round" stroke-linejoin="round"/>
<path d="M207.192 77.4827H208.748" stroke="#263238" stroke-linecap="round" stroke-linejoin="round"/>
<path d="M207.192 79.7209H208.748" stroke="#263238" stroke-linecap="round" stroke-linejoin="round"/>
<path d="M207.192 81.9592H208.748" stroke="#263238" stroke-linecap="round" stroke-linejoin="round"/>
<path d="M207.192 84.1975H208.748" stroke="#263238" stroke-linecap="round" stroke-linejoin="round"/>
<path d="M207.192 86.4319H208.748" stroke="#263238" stroke-linecap="round" stroke-linejoin="round"/>
<path d="M257.43 87.075V88.6312" stroke="#263238" stroke-linecap="round" stroke-linejoin="round"/>
<path d="M253.714 87.075V88.6312" stroke="#263238" stroke-linecap="round" stroke-linejoin="round"/>
<path d="M249.998 87.075V88.6312" stroke="#263238" stroke-linecap="round" stroke-linejoin="round"/>
<path d="M246.286 87.075V88.6312" stroke="#263238" stroke-linecap="round" stroke-linejoin="round"/>
<path d="M242.57 87.075V88.6312" stroke="#263238" stroke-linecap="round" stroke-linejoin="round"/>
<path d="M238.853 87.075V88.6312" stroke="#263238" stroke-linecap="round" stroke-linejoin="round"/>
<path d="M235.141 87.075V88.6312" stroke="#263238" stroke-linecap="round" stroke-linejoin="round"/>
<path d="M231.425 87.075V88.6312" stroke="#263238" stroke-linecap="round" stroke-linejoin="round"/>
<path d="M227.709 87.075V88.6312" stroke="#263238" stroke-linecap="round" stroke-linejoin="round"/>
<path d="M223.997 87.075V88.6312" stroke="#263238" stroke-linecap="round" stroke-linejoin="round"/>
<path d="M220.28 87.075V88.6312" stroke="#263238" stroke-linecap="round" stroke-linejoin="round"/>
<path d="M216.564 87.075V88.6312" stroke="#263238" stroke-linecap="round" stroke-linejoin="round"/>
<path d="M212.848 87.075V88.6312" stroke="#263238" stroke-linecap="round" stroke-linejoin="round"/>
<path d="M209.136 87.075V88.6312" stroke="#263238" stroke-linecap="round" stroke-linejoin="round"/>
<path d="M237.521 53.1472H227.101V54.8563H237.521V53.1472Z" fill="#263238"/>
<path d="M259.618 100.517H205.392C202.578 100.517 200.296 102.798 200.296 105.613V143.017C200.296 145.832 202.578 148.113 205.392 148.113H259.618C262.432 148.113 264.714 145.832 264.714 143.017V105.613C264.714 102.798 262.432 100.517 259.618 100.517Z" fill="#263238" stroke="#263238" stroke-linecap="round" stroke-linejoin="round"/>
<path d="M258.371 103.425H206.639C204.634 103.425 203.009 105.05 203.009 107.055V141.579C203.009 143.583 204.634 145.209 206.639 145.209H258.371C260.376 145.209 262.001 143.583 262.001 141.579V107.055C262.001 105.05 260.376 103.425 258.371 103.425Z" fill="white" stroke="#263238" stroke-linecap="round" stroke-linejoin="round"/>
<path d="M222.601 141.167C218.657 141.167 214.855 139.699 211.934 137.05C209.013 134.401 207.182 130.76 206.797 126.835C206.413 122.91 207.502 118.983 209.854 115.817C212.206 112.652 215.651 110.474 219.52 109.709L220.273 113.558C218.665 113.874 217.139 114.516 215.79 115.446C214.441 116.375 213.297 117.572 212.429 118.961C211.562 120.351 210.989 121.904 210.746 123.525C210.504 125.145 210.597 126.798 211.02 128.381C211.442 129.964 212.186 131.443 213.204 132.727C214.222 134.01 215.493 135.071 216.938 135.843C218.383 136.615 219.971 137.082 221.604 137.215C223.237 137.348 224.88 137.144 226.431 136.616L227.689 140.328C226.05 140.884 224.332 141.167 222.601 141.167Z" fill="#263238"/>
<path d="M233.847 121.222C232.872 118.541 230.972 116.297 228.489 114.892C226.007 113.487 223.104 113.014 220.304 113.559L219.52 109.709C223.243 108.984 227.103 109.613 230.404 111.481C233.705 113.35 236.23 116.336 237.524 119.901L233.847 121.222Z" fill="white"/>
<path d="M227.701 140.336L226.443 136.624C227.948 136.111 229.336 135.304 230.526 134.249C231.717 133.194 232.685 131.913 233.374 130.48C234.063 129.047 234.46 127.491 234.542 125.902C234.623 124.314 234.387 122.726 233.848 121.23L237.536 119.897C238.252 121.884 238.564 123.993 238.456 126.101C238.347 128.21 237.82 130.276 236.904 132.179C235.989 134.081 234.703 135.783 233.123 137.183C231.543 138.584 229.7 139.655 227.701 140.336Z" fill="#A8A8A8"/>
<path d="M248.21 113.053H243.804V117.459H248.21V113.053Z" fill="#263238"/>
<path d="M248.21 123.837H243.804V128.243H248.21V123.837Z" fill="white"/>
<path d="M248.21 134.625H243.804V139.031H248.21V134.625Z" fill="#A8A8A8"/>
<path d="M250.527 115.373H257.952" stroke="#263238" stroke-linecap="round" stroke-linejoin="round"/>
<path d="M250.527 125.808H257.952" stroke="#263238" stroke-linecap="round" stroke-linejoin="round"/>
<path d="M218.52 125.577H225.945" stroke="#263238" stroke-linecap="round" stroke-linejoin="round"/>
<path d="M250.527 136.71H257.952" stroke="#263238" stroke-linecap="round" stroke-linejoin="round"/>
<path d="M37.6321 174.162H29.0081" stroke="#263238" stroke-width="0.75" stroke-miterlimit="10" stroke-linecap="round"/>
<path d="M255.976 174.162H42.3361" stroke="#263238" stroke-width="0.75" stroke-miterlimit="10" stroke-linecap="round"/>
<path d="M272.44 174.162H258.72" stroke="#263238" stroke-width="0.75" stroke-miterlimit="10" stroke-linecap="round"/>
</svg>
